G04 GENERATED BY PULSONIX 7.0 GERBER.DLL 4573*
%INI2C_TO_USB_BRIDGE_V1_0_2*%
%LNGERBER_SOLDERMASK_TOP*%
%FSLAX33Y33*%
%IPPOS*%
%LPD*%
%OFA0B0*%
%MOMM*%
%ADD22C,1.067*%
%ADD115R,0.813X0.864*%
%ADD121R,0.451X0.651*%
%ADD343R,1.251X1.251*%
%ADD5705R,0.451X2.051*%
%ADD6187R,0.864X0.813*%
%ADD6188R,1.496X0.457*%
%ADD6189R,0.953X0.699*%
%ADD6190R,1.551X0.551*%
%ADD6191O,3.651X1.851*%
%AMT6192*0 Rounded Rectangle pad*4,1,32,-0.533,0.381,-0.533,-0.381,-0.530,-0.415,-0.518,-0.447,-0.500,-0.476,-0.476,-0.500,-0.447,-0.518,-0.415,-0.530,-0.381,-0.533,0.381,-0.533,0.415,-0.530,0.447,-0.518,0.476,-0.500,0.500,-0.476,0.518,-0.447,0.530,-0.415,0.533,-0.381,0.533,0.381,0.530,0.415,0.518,0.447,0.500,0.476,0.476,0.500,0.447,0.518,0.415,0.530,0.381,0.533,-0.381,0.533,-0.415,0.530,-0.447,0.518,-0.476,0.500,-0.500,0.476,-0.518,0.447,-0.530,0.415,-0.533,0.381,0*%
%ADD6192T6192*%
%ADD6193R,0.651X0.451*%
%ADD6194R,2.551X0.951*%
X0Y0D02*
D02*
D22*
X127078Y132028D03*
X128348D03*
X129618D03*
X130888D03*
X132158D03*
D02*
D115*
X128053Y119615D03*
Y121240D03*
X136253Y129615D03*
Y131240D03*
D02*
D121*
X124003Y122828D03*
X124903D03*
X126603D03*
X127503D03*
X130003Y119228D03*
X130903D03*
X136003Y132628D03*
X136903D03*
X137003Y119228D03*
X137903D03*
D02*
D343*
X122153Y122278D03*
Y129577D03*
D02*
D5705*
X130053Y122028D03*
X131253D03*
X132453D03*
D02*
D6187*
X123640Y131028D03*
Y132228D03*
X125266Y131028D03*
Y132228D03*
X131840Y119228D03*
X133466D03*
X134440D03*
X136066D03*
X137840Y132628D03*
X139466D03*
D02*
D6188*
X126703Y124308D03*
Y124958D03*
Y125608D03*
Y126258D03*
Y126908D03*
Y127558D03*
Y128208D03*
Y128857D03*
Y129508D03*
Y130158D03*
X134203Y124308D03*
Y124958D03*
Y125608D03*
Y126258D03*
Y126908D03*
Y127558D03*
Y128208D03*
Y128857D03*
Y129508D03*
Y130158D03*
D02*
D6189*
X124259Y119462D03*
Y120428D03*
Y121393D03*
X126647Y119462D03*
Y121393D03*
D02*
D6190*
X122303Y124328D03*
Y125128D03*
Y125928D03*
Y126728D03*
Y127528D03*
D02*
D6191*
X118053Y120478D03*
Y131378D03*
D02*
D6192*
X133428Y132028D03*
D02*
D6193*
X124853Y126578D03*
Y127478D03*
X134053Y121978D03*
Y122878D03*
X135253Y121978D03*
Y122878D03*
D02*
D6194*
X138853Y120828D03*
Y122828D03*
Y124828D03*
Y126828D03*
Y128827D03*
Y130827D03*
X0Y0D02*
M02*
