G04 GENERATED BY PULSONIX 7.0 GERBER.DLL 4573*
%INI2C_TO_USB_BRIDGE_V1_0_2*%
%LNGERBER_SILKSCREEN_TOP*%
%FSLAX33Y33*%
%IPPOS*%
%LPD*%
%OFA0B0*%
%MOMM*%
%ADD10C,0.051*%
%ADD15C,0.125*%
%ADD17C,0.200*%
%ADD71C,0.127*%
%ADD78C,0.203*%
%ADD103C,0.076*%
%ADD345C,0.150*%
X0Y0D02*
D02*
D10*
X124452Y122723D02*
X124422Y122693D01*
X124362Y122663*
X124273*
X124213Y122693*
X124183Y122723*
X124153Y122783*
Y122902*
X124183Y122962*
X124213Y122992*
X124273Y123022*
X124362*
X124422Y122992*
X124452Y122962*
X124804Y122663D02*
X124565Y122663D01*
X124774Y122872*
X124804Y122932*
X124774Y122992*
X124714Y123022*
X124624*
X124565Y122992*
X124958Y127026D02*
X124988Y126996D01*
X125017Y126937*
Y126847*
X124988Y126787*
X124958Y126757*
X124898Y126728*
X124778*
X124719Y126757*
X124689Y126787*
X124659Y126847*
Y126937*
X124689Y126996*
X124719Y127026*
X124988Y127139D02*
X125017Y127199D01*
Y127288*
X124988Y127348*
X124928Y127378*
X124898*
X124838Y127348*
X124808Y127288*
Y127139*
X124659*
Y127378*
X126753Y122663D02*
X126753Y123022D01*
X126962*
X127022Y122992*
X127052Y122932*
X127022Y122872*
X126962Y122842*
X126753*
X126962D02*
X127052Y122663D01*
X127165Y122693D02*
X127224Y122663D01*
X127314*
X127374Y122693*
X127404Y122753*
Y122783*
X127374Y122842*
X127314Y122872*
X127165*
Y123022*
X127404*
X130153Y119063D02*
X130153Y119422D01*
X130362*
X130422Y119392*
X130452Y119332*
X130422Y119272*
X130362Y119242*
X130153*
X130362D02*
X130452Y119063D01*
X130714D02*
X130714Y119422D01*
X130565Y119183*
X130804*
X132353Y119063D02*
X132353Y119422D01*
X132532*
X132592Y119392*
X132622Y119362*
X132652Y119302*
Y119183*
X132622Y119123*
X132592Y119093*
X132532Y119063*
X132353*
X133004D02*
X132765Y119063D01*
X132974Y119272*
X133004Y119332*
X132974Y119392*
X132914Y119422*
X132824*
X132765Y119392*
X134158Y122426D02*
X134188Y122396D01*
X134217Y122337*
Y122247*
X134188Y122187*
X134158Y122157*
X134098Y122128*
X133978*
X133919Y122157*
X133889Y122187*
X133859Y122247*
Y122337*
X133889Y122396*
X133919Y122426*
X134217Y122599D02*
X134217Y122718D01*
Y122659D02*
X133859Y122659D01*
X133919Y122599*
X134953Y119063D02*
X134953Y119422D01*
X135132*
X135192Y119392*
X135222Y119362*
X135252Y119302*
Y119183*
X135222Y119123*
X135192Y119093*
X135132Y119063*
X134953*
X135394Y119093D02*
X135454Y119063D01*
X135514*
X135574Y119093*
X135604Y119153*
X135574Y119213*
X135514Y119242*
X135454*
X135514D02*
X135574Y119272D01*
X135604Y119332*
X135574Y119392*
X135514Y119422*
X135454*
X135394Y119392*
X135358Y122426D02*
X135388Y122396D01*
X135417Y122337*
Y122247*
X135388Y122187*
X135358Y122157*
X135298Y122128*
X135178*
X135119Y122157*
X135089Y122187*
X135059Y122247*
Y122337*
X135089Y122396*
X135119Y122426*
X135388Y122569D02*
X135417Y122629D01*
Y122688*
X135388Y122748*
X135328Y122778*
X135268Y122748*
X135238Y122688*
Y122629*
Y122688D02*
X135208Y122748D01*
X135149Y122778*
X135089Y122748*
X135059Y122688*
Y122629*
X135089Y122569*
X136153Y132463D02*
X136153Y132822D01*
X136362*
X136422Y132792*
X136452Y132732*
X136422Y132672*
X136362Y132642*
X136153*
X136362D02*
X136452Y132463D01*
X136594Y132493D02*
X136654Y132463D01*
X136714*
X136774Y132493*
X136804Y132553*
X136774Y132613*
X136714Y132642*
X136654*
X136714D02*
X136774Y132672D01*
X136804Y132732*
X136774Y132792*
X136714Y132822*
X136654*
X136594Y132792*
X137153Y119063D02*
X137153Y119422D01*
X137362*
X137422Y119392*
X137452Y119332*
X137422Y119272*
X137362Y119242*
X137153*
X137362D02*
X137452Y119063D01*
X137565Y119153D02*
X137594Y119213D01*
X137654Y119242*
X137714*
X137774Y119213*
X137804Y119153*
X137774Y119093*
X137714Y119063*
X137654*
X137594Y119093*
X137565Y119153*
Y119242*
X137594Y119332*
X137654Y119392*
X137714Y119422*
X138353Y132463D02*
X138353Y132822D01*
X138532*
X138592Y132792*
X138622Y132762*
X138652Y132702*
Y132583*
X138622Y132523*
X138592Y132493*
X138532Y132463*
X138353*
X138824D02*
X138944Y132463D01*
X138884D02*
X138884Y132822D01*
X138824Y132762*
D02*
D15*
X120353Y120605D02*
X120353Y119944D01*
X120427Y119797*
X120574Y119723*
X120868*
X121015Y119797*
X121088Y119944*
Y120605*
X121366Y119944D02*
X121439Y119797D01*
X121586Y119723*
X121880*
X122027Y119797*
X122101Y119944*
X122027Y120091*
X121880Y120164*
X121586*
X121439Y120238*
X121366Y120385*
X121439Y120532*
X121586Y120605*
X121880*
X122027Y120532*
X122101Y120385*
X122893Y120164D02*
X123040Y120091D01*
X123113Y119944*
X123040Y119797*
X122893Y119723*
X122378*
Y120605*
X122893*
X123040Y120532*
X123113Y120385*
X123040Y120238*
X122893Y120164*
X122378*
X131453Y124832D02*
X131159Y124832D01*
X131306D02*
X131306Y123950D01*
X131453D02*
X131159Y123950D01*
X130180Y124685D02*
X130254Y124758D01*
X130401Y124832*
X130622*
X130769Y124758*
X130842Y124685*
X130916Y124538*
Y124244*
X130842Y124097*
X130769Y124023*
X130622Y123950*
X130401*
X130254Y124023*
X130180Y124097*
X129315Y124832D02*
X129903Y124832D01*
X129388Y124317*
X129315Y124170*
X129388Y124023*
X129535Y123950*
X129756*
X129903Y124023*
X139458Y131575D02*
X139458Y131869D01*
Y131722D02*
X138575Y131722D01*
X138722Y131575*
X139212Y119503D02*
X139065Y119576D01*
X138991Y119723*
Y119870*
X139065Y120017*
X139212Y120091*
X139359Y120017*
X139433Y119870*
Y119723*
X139359Y119576*
X139212Y119503*
X138991*
X138771Y119576*
X138624Y119723*
X138550Y119870*
X142053Y118723D02*
X142347Y118723D01*
X142200D02*
X142200Y119605D01*
X142053D02*
X142347Y119605D01*
X143179Y118723D02*
X142591Y118723D01*
X143105Y119238*
X143179Y119385*
X143105Y119532*
X142958Y119605*
X142738*
X142591Y119532*
X144176Y118870D02*
X144102Y118797D01*
X143955Y118723*
X143735*
X143588Y118797*
X143514Y118870*
X143441Y119017*
Y119311*
X143514Y119458*
X143588Y119532*
X143735Y119605*
X143955*
X144102Y119532*
X144176Y119458*
D02*
D17*
X122153Y130428D02*
Y121428D01*
X114253*
Y130428*
X122153*
X127653Y123478D02*
Y130977D01*
X133253*
Y123978*
X132753Y123478*
X127653*
X132131Y124228D02*
G75*
G03X132776I323D01*
G01*
G75*
G03X132131I-322*
G01*
G36*
G75*
G03X132776I323*
G01*
G75*
G03X132131I-322*
G01*
G37*
X136853Y131528D02*
X137453Y130827D01*
X136853Y130128*
Y131528*
G36*
X137453Y130827*
X136853Y130128*
Y131528*
G37*
D02*
D71*
X123107Y130520D02*
Y131536D01*
X125799*
Y130520*
X123107*
Y131720D02*
Y132736D01*
X125799*
Y131720*
X123107*
X123640Y122370D02*
Y123285D01*
X125266*
Y122370*
X123640*
X124717Y121444D02*
Y121825D01*
X125098*
X124717Y121444*
G36*
Y121825*
X125098*
X124717Y121444*
G37*
X125310Y126215D02*
X124396D01*
Y127840*
X125310*
Y126215*
X126190Y121825D02*
Y119031D01*
X124717*
Y121825*
X126190*
X126316Y131266D02*
Y132790D01*
X134190*
Y131266*
X126316*
X127866Y123285D02*
Y122370D01*
X126240*
Y123285*
X127866*
X128561Y119081D02*
X127545D01*
Y121774*
X128561*
Y119081*
X131266Y119685D02*
Y118770D01*
X129640*
Y119685*
X131266*
X131840Y118745D02*
Y119710D01*
X133466*
Y118745*
X131840*
X132793Y131266D02*
Y132790D01*
X133187Y119710D02*
Y118745D01*
X133596Y123240D02*
X134510D01*
Y121615*
X133596*
Y123240*
X134720Y118745D02*
Y119710D01*
X134796Y123240D02*
X135710D01*
Y121615*
X134796*
Y123240*
X135745Y131774D02*
X136761D01*
Y129081*
X135745*
Y131774*
X136066Y119710D02*
Y118745D01*
X134440*
Y119710*
X136066*
X136640Y118770D02*
Y119685D01*
X138266*
Y118770*
X136640*
X137266Y133085D02*
Y132170D01*
X135640*
Y133085*
X137266*
X137840Y132145D02*
Y133110D01*
X139466*
Y132145*
X137840*
X139187Y133110D02*
Y132145D01*
D02*
D78*
X132853Y121328D02*
X129653D01*
Y122728*
X132853*
Y121328*
X140653Y119828D02*
X144853D01*
Y131828*
X140653*
Y131178*
X140253*
Y120478*
X140653*
Y119828*
D02*
D103*
X123953Y130781D02*
X123953Y131319D01*
X124267*
X124357Y131274*
X124401Y131184*
X124357Y131095*
X124267Y131050*
X123953*
X124267D02*
X124401Y130781D01*
X124929D02*
X124570Y130781D01*
X124884Y131095*
X124929Y131184*
X124884Y131274*
X124794Y131319*
X124660*
X124570Y131274*
X123953Y131981D02*
X123953Y132519D01*
X124267*
X124357Y132474*
X124401Y132384*
X124357Y132295*
X124267Y132250*
X123953*
X124267D02*
X124401Y131981D01*
X124660D02*
X124839Y131981D01*
X124750D02*
X124750Y132519D01*
X124660Y132429*
X125188Y121059D02*
X125188Y120880D01*
Y120969D02*
X125725Y120969D01*
Y121059D02*
X125725Y120880D01*
X125277Y120283D02*
X125232Y120328D01*
X125188Y120418*
Y120552*
X125232Y120642*
X125277Y120687*
X125367Y120731*
X125546*
X125636Y120687*
X125681Y120642*
X125725Y120552*
Y120418*
X125681Y120328*
X125636Y120283*
X125188Y120024D02*
X125188Y119845D01*
Y119935D02*
X125725Y119935D01*
X125636Y120024*
X128210Y120376D02*
X128255Y120331D01*
X128300Y120241*
Y120107*
X128255Y120017*
X128210Y119972*
X128120Y119928*
X127941*
X127851Y119972*
X127807Y120017*
X127762Y120107*
Y120241*
X127807Y120331*
X127851Y120376*
X128300Y120769D02*
X127762Y120769D01*
X128120Y120545*
Y120903*
X129860Y121762D02*
X130308Y122300D01*
X129860D02*
X130308Y121762D01*
X130701D02*
X130701Y122300D01*
X130477D02*
X130925Y122300D01*
X131094Y121762D02*
X131318Y122300D01*
X131542Y121762*
X131184Y121986D02*
X131453Y121986D01*
X131711Y122300D02*
X131711Y121762D01*
X132160*
X132418D02*
X132597Y121762D01*
X132508D02*
X132508Y122300D01*
X132418Y122210*
X136500Y129928D02*
X135962Y129928D01*
Y130241*
X136007Y130331*
X136096Y130376*
X136186Y130331*
X136231Y130241*
Y129928*
Y130241D02*
X136500Y130376D01*
Y130545D02*
X135962Y130903D01*
Y130545*
D02*
D345*
X132830Y119942D02*
X133183Y119942D01*
X133006D02*
X133006Y121001D01*
X132830Y120825*
X135959Y119942D02*
X135253Y119942D01*
X135871Y120560*
X135959Y120736*
X135871Y120913*
X135694Y121001*
X135430*
X135253Y120913*
X135333Y131328D02*
X134450Y131328D01*
X134891D02*
X134891Y131548D01*
X134450Y132063*
X134891Y131548D02*
X135333Y132063D01*
Y132928D02*
X135333Y132340D01*
X134818Y132855*
X134671Y132928*
X134524Y132855*
X134450Y132708*
Y132487*
X134524Y132340*
X0Y0D02*
M02*
