G04 GENERATED BY PULSONIX 7.0 GERBER.DLL 4573*
%INI2C_TO_USB_BRIDGE_V1_0_2*%
%LNGERBER_DRILL*%
%FSLAX33Y33*%
%IPPOS*%
%LPD*%
%OFA0B0*%
%MOMM*%
%ADD146C,0.250*%
%ADD345C,0.150*%
X0Y0D02*
D02*
D146*
X121753Y121128D03*
Y130727D03*
X122553Y121128D03*
Y130727D03*
X123453Y127528D03*
X123753Y124728D03*
X124553Y123928D03*
X124853Y128227D03*
X125453Y119428D03*
Y120428D03*
Y121328D03*
X125653Y122828D03*
X127053Y120428D03*
X128053Y128928D03*
X128153Y124128D03*
Y125528D03*
X128853Y127928D03*
X128953Y125528D03*
Y130128D03*
X129053Y119428D03*
Y121228D03*
X129653Y127928D03*
X130853Y125628D03*
Y127228D03*
X130888Y132028D03*
X131253Y123428D03*
X131453Y128928D03*
Y130128D03*
X132253Y126328D03*
X132753Y129928D03*
X133428Y132028D03*
X133953Y120128D03*
X134053Y121228D03*
X135253D03*
X138153Y120828D03*
Y130827D03*
X139553Y122828D03*
Y124828D03*
Y126828D03*
Y128827D03*
X142653Y132628D03*
D02*
D345*
X118053Y120698D02*
X118421Y121580D01*
X118788Y120698*
X118200Y121066D02*
X118641Y121066D01*
X118053Y131598D02*
X118421Y132480D01*
X118788Y131598*
X118200Y131966D02*
X118641Y131966D01*
X122468Y121789D02*
X122615Y121716D01*
X122688Y121569*
X122615Y121422*
X122468Y121348*
X121953*
Y122230*
X122468*
X122615Y122157*
X122688Y122010*
X122615Y121863*
X122468Y121789*
X121953*
X122468Y131389D02*
X122615Y131316D01*
X122688Y131169*
X122615Y131022*
X122468Y130948*
X121953*
Y131830*
X122468*
X122615Y131757*
X122688Y131610*
X122615Y131463*
X122468Y131389*
X121953*
X123268Y121789D02*
X123415Y121716D01*
X123488Y121569*
X123415Y121422*
X123268Y121348*
X122753*
Y122230*
X123268*
X123415Y122157*
X123488Y122010*
X123415Y121863*
X123268Y121789*
X122753*
X123268Y131389D02*
X123415Y131316D01*
X123488Y131169*
X123415Y131022*
X123268Y130948*
X122753*
Y131830*
X123268*
X123415Y131757*
X123488Y131610*
X123415Y131463*
X123268Y131389*
X122753*
X124168Y128189D02*
X124315Y128116D01*
X124388Y127969*
X124315Y127822*
X124168Y127748*
X123653*
Y128630*
X124168*
X124315Y128557*
X124388Y128410*
X124315Y128263*
X124168Y128189*
X123653*
X124468Y125389D02*
X124615Y125316D01*
X124688Y125169*
X124615Y125022*
X124468Y124948*
X123953*
Y125830*
X124468*
X124615Y125757*
X124688Y125610*
X124615Y125463*
X124468Y125389*
X123953*
X125268Y124589D02*
X125415Y124516D01*
X125488Y124369*
X125415Y124222*
X125268Y124148*
X124753*
Y125030*
X125268*
X125415Y124957*
X125488Y124810*
X125415Y124663*
X125268Y124589*
X124753*
X125568Y128889D02*
X125715Y128816D01*
X125788Y128669*
X125715Y128522*
X125568Y128448*
X125053*
Y129330*
X125568*
X125715Y129257*
X125788Y129110*
X125715Y128963*
X125568Y128889*
X125053*
X126168Y120089D02*
X126315Y120016D01*
X126388Y119869*
X126315Y119722*
X126168Y119648*
X125653*
Y120530*
X126168*
X126315Y120457*
X126388Y120310*
X126315Y120163*
X126168Y120089*
X125653*
X126168Y121089D02*
X126315Y121016D01*
X126388Y120869*
X126315Y120722*
X126168Y120648*
X125653*
Y121530*
X126168*
X126315Y121457*
X126388Y121310*
X126315Y121163*
X126168Y121089*
X125653*
X126168Y121989D02*
X126315Y121916D01*
X126388Y121769*
X126315Y121622*
X126168Y121548*
X125653*
Y122430*
X126168*
X126315Y122357*
X126388Y122210*
X126315Y122063*
X126168Y121989*
X125653*
X126368Y123489D02*
X126515Y123416D01*
X126588Y123269*
X126515Y123122*
X126368Y123048*
X125853*
Y123930*
X126368*
X126515Y123857*
X126588Y123710*
X126515Y123563*
X126368Y123489*
X125853*
X127768Y121089D02*
X127915Y121016D01*
X127988Y120869*
X127915Y120722*
X127768Y120648*
X127253*
Y121530*
X127768*
X127915Y121457*
X127988Y121310*
X127915Y121163*
X127768Y121089*
X127253*
X128768Y129589D02*
X128915Y129516D01*
X128988Y129369*
X128915Y129222*
X128768Y129148*
X128253*
Y130030*
X128768*
X128915Y129957*
X128988Y129810*
X128915Y129663*
X128768Y129589*
X128253*
X128868Y124789D02*
X129015Y124716D01*
X129088Y124569*
X129015Y124422*
X128868Y124348*
X128353*
Y125230*
X128868*
X129015Y125157*
X129088Y125010*
X129015Y124863*
X128868Y124789*
X128353*
X128868Y126189D02*
X129015Y126116D01*
X129088Y125969*
X129015Y125822*
X128868Y125748*
X128353*
Y126630*
X128868*
X129015Y126557*
X129088Y126410*
X129015Y126263*
X128868Y126189*
X128353*
X129568Y128589D02*
X129715Y128516D01*
X129788Y128369*
X129715Y128222*
X129568Y128148*
X129053*
Y129030*
X129568*
X129715Y128957*
X129788Y128810*
X129715Y128663*
X129568Y128589*
X129053*
X129668Y126189D02*
X129815Y126116D01*
X129888Y125969*
X129815Y125822*
X129668Y125748*
X129153*
Y126630*
X129668*
X129815Y126557*
X129888Y126410*
X129815Y126263*
X129668Y126189*
X129153*
X129668Y130789D02*
X129815Y130716D01*
X129888Y130569*
X129815Y130422*
X129668Y130348*
X129153*
Y131230*
X129668*
X129815Y131157*
X129888Y131010*
X129815Y130863*
X129668Y130789*
X129153*
X129768Y120089D02*
X129915Y120016D01*
X129988Y119869*
X129915Y119722*
X129768Y119648*
X129253*
Y120530*
X129768*
X129915Y120457*
X129988Y120310*
X129915Y120163*
X129768Y120089*
X129253*
X129768Y121889D02*
X129915Y121816D01*
X129988Y121669*
X129915Y121522*
X129768Y121448*
X129253*
Y122330*
X129768*
X129915Y122257*
X129988Y122110*
X129915Y121963*
X129768Y121889*
X129253*
X130368Y128589D02*
X130515Y128516D01*
X130588Y128369*
X130515Y128222*
X130368Y128148*
X129853*
Y129030*
X130368*
X130515Y128957*
X130588Y128810*
X130515Y128663*
X130368Y128589*
X129853*
X131568Y126289D02*
X131715Y126216D01*
X131788Y126069*
X131715Y125922*
X131568Y125848*
X131053*
Y126730*
X131568*
X131715Y126657*
X131788Y126510*
X131715Y126363*
X131568Y126289*
X131053*
X131568Y127889D02*
X131715Y127816D01*
X131788Y127669*
X131715Y127522*
X131568Y127448*
X131053*
Y128330*
X131568*
X131715Y128257*
X131788Y128110*
X131715Y127963*
X131568Y127889*
X131053*
X131603Y132689D02*
X131750Y132616D01*
X131823Y132469*
X131750Y132322*
X131603Y132248*
X131088*
Y133130*
X131603*
X131750Y133057*
X131823Y132910*
X131750Y132763*
X131603Y132689*
X131088*
X131968Y124089D02*
X132115Y124016D01*
X132188Y123869*
X132115Y123722*
X131968Y123648*
X131453*
Y124530*
X131968*
X132115Y124457*
X132188Y124310*
X132115Y124163*
X131968Y124089*
X131453*
X132168Y129589D02*
X132315Y129516D01*
X132388Y129369*
X132315Y129222*
X132168Y129148*
X131653*
Y130030*
X132168*
X132315Y129957*
X132388Y129810*
X132315Y129663*
X132168Y129589*
X131653*
X132168Y130789D02*
X132315Y130716D01*
X132388Y130569*
X132315Y130422*
X132168Y130348*
X131653*
Y131230*
X132168*
X132315Y131157*
X132388Y131010*
X132315Y130863*
X132168Y130789*
X131653*
X132968Y126989D02*
X133115Y126916D01*
X133188Y126769*
X133115Y126622*
X132968Y126548*
X132453*
Y127430*
X132968*
X133115Y127357*
X133188Y127210*
X133115Y127063*
X132968Y126989*
X132453*
X133468Y130589D02*
X133615Y130516D01*
X133688Y130369*
X133615Y130222*
X133468Y130148*
X132953*
Y131030*
X133468*
X133615Y130957*
X133688Y130810*
X133615Y130663*
X133468Y130589*
X132953*
X134143Y132689D02*
X134290Y132616D01*
X134363Y132469*
X134290Y132322*
X134143Y132248*
X133628*
Y133130*
X134143*
X134290Y133057*
X134363Y132910*
X134290Y132763*
X134143Y132689*
X133628*
X134668Y120789D02*
X134815Y120716D01*
X134888Y120569*
X134815Y120422*
X134668Y120348*
X134153*
Y121230*
X134668*
X134815Y121157*
X134888Y121010*
X134815Y120863*
X134668Y120789*
X134153*
X134768Y121889D02*
X134915Y121816D01*
X134988Y121669*
X134915Y121522*
X134768Y121448*
X134253*
Y122330*
X134768*
X134915Y122257*
X134988Y122110*
X134915Y121963*
X134768Y121889*
X134253*
X135968D02*
X136115Y121816D01*
X136188Y121669*
X136115Y121522*
X135968Y121448*
X135453*
Y122330*
X135968*
X136115Y122257*
X136188Y122110*
X136115Y121963*
X135968Y121889*
X135453*
X138868Y121489D02*
X139015Y121416D01*
X139088Y121269*
X139015Y121122*
X138868Y121048*
X138353*
Y121930*
X138868*
X139015Y121857*
X139088Y121710*
X139015Y121563*
X138868Y121489*
X138353*
X138868Y131489D02*
X139015Y131416D01*
X139088Y131269*
X139015Y131122*
X138868Y131048*
X138353*
Y131930*
X138868*
X139015Y131857*
X139088Y131710*
X139015Y131563*
X138868Y131489*
X138353*
X140268Y123489D02*
X140415Y123416D01*
X140488Y123269*
X140415Y123122*
X140268Y123048*
X139753*
Y123930*
X140268*
X140415Y123857*
X140488Y123710*
X140415Y123563*
X140268Y123489*
X139753*
X140268Y125489D02*
X140415Y125416D01*
X140488Y125269*
X140415Y125122*
X140268Y125048*
X139753*
Y125930*
X140268*
X140415Y125857*
X140488Y125710*
X140415Y125563*
X140268Y125489*
X139753*
X140268Y127489D02*
X140415Y127416D01*
X140488Y127269*
X140415Y127122*
X140268Y127048*
X139753*
Y127930*
X140268*
X140415Y127857*
X140488Y127710*
X140415Y127563*
X140268Y127489*
X139753*
X140268Y129489D02*
X140415Y129416D01*
X140488Y129269*
X140415Y129122*
X140268Y129048*
X139753*
Y129930*
X140268*
X140415Y129857*
X140488Y129710*
X140415Y129563*
X140268Y129489*
X139753*
X143368Y133289D02*
X143515Y133216D01*
X143588Y133069*
X143515Y132922*
X143368Y132848*
X142853*
Y133730*
X143368*
X143515Y133657*
X143588Y133510*
X143515Y133363*
X143368Y133289*
X142853*
X0Y0D02*
M02*
