M48
INCH
T01C00.010
T02C00.039
%
M70
T01
X04793Y04769
X04793Y05147
X04825Y04769
X04825Y05147
X04860Y05021
X04872Y04911
X04904Y04879
X04915Y05048
X04939Y04702
X04939Y04741
X04939Y04777
X04947Y04836
X05002Y04741
X05041Y05076
X05045Y04887
X05045Y04942
X05073Y05037
X05077Y04942
X05077Y05123
X05081Y04702
X05081Y04773
X05104Y05037
X05152Y04946
X05152Y05009
X05153Y05198
X05167Y04859
X05175Y05076
X05175Y05123
X05207Y04974
X05227Y05115
X05253Y05198
X05274Y04729
X05278Y04773
X05325Y04773
X05439Y04757
X05439Y05151
X05494Y04836
X05494Y04914
X05494Y04993
X05494Y05072
X05616Y05222
T02
G00X04677Y04743
M15
G01X04618Y04743
M17
G00X04677Y05172
M15
G01X04618Y05172
M17
M30
