G04 Layer: BottomPasteMaskLayer*
G04 EasyEDA Pro v2.2.36.5, 2025-02-22 11:45:42*
G04 Gerber Generator version 0.3*
G04 Scale: 100 percent, Rotated: No, Reflected: No*
G04 Dimensions in millimeters*
G04 Leading zeros omitted, absolute positions, 4 integers and 5 decimals*
%FSLAX45Y45*%
%MOMM*%
%ADD10R,0.3X1.25001*%
%ADD11R,1.8X2.2*%
%ADD12R,1.5X3.39999*%
%ADD13R,1.0X3.49999*%
%ADD14R,0.9X0.8*%
%ADD15R,0.8064X0.9*%
%ADD16R,0.8X0.9*%
G75*


G04 PolygonModel Start*
G36*
G01X5783702Y3434801D02*
G01X5703702Y3434801D01*
G01X5698701Y3439803D01*
G01X5698701Y3462599D01*
G01X5735701Y3462599D01*
G01X5735701Y3495599D01*
G01X5698701Y3495599D01*
G01X5698701Y3519802D01*
G01X5703702Y3524801D01*
G01X5783702Y3524801D01*
G01X5788701Y3519802D01*
G01X5788701Y3439803D01*
G01X5783702Y3434801D01*
G37*
G36*
G01X5544698Y3524799D02*
G01X5624698Y3524799D01*
G01X5629699Y3519797D01*
G01X5629699Y3497001D01*
G01X5592699Y3497001D01*
G01X5592699Y3464001D01*
G01X5629699Y3464001D01*
G01X5629699Y3439798D01*
G01X5624698Y3434799D01*
G01X5544698Y3434799D01*
G01X5539699Y3439798D01*
G01X5539699Y3519797D01*
G01X5544698Y3524799D01*
G37*
G36*
G01X5251999Y4018402D02*
G01X5251999Y3938402D01*
G01X5246997Y3933401D01*
G01X5224201Y3933401D01*
G01X5224201Y3970401D01*
G01X5191201Y3970401D01*
G01X5191201Y3933401D01*
G01X5166998Y3933401D01*
G01X5161999Y3938402D01*
G01X5161999Y4018402D01*
G01X5166998Y4023401D01*
G01X5246997Y4023401D01*
G01X5251999Y4018402D01*
G37*
G36*
G01X5162001Y3779398D02*
G01X5162001Y3859398D01*
G01X5167003Y3864399D01*
G01X5189799Y3864399D01*
G01X5189799Y3827399D01*
G01X5222799Y3827399D01*
G01X5222799Y3864399D01*
G01X5247002Y3864399D01*
G01X5252001Y3859398D01*
G01X5252001Y3779398D01*
G01X5247002Y3774399D01*
G01X5167003Y3774399D01*
G01X5162001Y3779398D01*
G37*
G36*
G01X5404399Y4018402D02*
G01X5404399Y3938402D01*
G01X5399397Y3933401D01*
G01X5376601Y3933401D01*
G01X5376601Y3970401D01*
G01X5343601Y3970401D01*
G01X5343601Y3933401D01*
G01X5319398Y3933401D01*
G01X5314399Y3938402D01*
G01X5314399Y4018402D01*
G01X5319398Y4023401D01*
G01X5399397Y4023401D01*
G01X5404399Y4018402D01*
G37*
G36*
G01X5314401Y3779398D02*
G01X5314401Y3859398D01*
G01X5319403Y3864399D01*
G01X5342199Y3864399D01*
G01X5342199Y3827399D01*
G01X5375199Y3827399D01*
G01X5375199Y3864399D01*
G01X5399402Y3864399D01*
G01X5404401Y3859398D01*
G01X5404401Y3779398D01*
G01X5399402Y3774399D01*
G01X5319403Y3774399D01*
G01X5314401Y3779398D01*
G37*
G36*
G01X4541398Y3537499D02*
G01X4621398Y3537499D01*
G01X4626399Y3532497D01*
G01X4626399Y3509701D01*
G01X4589399Y3509701D01*
G01X4589399Y3476701D01*
G01X4626399Y3476701D01*
G01X4626399Y3452498D01*
G01X4621398Y3447499D01*
G01X4541398Y3447499D01*
G01X4536399Y3452498D01*
G01X4536399Y3532497D01*
G01X4541398Y3537499D01*
G37*
G36*
G01X4780402Y3447501D02*
G01X4700402Y3447501D01*
G01X4695401Y3452503D01*
G01X4695401Y3475299D01*
G01X4732401Y3475299D01*
G01X4732401Y3508299D01*
G01X4695401Y3508299D01*
G01X4695401Y3532502D01*
G01X4700402Y3537501D01*
G01X4780402Y3537501D01*
G01X4785401Y3532502D01*
G01X4785401Y3452503D01*
G01X4780402Y3447501D01*
G37*
G36*
G01X5156074Y3685877D02*
G01X5156844Y3685920D01*
G01X5157616Y3685920D01*
G01X5158386Y3685877D01*
G01X5159153Y3685793D01*
G01X5159915Y3685666D01*
G01X5160667Y3685496D01*
G01X5161408Y3685287D01*
G01X5162140Y3685036D01*
G01X5162854Y3684746D01*
G01X5163552Y3684416D01*
G01X5164230Y3684050D01*
G01X5164888Y3683644D01*
G01X5165521Y3683204D01*
G01X5166130Y3682732D01*
G01X5166712Y3682224D01*
G01X5167266Y3681686D01*
G01X5167789Y3681119D01*
G01X5168279Y3680525D01*
G01X5168736Y3679902D01*
G01X5169158Y3679255D01*
G01X5169544Y3678587D01*
G01X5169892Y3677898D01*
G01X5170202Y3677192D01*
G01X5170471Y3676471D01*
G01X5170702Y3675734D01*
G01X5170893Y3674985D01*
G01X5171040Y3674228D01*
G01X5171147Y3673464D01*
G01X5171210Y3672696D01*
G01X5171230Y3671924D01*
G01X5171230Y3609928D01*
G01X5171210Y3609156D01*
G01X5171147Y3608389D01*
G01X5171040Y3607624D01*
G01X5170893Y3606867D01*
G01X5170702Y3606118D01*
G01X5170471Y3605381D01*
G01X5170202Y3604660D01*
G01X5169892Y3603954D01*
G01X5169544Y3603266D01*
G01X5169158Y3602598D01*
G01X5168736Y3601950D01*
G01X5168279Y3601328D01*
G01X5167789Y3600733D01*
G01X5167266Y3600167D01*
G01X5166712Y3599628D01*
G01X5166130Y3599120D01*
G01X5165521Y3598648D01*
G01X5164888Y3598208D01*
G01X5164230Y3597802D01*
G01X5163552Y3597436D01*
G01X5162854Y3597106D01*
G01X5162140Y3596817D01*
G01X5161408Y3596565D01*
G01X5160667Y3596357D01*
G01X5159915Y3596187D01*
G01X5159153Y3596060D01*
G01X5158386Y3595976D01*
G01X5157616Y3595933D01*
G01X5156844Y3595933D01*
G01X5156074Y3595976D01*
G01X5155307Y3596060D01*
G01X5154545Y3596187D01*
G01X5153793Y3596357D01*
G01X5153052Y3596565D01*
G01X5152320Y3596817D01*
G01X5151606Y3597106D01*
G01X5150908Y3597436D01*
G01X5150230Y3597802D01*
G01X5149572Y3598208D01*
G01X5148939Y3598648D01*
G01X5148330Y3599120D01*
G01X5147748Y3599628D01*
G01X5147194Y3600167D01*
G01X5146671Y3600733D01*
G01X5146181Y3601328D01*
G01X5145724Y3601950D01*
G01X5145302Y3602598D01*
G01X5144916Y3603266D01*
G01X5144568Y3603954D01*
G01X5144258Y3604660D01*
G01X5143989Y3605381D01*
G01X5143758Y3606118D01*
G01X5143567Y3606867D01*
G01X5143420Y3607624D01*
G01X5143313Y3608389D01*
G01X5143250Y3609156D01*
G01X5143229Y3609928D01*
G01X5143229Y3671924D01*
G01X5143250Y3672696D01*
G01X5143313Y3673464D01*
G01X5143420Y3674228D01*
G01X5143567Y3674985D01*
G01X5143758Y3675734D01*
G01X5143989Y3676471D01*
G01X5144258Y3677192D01*
G01X5144568Y3677898D01*
G01X5144916Y3678587D01*
G01X5145302Y3679255D01*
G01X5145724Y3679902D01*
G01X5146181Y3680525D01*
G01X5146671Y3681119D01*
G01X5147194Y3681686D01*
G01X5147748Y3682224D01*
G01X5148330Y3682732D01*
G01X5148939Y3683204D01*
G01X5149572Y3683644D01*
G01X5150230Y3684050D01*
G01X5150908Y3684416D01*
G01X5151606Y3684746D01*
G01X5152320Y3685036D01*
G01X5153052Y3685287D01*
G01X5153793Y3685496D01*
G01X5154545Y3685666D01*
G01X5155307Y3685793D01*
G01X5156074Y3685877D01*
G37*
G36*
G01X5256150Y3685877D02*
G01X5256920Y3685920D01*
G01X5257692Y3685920D01*
G01X5258462Y3685877D01*
G01X5259229Y3685793D01*
G01X5259991Y3685666D01*
G01X5260743Y3685496D01*
G01X5261484Y3685287D01*
G01X5262216Y3685036D01*
G01X5262930Y3684746D01*
G01X5263628Y3684416D01*
G01X5264306Y3684050D01*
G01X5264964Y3683644D01*
G01X5265597Y3683204D01*
G01X5266206Y3682732D01*
G01X5266788Y3682224D01*
G01X5267342Y3681686D01*
G01X5267865Y3681119D01*
G01X5268355Y3680525D01*
G01X5268812Y3679902D01*
G01X5269234Y3679255D01*
G01X5269620Y3678587D01*
G01X5269968Y3677898D01*
G01X5270278Y3677192D01*
G01X5270547Y3676471D01*
G01X5270778Y3675734D01*
G01X5270969Y3674985D01*
G01X5271116Y3674228D01*
G01X5271223Y3673464D01*
G01X5271286Y3672696D01*
G01X5271306Y3671924D01*
G01X5271306Y3609928D01*
G01X5271286Y3609156D01*
G01X5271223Y3608389D01*
G01X5271116Y3607624D01*
G01X5270969Y3606867D01*
G01X5270778Y3606118D01*
G01X5270547Y3605381D01*
G01X5270278Y3604660D01*
G01X5269968Y3603954D01*
G01X5269620Y3603266D01*
G01X5269234Y3602598D01*
G01X5268812Y3601950D01*
G01X5268355Y3601328D01*
G01X5267865Y3600733D01*
G01X5267342Y3600167D01*
G01X5266788Y3599628D01*
G01X5266206Y3599120D01*
G01X5265597Y3598648D01*
G01X5264964Y3598208D01*
G01X5264306Y3597802D01*
G01X5263628Y3597436D01*
G01X5262930Y3597106D01*
G01X5262216Y3596817D01*
G01X5261484Y3596565D01*
G01X5260743Y3596357D01*
G01X5259991Y3596187D01*
G01X5259229Y3596060D01*
G01X5258462Y3595976D01*
G01X5257692Y3595933D01*
G01X5256920Y3595933D01*
G01X5256150Y3595976D01*
G01X5255383Y3596060D01*
G01X5254621Y3596187D01*
G01X5253869Y3596357D01*
G01X5253128Y3596565D01*
G01X5252396Y3596817D01*
G01X5251682Y3597106D01*
G01X5250984Y3597436D01*
G01X5250306Y3597802D01*
G01X5249648Y3598208D01*
G01X5249015Y3598648D01*
G01X5248406Y3599120D01*
G01X5247824Y3599628D01*
G01X5247270Y3600167D01*
G01X5246747Y3600733D01*
G01X5246257Y3601328D01*
G01X5245800Y3601950D01*
G01X5245378Y3602598D01*
G01X5244992Y3603266D01*
G01X5244644Y3603954D01*
G01X5244334Y3604660D01*
G01X5244065Y3605381D01*
G01X5243834Y3606118D01*
G01X5243643Y3606867D01*
G01X5243496Y3607624D01*
G01X5243389Y3608389D01*
G01X5243326Y3609156D01*
G01X5243305Y3609928D01*
G01X5243305Y3671924D01*
G01X5243326Y3672696D01*
G01X5243389Y3673464D01*
G01X5243496Y3674228D01*
G01X5243643Y3674985D01*
G01X5243834Y3675734D01*
G01X5244065Y3676471D01*
G01X5244334Y3677192D01*
G01X5244644Y3677898D01*
G01X5244992Y3678587D01*
G01X5245378Y3679255D01*
G01X5245800Y3679902D01*
G01X5246257Y3680525D01*
G01X5246747Y3681119D01*
G01X5247270Y3681686D01*
G01X5247824Y3682224D01*
G01X5248406Y3682732D01*
G01X5249015Y3683204D01*
G01X5249648Y3683644D01*
G01X5250306Y3684050D01*
G01X5250984Y3684416D01*
G01X5251682Y3684746D01*
G01X5252396Y3685036D01*
G01X5253128Y3685287D01*
G01X5253869Y3685496D01*
G01X5254621Y3685666D01*
G01X5255383Y3685793D01*
G01X5256150Y3685877D01*
G37*
G36*
G01X5057540Y3685920D02*
G01X5058310Y3685877D01*
G01X5059077Y3685793D01*
G01X5059839Y3685666D01*
G01X5060591Y3685496D01*
G01X5061332Y3685287D01*
G01X5062064Y3685036D01*
G01X5062778Y3684746D01*
G01X5063476Y3684416D01*
G01X5064154Y3684050D01*
G01X5064812Y3683644D01*
G01X5065445Y3683204D01*
G01X5066054Y3682732D01*
G01X5066636Y3682224D01*
G01X5067190Y3681686D01*
G01X5067713Y3681119D01*
G01X5068203Y3680525D01*
G01X5068660Y3679902D01*
G01X5069082Y3679255D01*
G01X5069468Y3678587D01*
G01X5069816Y3677898D01*
G01X5070126Y3677192D01*
G01X5070395Y3676471D01*
G01X5070626Y3675734D01*
G01X5070817Y3674985D01*
G01X5070964Y3674228D01*
G01X5071071Y3673464D01*
G01X5071134Y3672696D01*
G01X5071154Y3671924D01*
G01X5071154Y3609928D01*
G01X5071134Y3609156D01*
G01X5071071Y3608389D01*
G01X5070964Y3607624D01*
G01X5070817Y3606867D01*
G01X5070626Y3606118D01*
G01X5070395Y3605381D01*
G01X5070126Y3604660D01*
G01X5069816Y3603954D01*
G01X5069468Y3603266D01*
G01X5069082Y3602598D01*
G01X5068660Y3601950D01*
G01X5068203Y3601328D01*
G01X5067713Y3600733D01*
G01X5067190Y3600167D01*
G01X5066636Y3599628D01*
G01X5066054Y3599120D01*
G01X5065445Y3598648D01*
G01X5064812Y3598208D01*
G01X5064154Y3597802D01*
G01X5063476Y3597436D01*
G01X5062778Y3597106D01*
G01X5062064Y3596817D01*
G01X5061332Y3596565D01*
G01X5060591Y3596357D01*
G01X5059839Y3596187D01*
G01X5059077Y3596060D01*
G01X5058310Y3595976D01*
G01X5057540Y3595933D01*
G01X5056768Y3595933D01*
G01X5055998Y3595976D01*
G01X5055231Y3596060D01*
G01X5054469Y3596187D01*
G01X5053717Y3596357D01*
G01X5052976Y3596565D01*
G01X5052244Y3596817D01*
G01X5051530Y3597106D01*
G01X5050832Y3597436D01*
G01X5050154Y3597802D01*
G01X5049496Y3598208D01*
G01X5048863Y3598648D01*
G01X5048254Y3599120D01*
G01X5047672Y3599628D01*
G01X5047118Y3600167D01*
G01X5046595Y3600733D01*
G01X5046105Y3601328D01*
G01X5045648Y3601950D01*
G01X5045226Y3602598D01*
G01X5044840Y3603266D01*
G01X5044492Y3603954D01*
G01X5044182Y3604660D01*
G01X5043913Y3605381D01*
G01X5043682Y3606118D01*
G01X5043491Y3606867D01*
G01X5043344Y3607624D01*
G01X5043237Y3608389D01*
G01X5043174Y3609156D01*
G01X5043153Y3609928D01*
G01X5043153Y3671924D01*
G01X5043174Y3672696D01*
G01X5043237Y3673464D01*
G01X5043344Y3674228D01*
G01X5043491Y3674985D01*
G01X5043682Y3675734D01*
G01X5043913Y3676471D01*
G01X5044182Y3677192D01*
G01X5044492Y3677898D01*
G01X5044840Y3678587D01*
G01X5045226Y3679255D01*
G01X5045648Y3679902D01*
G01X5046105Y3680525D01*
G01X5046595Y3681119D01*
G01X5047118Y3681686D01*
G01X5047672Y3682224D01*
G01X5048254Y3682732D01*
G01X5048863Y3683204D01*
G01X5049496Y3683644D01*
G01X5050154Y3684050D01*
G01X5050832Y3684416D01*
G01X5051530Y3684746D01*
G01X5052244Y3685036D01*
G01X5052976Y3685287D01*
G01X5053717Y3685496D01*
G01X5054469Y3685666D01*
G01X5055231Y3685793D01*
G01X5055998Y3685877D01*
G01X5056768Y3685920D01*
G01X5057540Y3685920D01*
G37*
G36*
G01X5207654Y3685920D02*
G01X5208424Y3685877D01*
G01X5209191Y3685793D01*
G01X5209953Y3685666D01*
G01X5210705Y3685496D01*
G01X5211446Y3685287D01*
G01X5212178Y3685036D01*
G01X5212892Y3684746D01*
G01X5213590Y3684416D01*
G01X5214268Y3684050D01*
G01X5214926Y3683644D01*
G01X5215559Y3683204D01*
G01X5216168Y3682732D01*
G01X5216750Y3682224D01*
G01X5217304Y3681686D01*
G01X5217827Y3681119D01*
G01X5218317Y3680525D01*
G01X5218774Y3679902D01*
G01X5219196Y3679255D01*
G01X5219582Y3678587D01*
G01X5219930Y3677898D01*
G01X5220240Y3677192D01*
G01X5220509Y3676471D01*
G01X5220740Y3675734D01*
G01X5220931Y3674985D01*
G01X5221078Y3674228D01*
G01X5221185Y3673464D01*
G01X5221248Y3672696D01*
G01X5221268Y3671924D01*
G01X5221268Y3609928D01*
G01X5221248Y3609156D01*
G01X5221185Y3608389D01*
G01X5221078Y3607624D01*
G01X5220931Y3606867D01*
G01X5220740Y3606118D01*
G01X5220509Y3605381D01*
G01X5220240Y3604660D01*
G01X5219930Y3603954D01*
G01X5219582Y3603266D01*
G01X5219196Y3602598D01*
G01X5218774Y3601950D01*
G01X5218317Y3601328D01*
G01X5217827Y3600733D01*
G01X5217304Y3600167D01*
G01X5216750Y3599628D01*
G01X5216168Y3599120D01*
G01X5215559Y3598648D01*
G01X5214926Y3598208D01*
G01X5214268Y3597802D01*
G01X5213590Y3597436D01*
G01X5212892Y3597106D01*
G01X5212178Y3596817D01*
G01X5211446Y3596565D01*
G01X5210705Y3596357D01*
G01X5209953Y3596187D01*
G01X5209191Y3596060D01*
G01X5208424Y3595976D01*
G01X5207654Y3595933D01*
G01X5206882Y3595933D01*
G01X5206112Y3595976D01*
G01X5205345Y3596060D01*
G01X5204583Y3596187D01*
G01X5203831Y3596357D01*
G01X5203090Y3596565D01*
G01X5202358Y3596817D01*
G01X5201644Y3597106D01*
G01X5200946Y3597436D01*
G01X5200268Y3597802D01*
G01X5199610Y3598208D01*
G01X5198977Y3598648D01*
G01X5198368Y3599120D01*
G01X5197786Y3599628D01*
G01X5197232Y3600167D01*
G01X5196709Y3600733D01*
G01X5196219Y3601328D01*
G01X5195762Y3601950D01*
G01X5195340Y3602598D01*
G01X5194954Y3603266D01*
G01X5194606Y3603954D01*
G01X5194296Y3604660D01*
G01X5194027Y3605381D01*
G01X5193796Y3606118D01*
G01X5193605Y3606867D01*
G01X5193458Y3607624D01*
G01X5193351Y3608389D01*
G01X5193288Y3609156D01*
G01X5193267Y3609928D01*
G01X5193267Y3671924D01*
G01X5193288Y3672696D01*
G01X5193351Y3673464D01*
G01X5193458Y3674228D01*
G01X5193605Y3674985D01*
G01X5193796Y3675734D01*
G01X5194027Y3676471D01*
G01X5194296Y3677192D01*
G01X5194606Y3677898D01*
G01X5194954Y3678587D01*
G01X5195340Y3679255D01*
G01X5195762Y3679902D01*
G01X5196219Y3680525D01*
G01X5196709Y3681119D01*
G01X5197232Y3681686D01*
G01X5197786Y3682224D01*
G01X5198368Y3682732D01*
G01X5198977Y3683204D01*
G01X5199610Y3683644D01*
G01X5200268Y3684050D01*
G01X5200946Y3684416D01*
G01X5201644Y3684746D01*
G01X5202358Y3685036D01*
G01X5203090Y3685287D01*
G01X5203831Y3685496D01*
G01X5204583Y3685666D01*
G01X5205345Y3685793D01*
G01X5206112Y3685877D01*
G01X5206882Y3685920D01*
G01X5207654Y3685920D01*
G37*
G36*
G01X5307730Y3685920D02*
G01X5308500Y3685877D01*
G01X5309267Y3685793D01*
G01X5310029Y3685666D01*
G01X5310781Y3685496D01*
G01X5311522Y3685287D01*
G01X5312254Y3685036D01*
G01X5312968Y3684746D01*
G01X5313666Y3684416D01*
G01X5314344Y3684050D01*
G01X5315002Y3683644D01*
G01X5315635Y3683204D01*
G01X5316244Y3682732D01*
G01X5316826Y3682224D01*
G01X5317380Y3681686D01*
G01X5317903Y3681119D01*
G01X5318393Y3680525D01*
G01X5318850Y3679902D01*
G01X5319272Y3679255D01*
G01X5319658Y3678587D01*
G01X5320006Y3677898D01*
G01X5320316Y3677192D01*
G01X5320585Y3676471D01*
G01X5320816Y3675734D01*
G01X5321007Y3674985D01*
G01X5321154Y3674228D01*
G01X5321261Y3673464D01*
G01X5321324Y3672696D01*
G01X5321344Y3671924D01*
G01X5321344Y3609928D01*
G01X5321324Y3609156D01*
G01X5321261Y3608389D01*
G01X5321154Y3607624D01*
G01X5321007Y3606867D01*
G01X5320816Y3606118D01*
G01X5320585Y3605381D01*
G01X5320316Y3604660D01*
G01X5320006Y3603954D01*
G01X5319658Y3603266D01*
G01X5319272Y3602598D01*
G01X5318850Y3601950D01*
G01X5318393Y3601328D01*
G01X5317903Y3600733D01*
G01X5317380Y3600167D01*
G01X5316826Y3599628D01*
G01X5316244Y3599120D01*
G01X5315635Y3598648D01*
G01X5315002Y3598208D01*
G01X5314344Y3597802D01*
G01X5313666Y3597436D01*
G01X5312968Y3597106D01*
G01X5312254Y3596817D01*
G01X5311522Y3596565D01*
G01X5310781Y3596357D01*
G01X5310029Y3596187D01*
G01X5309267Y3596060D01*
G01X5308500Y3595976D01*
G01X5307730Y3595933D01*
G01X5306958Y3595933D01*
G01X5306188Y3595976D01*
G01X5305421Y3596060D01*
G01X5304659Y3596187D01*
G01X5303907Y3596357D01*
G01X5303166Y3596565D01*
G01X5302434Y3596817D01*
G01X5301720Y3597106D01*
G01X5301022Y3597436D01*
G01X5300344Y3597802D01*
G01X5299686Y3598208D01*
G01X5299053Y3598648D01*
G01X5298444Y3599120D01*
G01X5297862Y3599628D01*
G01X5297308Y3600167D01*
G01X5296785Y3600733D01*
G01X5296295Y3601328D01*
G01X5295838Y3601950D01*
G01X5295416Y3602598D01*
G01X5295030Y3603266D01*
G01X5294682Y3603954D01*
G01X5294372Y3604660D01*
G01X5294103Y3605381D01*
G01X5293872Y3606118D01*
G01X5293681Y3606867D01*
G01X5293534Y3607624D01*
G01X5293427Y3608389D01*
G01X5293364Y3609156D01*
G01X5293343Y3609928D01*
G01X5293343Y3671924D01*
G01X5293364Y3672696D01*
G01X5293427Y3673464D01*
G01X5293534Y3674228D01*
G01X5293681Y3674985D01*
G01X5293872Y3675734D01*
G01X5294103Y3676471D01*
G01X5294372Y3677192D01*
G01X5294682Y3677898D01*
G01X5295030Y3678587D01*
G01X5295416Y3679255D01*
G01X5295838Y3679902D01*
G01X5296295Y3680525D01*
G01X5296785Y3681119D01*
G01X5297308Y3681686D01*
G01X5297862Y3682224D01*
G01X5298444Y3682732D01*
G01X5299053Y3683204D01*
G01X5299686Y3683644D01*
G01X5300344Y3684050D01*
G01X5301022Y3684416D01*
G01X5301720Y3684746D01*
G01X5302434Y3685036D01*
G01X5303166Y3685287D01*
G01X5303907Y3685496D01*
G01X5304659Y3685666D01*
G01X5305421Y3685793D01*
G01X5306188Y3685877D01*
G01X5306958Y3685920D01*
G01X5307730Y3685920D01*
G37*
G36*
G01X5007502Y3685920D02*
G01X5008272Y3685877D01*
G01X5009039Y3685793D01*
G01X5009801Y3685666D01*
G01X5010553Y3685496D01*
G01X5011294Y3685287D01*
G01X5012026Y3685036D01*
G01X5012740Y3684746D01*
G01X5013438Y3684416D01*
G01X5014116Y3684050D01*
G01X5014774Y3683644D01*
G01X5015407Y3683204D01*
G01X5016016Y3682732D01*
G01X5016598Y3682224D01*
G01X5017152Y3681686D01*
G01X5017675Y3681119D01*
G01X5018165Y3680525D01*
G01X5018622Y3679902D01*
G01X5019044Y3679255D01*
G01X5019430Y3678587D01*
G01X5019778Y3677898D01*
G01X5020088Y3677192D01*
G01X5020357Y3676471D01*
G01X5020588Y3675734D01*
G01X5020779Y3674985D01*
G01X5020926Y3674228D01*
G01X5021033Y3673464D01*
G01X5021096Y3672696D01*
G01X5021116Y3671924D01*
G01X5021116Y3609928D01*
G01X5021096Y3609156D01*
G01X5021033Y3608389D01*
G01X5020926Y3607624D01*
G01X5020779Y3606867D01*
G01X5020588Y3606118D01*
G01X5020357Y3605381D01*
G01X5020088Y3604660D01*
G01X5019778Y3603954D01*
G01X5019430Y3603266D01*
G01X5019044Y3602598D01*
G01X5018622Y3601950D01*
G01X5018165Y3601328D01*
G01X5017675Y3600733D01*
G01X5017152Y3600167D01*
G01X5016598Y3599628D01*
G01X5016016Y3599120D01*
G01X5015407Y3598648D01*
G01X5014774Y3598208D01*
G01X5014116Y3597802D01*
G01X5013438Y3597436D01*
G01X5012740Y3597106D01*
G01X5012026Y3596817D01*
G01X5011294Y3596565D01*
G01X5010553Y3596357D01*
G01X5009801Y3596187D01*
G01X5009039Y3596060D01*
G01X5008272Y3595976D01*
G01X5007502Y3595933D01*
G01X5006730Y3595933D01*
G01X5005960Y3595976D01*
G01X5005193Y3596060D01*
G01X5004431Y3596187D01*
G01X5003679Y3596357D01*
G01X5002938Y3596565D01*
G01X5002206Y3596817D01*
G01X5001492Y3597106D01*
G01X5000794Y3597436D01*
G01X5000116Y3597802D01*
G01X4999458Y3598208D01*
G01X4998825Y3598648D01*
G01X4998216Y3599120D01*
G01X4997634Y3599628D01*
G01X4997080Y3600167D01*
G01X4996557Y3600733D01*
G01X4996067Y3601328D01*
G01X4995610Y3601950D01*
G01X4995188Y3602598D01*
G01X4994802Y3603266D01*
G01X4994454Y3603954D01*
G01X4994144Y3604660D01*
G01X4993875Y3605381D01*
G01X4993644Y3606118D01*
G01X4993453Y3606867D01*
G01X4993306Y3607624D01*
G01X4993199Y3608389D01*
G01X4993136Y3609156D01*
G01X4993115Y3609928D01*
G01X4993115Y3671924D01*
G01X4993136Y3672696D01*
G01X4993199Y3673464D01*
G01X4993306Y3674228D01*
G01X4993453Y3674985D01*
G01X4993644Y3675734D01*
G01X4993875Y3676471D01*
G01X4994144Y3677192D01*
G01X4994454Y3677898D01*
G01X4994802Y3678587D01*
G01X4995188Y3679255D01*
G01X4995610Y3679902D01*
G01X4996067Y3680525D01*
G01X4996557Y3681119D01*
G01X4997080Y3681686D01*
G01X4997634Y3682224D01*
G01X4998216Y3682732D01*
G01X4998825Y3683204D01*
G01X4999458Y3683644D01*
G01X5000116Y3684050D01*
G01X5000794Y3684416D01*
G01X5001492Y3684746D01*
G01X5002206Y3685036D01*
G01X5002938Y3685287D01*
G01X5003679Y3685496D01*
G01X5004431Y3685666D01*
G01X5005193Y3685793D01*
G01X5005960Y3685877D01*
G01X5006730Y3685920D01*
G01X5007502Y3685920D01*
G37*
G36*
G01X5106036Y3685877D02*
G01X5106806Y3685920D01*
G01X5107578Y3685920D01*
G01X5108348Y3685877D01*
G01X5109115Y3685793D01*
G01X5109877Y3685666D01*
G01X5110629Y3685496D01*
G01X5111370Y3685287D01*
G01X5112102Y3685036D01*
G01X5112816Y3684746D01*
G01X5113514Y3684416D01*
G01X5114192Y3684050D01*
G01X5114850Y3683644D01*
G01X5115483Y3683204D01*
G01X5116092Y3682732D01*
G01X5116674Y3682224D01*
G01X5117228Y3681686D01*
G01X5117751Y3681119D01*
G01X5118241Y3680525D01*
G01X5118698Y3679902D01*
G01X5119120Y3679255D01*
G01X5119506Y3678587D01*
G01X5119854Y3677898D01*
G01X5120164Y3677192D01*
G01X5120433Y3676471D01*
G01X5120664Y3675734D01*
G01X5120855Y3674985D01*
G01X5121002Y3674228D01*
G01X5121109Y3673464D01*
G01X5121172Y3672696D01*
G01X5121192Y3671924D01*
G01X5121192Y3609928D01*
G01X5121172Y3609156D01*
G01X5121109Y3608389D01*
G01X5121002Y3607624D01*
G01X5120855Y3606867D01*
G01X5120664Y3606118D01*
G01X5120433Y3605381D01*
G01X5120164Y3604660D01*
G01X5119854Y3603954D01*
G01X5119506Y3603266D01*
G01X5119120Y3602598D01*
G01X5118698Y3601950D01*
G01X5118241Y3601328D01*
G01X5117751Y3600733D01*
G01X5117228Y3600167D01*
G01X5116674Y3599628D01*
G01X5116092Y3599120D01*
G01X5115483Y3598648D01*
G01X5114850Y3598208D01*
G01X5114192Y3597802D01*
G01X5113514Y3597436D01*
G01X5112816Y3597106D01*
G01X5112102Y3596817D01*
G01X5111370Y3596565D01*
G01X5110629Y3596357D01*
G01X5109877Y3596187D01*
G01X5109115Y3596060D01*
G01X5108348Y3595976D01*
G01X5107578Y3595933D01*
G01X5106806Y3595933D01*
G01X5106036Y3595976D01*
G01X5105269Y3596060D01*
G01X5104507Y3596187D01*
G01X5103755Y3596357D01*
G01X5103014Y3596565D01*
G01X5102282Y3596817D01*
G01X5101568Y3597106D01*
G01X5100870Y3597436D01*
G01X5100192Y3597802D01*
G01X5099534Y3598208D01*
G01X5098901Y3598648D01*
G01X5098292Y3599120D01*
G01X5097710Y3599628D01*
G01X5097156Y3600167D01*
G01X5096633Y3600733D01*
G01X5096143Y3601328D01*
G01X5095686Y3601950D01*
G01X5095264Y3602598D01*
G01X5094878Y3603266D01*
G01X5094530Y3603954D01*
G01X5094220Y3604660D01*
G01X5093951Y3605381D01*
G01X5093720Y3606118D01*
G01X5093529Y3606867D01*
G01X5093382Y3607624D01*
G01X5093275Y3608389D01*
G01X5093212Y3609156D01*
G01X5093191Y3609928D01*
G01X5093191Y3671924D01*
G01X5093212Y3672696D01*
G01X5093275Y3673464D01*
G01X5093382Y3674228D01*
G01X5093529Y3674985D01*
G01X5093720Y3675734D01*
G01X5093951Y3676471D01*
G01X5094220Y3677192D01*
G01X5094530Y3677898D01*
G01X5094878Y3678587D01*
G01X5095264Y3679255D01*
G01X5095686Y3679902D01*
G01X5096143Y3680525D01*
G01X5096633Y3681119D01*
G01X5097156Y3681686D01*
G01X5097710Y3682224D01*
G01X5098292Y3682732D01*
G01X5098901Y3683204D01*
G01X5099534Y3683644D01*
G01X5100192Y3684050D01*
G01X5100870Y3684416D01*
G01X5101568Y3684746D01*
G01X5102282Y3685036D01*
G01X5103014Y3685287D01*
G01X5103755Y3685496D01*
G01X5104507Y3685666D01*
G01X5105269Y3685793D01*
G01X5106036Y3685877D01*
G37*
G36*
G01X4938988Y3555008D02*
G01X4939755Y3554945D01*
G01X4940520Y3554838D01*
G01X4941277Y3554691D01*
G01X4942026Y3554500D01*
G01X4942763Y3554269D01*
G01X4943484Y3554000D01*
G01X4944190Y3553690D01*
G01X4944878Y3553342D01*
G01X4945546Y3552956D01*
G01X4946194Y3552534D01*
G01X4946816Y3552077D01*
G01X4947411Y3551587D01*
G01X4947977Y3551064D01*
G01X4948516Y3550510D01*
G01X4949024Y3549928D01*
G01X4949496Y3549319D01*
G01X4949935Y3548686D01*
G01X4950342Y3548028D01*
G01X4950708Y3547350D01*
G01X4951038Y3546652D01*
G01X4951327Y3545938D01*
G01X4951579Y3545206D01*
G01X4951787Y3544465D01*
G01X4951957Y3543713D01*
G01X4952084Y3542951D01*
G01X4952168Y3542184D01*
G01X4952211Y3541414D01*
G01X4952211Y3540642D01*
G01X4952168Y3539872D01*
G01X4952084Y3539105D01*
G01X4951957Y3538343D01*
G01X4951787Y3537591D01*
G01X4951579Y3536850D01*
G01X4951327Y3536118D01*
G01X4951038Y3535404D01*
G01X4950708Y3534706D01*
G01X4950342Y3534028D01*
G01X4949935Y3533370D01*
G01X4949496Y3532737D01*
G01X4949024Y3532128D01*
G01X4948516Y3531546D01*
G01X4947977Y3530992D01*
G01X4947411Y3530469D01*
G01X4946816Y3529979D01*
G01X4946194Y3529522D01*
G01X4945546Y3529100D01*
G01X4944878Y3528714D01*
G01X4944190Y3528366D01*
G01X4943484Y3528056D01*
G01X4942763Y3527787D01*
G01X4942026Y3527556D01*
G01X4941277Y3527365D01*
G01X4940520Y3527218D01*
G01X4939755Y3527111D01*
G01X4938988Y3527048D01*
G01X4938216Y3527027D01*
G01X4876217Y3527027D01*
G01X4875445Y3527048D01*
G01X4874678Y3527111D01*
G01X4873913Y3527218D01*
G01X4873156Y3527365D01*
G01X4872407Y3527556D01*
G01X4871670Y3527787D01*
G01X4870949Y3528056D01*
G01X4870243Y3528366D01*
G01X4869555Y3528714D01*
G01X4868887Y3529100D01*
G01X4868239Y3529522D01*
G01X4867617Y3529979D01*
G01X4867022Y3530469D01*
G01X4866456Y3530992D01*
G01X4865917Y3531546D01*
G01X4865409Y3532128D01*
G01X4864937Y3532737D01*
G01X4864498Y3533370D01*
G01X4864091Y3534028D01*
G01X4863725Y3534706D01*
G01X4863395Y3535404D01*
G01X4863106Y3536118D01*
G01X4862854Y3536850D01*
G01X4862646Y3537591D01*
G01X4862476Y3538343D01*
G01X4862349Y3539105D01*
G01X4862265Y3539872D01*
G01X4862222Y3540642D01*
G01X4862222Y3541414D01*
G01X4862265Y3542184D01*
G01X4862349Y3542951D01*
G01X4862476Y3543713D01*
G01X4862646Y3544465D01*
G01X4862854Y3545206D01*
G01X4863106Y3545938D01*
G01X4863395Y3546652D01*
G01X4863725Y3547350D01*
G01X4864091Y3548028D01*
G01X4864498Y3548686D01*
G01X4864937Y3549319D01*
G01X4865409Y3549928D01*
G01X4865917Y3550510D01*
G01X4866456Y3551064D01*
G01X4867022Y3551587D01*
G01X4867617Y3552077D01*
G01X4868239Y3552534D01*
G01X4868887Y3552956D01*
G01X4869555Y3553342D01*
G01X4870243Y3553690D01*
G01X4870949Y3554000D01*
G01X4871670Y3554269D01*
G01X4872407Y3554500D01*
G01X4873156Y3554691D01*
G01X4873913Y3554838D01*
G01X4874678Y3554945D01*
G01X4875445Y3555008D01*
G01X4876217Y3555028D01*
G01X4938216Y3555028D01*
G01X4938988Y3555008D01*
G37*
G36*
G01X5374677Y3554945D02*
G01X5375444Y3555008D01*
G01X5376216Y3555028D01*
G01X5438215Y3555028D01*
G01X5438987Y3555008D01*
G01X5439754Y3554945D01*
G01X5440519Y3554838D01*
G01X5441276Y3554691D01*
G01X5442025Y3554500D01*
G01X5442762Y3554269D01*
G01X5443483Y3554000D01*
G01X5444189Y3553690D01*
G01X5444877Y3553342D01*
G01X5445545Y3552956D01*
G01X5446193Y3552534D01*
G01X5446815Y3552077D01*
G01X5447410Y3551587D01*
G01X5447976Y3551064D01*
G01X5448515Y3550510D01*
G01X5449023Y3549928D01*
G01X5449495Y3549319D01*
G01X5449934Y3548686D01*
G01X5450341Y3548028D01*
G01X5450707Y3547350D01*
G01X5451037Y3546652D01*
G01X5451326Y3545938D01*
G01X5451578Y3545206D01*
G01X5451786Y3544465D01*
G01X5451956Y3543713D01*
G01X5452083Y3542951D01*
G01X5452167Y3542184D01*
G01X5452210Y3541414D01*
G01X5452210Y3540642D01*
G01X5452167Y3539872D01*
G01X5452083Y3539105D01*
G01X5451956Y3538343D01*
G01X5451786Y3537591D01*
G01X5451578Y3536850D01*
G01X5451326Y3536118D01*
G01X5451037Y3535404D01*
G01X5450707Y3534706D01*
G01X5450341Y3534028D01*
G01X5449934Y3533370D01*
G01X5449495Y3532737D01*
G01X5449023Y3532128D01*
G01X5448515Y3531546D01*
G01X5447976Y3530992D01*
G01X5447410Y3530469D01*
G01X5446815Y3529979D01*
G01X5446193Y3529522D01*
G01X5445545Y3529100D01*
G01X5444877Y3528714D01*
G01X5444189Y3528366D01*
G01X5443483Y3528056D01*
G01X5442762Y3527787D01*
G01X5442025Y3527556D01*
G01X5441276Y3527365D01*
G01X5440519Y3527218D01*
G01X5439754Y3527111D01*
G01X5438987Y3527048D01*
G01X5438215Y3527027D01*
G01X5376216Y3527027D01*
G01X5375444Y3527048D01*
G01X5374677Y3527111D01*
G01X5373912Y3527218D01*
G01X5373155Y3527365D01*
G01X5372406Y3527556D01*
G01X5371669Y3527787D01*
G01X5370948Y3528056D01*
G01X5370242Y3528366D01*
G01X5369554Y3528714D01*
G01X5368886Y3529100D01*
G01X5368238Y3529522D01*
G01X5367616Y3529979D01*
G01X5367021Y3530469D01*
G01X5366455Y3530992D01*
G01X5365916Y3531546D01*
G01X5365408Y3532128D01*
G01X5364936Y3532737D01*
G01X5364497Y3533370D01*
G01X5364090Y3534028D01*
G01X5363724Y3534706D01*
G01X5363394Y3535404D01*
G01X5363105Y3536118D01*
G01X5362853Y3536850D01*
G01X5362645Y3537591D01*
G01X5362475Y3538343D01*
G01X5362348Y3539105D01*
G01X5362264Y3539872D01*
G01X5362221Y3540642D01*
G01X5362221Y3541414D01*
G01X5362264Y3542184D01*
G01X5362348Y3542951D01*
G01X5362475Y3543713D01*
G01X5362645Y3544465D01*
G01X5362853Y3545206D01*
G01X5363105Y3545938D01*
G01X5363394Y3546652D01*
G01X5363724Y3547350D01*
G01X5364090Y3548028D01*
G01X5364497Y3548686D01*
G01X5364936Y3549319D01*
G01X5365408Y3549928D01*
G01X5365916Y3550510D01*
G01X5366455Y3551064D01*
G01X5367021Y3551587D01*
G01X5367616Y3552077D01*
G01X5368238Y3552534D01*
G01X5368886Y3552956D01*
G01X5369554Y3553342D01*
G01X5370242Y3553690D01*
G01X5370948Y3554000D01*
G01X5371669Y3554269D01*
G01X5372406Y3554500D01*
G01X5373155Y3554691D01*
G01X5373912Y3554838D01*
G01X5374677Y3554945D01*
G37*
G36*
G01X4938988Y3504970D02*
G01X4939755Y3504907D01*
G01X4940520Y3504800D01*
G01X4941277Y3504653D01*
G01X4942026Y3504462D01*
G01X4942763Y3504231D01*
G01X4943484Y3503962D01*
G01X4944190Y3503652D01*
G01X4944878Y3503304D01*
G01X4945546Y3502918D01*
G01X4946194Y3502496D01*
G01X4946816Y3502039D01*
G01X4947411Y3501549D01*
G01X4947977Y3501026D01*
G01X4948516Y3500472D01*
G01X4949024Y3499890D01*
G01X4949496Y3499281D01*
G01X4949935Y3498648D01*
G01X4950342Y3497990D01*
G01X4950708Y3497312D01*
G01X4951038Y3496614D01*
G01X4951327Y3495900D01*
G01X4951579Y3495168D01*
G01X4951787Y3494427D01*
G01X4951957Y3493675D01*
G01X4952084Y3492913D01*
G01X4952168Y3492146D01*
G01X4952211Y3491376D01*
G01X4952211Y3490604D01*
G01X4952168Y3489834D01*
G01X4952084Y3489067D01*
G01X4951957Y3488305D01*
G01X4951787Y3487553D01*
G01X4951579Y3486812D01*
G01X4951327Y3486080D01*
G01X4951038Y3485366D01*
G01X4950708Y3484668D01*
G01X4950342Y3483990D01*
G01X4949935Y3483332D01*
G01X4949496Y3482699D01*
G01X4949024Y3482090D01*
G01X4948516Y3481508D01*
G01X4947977Y3480954D01*
G01X4947411Y3480431D01*
G01X4946816Y3479941D01*
G01X4946194Y3479484D01*
G01X4945546Y3479062D01*
G01X4944878Y3478676D01*
G01X4944190Y3478328D01*
G01X4943484Y3478018D01*
G01X4942763Y3477749D01*
G01X4942026Y3477518D01*
G01X4941277Y3477327D01*
G01X4940520Y3477180D01*
G01X4939755Y3477073D01*
G01X4938988Y3477010D01*
G01X4938216Y3476989D01*
G01X4876217Y3476989D01*
G01X4875445Y3477010D01*
G01X4874678Y3477073D01*
G01X4873913Y3477180D01*
G01X4873156Y3477327D01*
G01X4872407Y3477518D01*
G01X4871670Y3477749D01*
G01X4870949Y3478018D01*
G01X4870243Y3478328D01*
G01X4869555Y3478676D01*
G01X4868887Y3479062D01*
G01X4868239Y3479484D01*
G01X4867617Y3479941D01*
G01X4867022Y3480431D01*
G01X4866456Y3480954D01*
G01X4865917Y3481508D01*
G01X4865409Y3482090D01*
G01X4864937Y3482699D01*
G01X4864498Y3483332D01*
G01X4864091Y3483990D01*
G01X4863725Y3484668D01*
G01X4863395Y3485366D01*
G01X4863106Y3486080D01*
G01X4862854Y3486812D01*
G01X4862646Y3487553D01*
G01X4862476Y3488305D01*
G01X4862349Y3489067D01*
G01X4862265Y3489834D01*
G01X4862222Y3490604D01*
G01X4862222Y3491376D01*
G01X4862265Y3492146D01*
G01X4862349Y3492913D01*
G01X4862476Y3493675D01*
G01X4862646Y3494427D01*
G01X4862854Y3495168D01*
G01X4863106Y3495900D01*
G01X4863395Y3496614D01*
G01X4863725Y3497312D01*
G01X4864091Y3497990D01*
G01X4864498Y3498648D01*
G01X4864937Y3499281D01*
G01X4865409Y3499890D01*
G01X4865917Y3500472D01*
G01X4866456Y3501026D01*
G01X4867022Y3501549D01*
G01X4867617Y3502039D01*
G01X4868239Y3502496D01*
G01X4868887Y3502918D01*
G01X4869555Y3503304D01*
G01X4870243Y3503652D01*
G01X4870949Y3503962D01*
G01X4871670Y3504231D01*
G01X4872407Y3504462D01*
G01X4873156Y3504653D01*
G01X4873913Y3504800D01*
G01X4874678Y3504907D01*
G01X4875445Y3504970D01*
G01X4876217Y3504990D01*
G01X4938216Y3504990D01*
G01X4938988Y3504970D01*
G37*
G36*
G01X5374677Y3504907D02*
G01X5375444Y3504970D01*
G01X5376216Y3504990D01*
G01X5438215Y3504990D01*
G01X5438987Y3504970D01*
G01X5439754Y3504907D01*
G01X5440519Y3504800D01*
G01X5441276Y3504653D01*
G01X5442025Y3504462D01*
G01X5442762Y3504231D01*
G01X5443483Y3503962D01*
G01X5444189Y3503652D01*
G01X5444877Y3503304D01*
G01X5445545Y3502918D01*
G01X5446193Y3502496D01*
G01X5446815Y3502039D01*
G01X5447410Y3501549D01*
G01X5447976Y3501026D01*
G01X5448515Y3500472D01*
G01X5449023Y3499890D01*
G01X5449495Y3499281D01*
G01X5449934Y3498648D01*
G01X5450341Y3497990D01*
G01X5450707Y3497312D01*
G01X5451037Y3496614D01*
G01X5451326Y3495900D01*
G01X5451578Y3495168D01*
G01X5451786Y3494427D01*
G01X5451956Y3493675D01*
G01X5452083Y3492913D01*
G01X5452167Y3492146D01*
G01X5452210Y3491376D01*
G01X5452210Y3490604D01*
G01X5452167Y3489834D01*
G01X5452083Y3489067D01*
G01X5451956Y3488305D01*
G01X5451786Y3487553D01*
G01X5451578Y3486812D01*
G01X5451326Y3486080D01*
G01X5451037Y3485366D01*
G01X5450707Y3484668D01*
G01X5450341Y3483990D01*
G01X5449934Y3483332D01*
G01X5449495Y3482699D01*
G01X5449023Y3482090D01*
G01X5448515Y3481508D01*
G01X5447976Y3480954D01*
G01X5447410Y3480431D01*
G01X5446815Y3479941D01*
G01X5446193Y3479484D01*
G01X5445545Y3479062D01*
G01X5444877Y3478676D01*
G01X5444189Y3478328D01*
G01X5443483Y3478018D01*
G01X5442762Y3477749D01*
G01X5442025Y3477518D01*
G01X5441276Y3477327D01*
G01X5440519Y3477180D01*
G01X5439754Y3477073D01*
G01X5438987Y3477010D01*
G01X5438215Y3476989D01*
G01X5376216Y3476989D01*
G01X5375444Y3477010D01*
G01X5374677Y3477073D01*
G01X5373912Y3477180D01*
G01X5373155Y3477327D01*
G01X5372406Y3477518D01*
G01X5371669Y3477749D01*
G01X5370948Y3478018D01*
G01X5370242Y3478328D01*
G01X5369554Y3478676D01*
G01X5368886Y3479062D01*
G01X5368238Y3479484D01*
G01X5367616Y3479941D01*
G01X5367021Y3480431D01*
G01X5366455Y3480954D01*
G01X5365916Y3481508D01*
G01X5365408Y3482090D01*
G01X5364936Y3482699D01*
G01X5364497Y3483332D01*
G01X5364090Y3483990D01*
G01X5363724Y3484668D01*
G01X5363394Y3485366D01*
G01X5363105Y3486080D01*
G01X5362853Y3486812D01*
G01X5362645Y3487553D01*
G01X5362475Y3488305D01*
G01X5362348Y3489067D01*
G01X5362264Y3489834D01*
G01X5362221Y3490604D01*
G01X5362221Y3491376D01*
G01X5362264Y3492146D01*
G01X5362348Y3492913D01*
G01X5362475Y3493675D01*
G01X5362645Y3494427D01*
G01X5362853Y3495168D01*
G01X5363105Y3495900D01*
G01X5363394Y3496614D01*
G01X5363724Y3497312D01*
G01X5364090Y3497990D01*
G01X5364497Y3498648D01*
G01X5364936Y3499281D01*
G01X5365408Y3499890D01*
G01X5365916Y3500472D01*
G01X5366455Y3501026D01*
G01X5367021Y3501549D01*
G01X5367616Y3502039D01*
G01X5368238Y3502496D01*
G01X5368886Y3502918D01*
G01X5369554Y3503304D01*
G01X5370242Y3503652D01*
G01X5370948Y3503962D01*
G01X5371669Y3504231D01*
G01X5372406Y3504462D01*
G01X5373155Y3504653D01*
G01X5373912Y3504800D01*
G01X5374677Y3504907D01*
G37*
G36*
G01X4874678Y3454869D02*
G01X4875445Y3454932D01*
G01X4876217Y3454952D01*
G01X4938216Y3454952D01*
G01X4938988Y3454932D01*
G01X4939755Y3454869D01*
G01X4940520Y3454762D01*
G01X4941277Y3454615D01*
G01X4942026Y3454424D01*
G01X4942763Y3454193D01*
G01X4943484Y3453924D01*
G01X4944190Y3453614D01*
G01X4944878Y3453266D01*
G01X4945546Y3452880D01*
G01X4946194Y3452458D01*
G01X4946816Y3452001D01*
G01X4947411Y3451511D01*
G01X4947977Y3450988D01*
G01X4948516Y3450434D01*
G01X4949024Y3449852D01*
G01X4949496Y3449243D01*
G01X4949935Y3448610D01*
G01X4950342Y3447952D01*
G01X4950708Y3447274D01*
G01X4951038Y3446576D01*
G01X4951327Y3445862D01*
G01X4951579Y3445130D01*
G01X4951787Y3444389D01*
G01X4951957Y3443637D01*
G01X4952084Y3442875D01*
G01X4952168Y3442108D01*
G01X4952211Y3441338D01*
G01X4952211Y3440566D01*
G01X4952168Y3439796D01*
G01X4952084Y3439029D01*
G01X4951957Y3438267D01*
G01X4951787Y3437515D01*
G01X4951579Y3436774D01*
G01X4951327Y3436042D01*
G01X4951038Y3435328D01*
G01X4950708Y3434630D01*
G01X4950342Y3433952D01*
G01X4949935Y3433294D01*
G01X4949496Y3432661D01*
G01X4949024Y3432052D01*
G01X4948516Y3431470D01*
G01X4947977Y3430916D01*
G01X4947411Y3430393D01*
G01X4946816Y3429903D01*
G01X4946194Y3429446D01*
G01X4945546Y3429024D01*
G01X4944878Y3428638D01*
G01X4944190Y3428290D01*
G01X4943484Y3427980D01*
G01X4942763Y3427711D01*
G01X4942026Y3427480D01*
G01X4941277Y3427289D01*
G01X4940520Y3427142D01*
G01X4939755Y3427035D01*
G01X4938988Y3426972D01*
G01X4938216Y3426951D01*
G01X4876217Y3426951D01*
G01X4875445Y3426972D01*
G01X4874678Y3427035D01*
G01X4873913Y3427142D01*
G01X4873156Y3427289D01*
G01X4872407Y3427480D01*
G01X4871670Y3427711D01*
G01X4870949Y3427980D01*
G01X4870243Y3428290D01*
G01X4869555Y3428638D01*
G01X4868887Y3429024D01*
G01X4868239Y3429446D01*
G01X4867617Y3429903D01*
G01X4867022Y3430393D01*
G01X4866456Y3430916D01*
G01X4865917Y3431470D01*
G01X4865409Y3432052D01*
G01X4864937Y3432661D01*
G01X4864498Y3433294D01*
G01X4864091Y3433952D01*
G01X4863725Y3434630D01*
G01X4863395Y3435328D01*
G01X4863106Y3436042D01*
G01X4862854Y3436774D01*
G01X4862646Y3437515D01*
G01X4862476Y3438267D01*
G01X4862349Y3439029D01*
G01X4862265Y3439796D01*
G01X4862222Y3440566D01*
G01X4862222Y3441338D01*
G01X4862265Y3442108D01*
G01X4862349Y3442875D01*
G01X4862476Y3443637D01*
G01X4862646Y3444389D01*
G01X4862854Y3445130D01*
G01X4863106Y3445862D01*
G01X4863395Y3446576D01*
G01X4863725Y3447274D01*
G01X4864091Y3447952D01*
G01X4864498Y3448610D01*
G01X4864937Y3449243D01*
G01X4865409Y3449852D01*
G01X4865917Y3450434D01*
G01X4866456Y3450988D01*
G01X4867022Y3451511D01*
G01X4867617Y3452001D01*
G01X4868239Y3452458D01*
G01X4868887Y3452880D01*
G01X4869555Y3453266D01*
G01X4870243Y3453614D01*
G01X4870949Y3453924D01*
G01X4871670Y3454193D01*
G01X4872407Y3454424D01*
G01X4873156Y3454615D01*
G01X4873913Y3454762D01*
G01X4874678Y3454869D01*
G37*
G36*
G01X5374677Y3454869D02*
G01X5375444Y3454932D01*
G01X5376216Y3454952D01*
G01X5438215Y3454952D01*
G01X5438987Y3454932D01*
G01X5439754Y3454869D01*
G01X5440519Y3454762D01*
G01X5441276Y3454615D01*
G01X5442025Y3454424D01*
G01X5442762Y3454193D01*
G01X5443483Y3453924D01*
G01X5444189Y3453614D01*
G01X5444877Y3453266D01*
G01X5445545Y3452880D01*
G01X5446193Y3452458D01*
G01X5446815Y3452001D01*
G01X5447410Y3451511D01*
G01X5447976Y3450988D01*
G01X5448515Y3450434D01*
G01X5449023Y3449852D01*
G01X5449495Y3449243D01*
G01X5449934Y3448610D01*
G01X5450341Y3447952D01*
G01X5450707Y3447274D01*
G01X5451037Y3446576D01*
G01X5451326Y3445862D01*
G01X5451578Y3445130D01*
G01X5451786Y3444389D01*
G01X5451956Y3443637D01*
G01X5452083Y3442875D01*
G01X5452167Y3442108D01*
G01X5452210Y3441338D01*
G01X5452210Y3440566D01*
G01X5452167Y3439796D01*
G01X5452083Y3439029D01*
G01X5451956Y3438267D01*
G01X5451786Y3437515D01*
G01X5451578Y3436774D01*
G01X5451326Y3436042D01*
G01X5451037Y3435328D01*
G01X5450707Y3434630D01*
G01X5450341Y3433952D01*
G01X5449934Y3433294D01*
G01X5449495Y3432661D01*
G01X5449023Y3432052D01*
G01X5448515Y3431470D01*
G01X5447976Y3430916D01*
G01X5447410Y3430393D01*
G01X5446815Y3429903D01*
G01X5446193Y3429446D01*
G01X5445545Y3429024D01*
G01X5444877Y3428638D01*
G01X5444189Y3428290D01*
G01X5443483Y3427980D01*
G01X5442762Y3427711D01*
G01X5442025Y3427480D01*
G01X5441276Y3427289D01*
G01X5440519Y3427142D01*
G01X5439754Y3427035D01*
G01X5438987Y3426972D01*
G01X5438215Y3426951D01*
G01X5376216Y3426951D01*
G01X5375444Y3426972D01*
G01X5374677Y3427035D01*
G01X5373912Y3427142D01*
G01X5373155Y3427289D01*
G01X5372406Y3427480D01*
G01X5371669Y3427711D01*
G01X5370948Y3427980D01*
G01X5370242Y3428290D01*
G01X5369554Y3428638D01*
G01X5368886Y3429024D01*
G01X5368238Y3429446D01*
G01X5367616Y3429903D01*
G01X5367021Y3430393D01*
G01X5366455Y3430916D01*
G01X5365916Y3431470D01*
G01X5365408Y3432052D01*
G01X5364936Y3432661D01*
G01X5364497Y3433294D01*
G01X5364090Y3433952D01*
G01X5363724Y3434630D01*
G01X5363394Y3435328D01*
G01X5363105Y3436042D01*
G01X5362853Y3436774D01*
G01X5362645Y3437515D01*
G01X5362475Y3438267D01*
G01X5362348Y3439029D01*
G01X5362264Y3439796D01*
G01X5362221Y3440566D01*
G01X5362221Y3441338D01*
G01X5362264Y3442108D01*
G01X5362348Y3442875D01*
G01X5362475Y3443637D01*
G01X5362645Y3444389D01*
G01X5362853Y3445130D01*
G01X5363105Y3445862D01*
G01X5363394Y3446576D01*
G01X5363724Y3447274D01*
G01X5364090Y3447952D01*
G01X5364497Y3448610D01*
G01X5364936Y3449243D01*
G01X5365408Y3449852D01*
G01X5365916Y3450434D01*
G01X5366455Y3450988D01*
G01X5367021Y3451511D01*
G01X5367616Y3452001D01*
G01X5368238Y3452458D01*
G01X5368886Y3452880D01*
G01X5369554Y3453266D01*
G01X5370242Y3453614D01*
G01X5370948Y3453924D01*
G01X5371669Y3454193D01*
G01X5372406Y3454424D01*
G01X5373155Y3454615D01*
G01X5373912Y3454762D01*
G01X5374677Y3454869D01*
G37*
G36*
G01X4938988Y3404894D02*
G01X4939755Y3404831D01*
G01X4940520Y3404724D01*
G01X4941277Y3404577D01*
G01X4942026Y3404386D01*
G01X4942763Y3404155D01*
G01X4943484Y3403886D01*
G01X4944190Y3403576D01*
G01X4944878Y3403228D01*
G01X4945546Y3402842D01*
G01X4946194Y3402420D01*
G01X4946816Y3401963D01*
G01X4947411Y3401473D01*
G01X4947977Y3400950D01*
G01X4948516Y3400396D01*
G01X4949024Y3399814D01*
G01X4949496Y3399205D01*
G01X4949935Y3398572D01*
G01X4950342Y3397914D01*
G01X4950708Y3397236D01*
G01X4951038Y3396538D01*
G01X4951327Y3395824D01*
G01X4951579Y3395092D01*
G01X4951787Y3394351D01*
G01X4951957Y3393599D01*
G01X4952084Y3392837D01*
G01X4952168Y3392070D01*
G01X4952211Y3391300D01*
G01X4952211Y3390528D01*
G01X4952168Y3389758D01*
G01X4952084Y3388991D01*
G01X4951957Y3388229D01*
G01X4951787Y3387477D01*
G01X4951579Y3386736D01*
G01X4951327Y3386004D01*
G01X4951038Y3385290D01*
G01X4950708Y3384592D01*
G01X4950342Y3383914D01*
G01X4949935Y3383256D01*
G01X4949496Y3382623D01*
G01X4949024Y3382014D01*
G01X4948516Y3381432D01*
G01X4947977Y3380878D01*
G01X4947411Y3380355D01*
G01X4946816Y3379865D01*
G01X4946194Y3379408D01*
G01X4945546Y3378986D01*
G01X4944878Y3378600D01*
G01X4944190Y3378252D01*
G01X4943484Y3377942D01*
G01X4942763Y3377673D01*
G01X4942026Y3377442D01*
G01X4941277Y3377251D01*
G01X4940520Y3377104D01*
G01X4939755Y3376997D01*
G01X4938988Y3376934D01*
G01X4938216Y3376913D01*
G01X4876217Y3376913D01*
G01X4875445Y3376934D01*
G01X4874678Y3376997D01*
G01X4873913Y3377104D01*
G01X4873156Y3377251D01*
G01X4872407Y3377442D01*
G01X4871670Y3377673D01*
G01X4870949Y3377942D01*
G01X4870243Y3378252D01*
G01X4869555Y3378600D01*
G01X4868887Y3378986D01*
G01X4868239Y3379408D01*
G01X4867617Y3379865D01*
G01X4867022Y3380355D01*
G01X4866456Y3380878D01*
G01X4865917Y3381432D01*
G01X4865409Y3382014D01*
G01X4864937Y3382623D01*
G01X4864498Y3383256D01*
G01X4864091Y3383914D01*
G01X4863725Y3384592D01*
G01X4863395Y3385290D01*
G01X4863106Y3386004D01*
G01X4862854Y3386736D01*
G01X4862646Y3387477D01*
G01X4862476Y3388229D01*
G01X4862349Y3388991D01*
G01X4862265Y3389758D01*
G01X4862222Y3390528D01*
G01X4862222Y3391300D01*
G01X4862265Y3392070D01*
G01X4862349Y3392837D01*
G01X4862476Y3393599D01*
G01X4862646Y3394351D01*
G01X4862854Y3395092D01*
G01X4863106Y3395824D01*
G01X4863395Y3396538D01*
G01X4863725Y3397236D01*
G01X4864091Y3397914D01*
G01X4864498Y3398572D01*
G01X4864937Y3399205D01*
G01X4865409Y3399814D01*
G01X4865917Y3400396D01*
G01X4866456Y3400950D01*
G01X4867022Y3401473D01*
G01X4867617Y3401963D01*
G01X4868239Y3402420D01*
G01X4868887Y3402842D01*
G01X4869555Y3403228D01*
G01X4870243Y3403576D01*
G01X4870949Y3403886D01*
G01X4871670Y3404155D01*
G01X4872407Y3404386D01*
G01X4873156Y3404577D01*
G01X4873913Y3404724D01*
G01X4874678Y3404831D01*
G01X4875445Y3404894D01*
G01X4876217Y3404914D01*
G01X4938216Y3404914D01*
G01X4938988Y3404894D01*
G37*
G36*
G01X5438987Y3404894D02*
G01X5439754Y3404831D01*
G01X5440519Y3404724D01*
G01X5441276Y3404577D01*
G01X5442025Y3404386D01*
G01X5442762Y3404155D01*
G01X5443483Y3403886D01*
G01X5444189Y3403576D01*
G01X5444877Y3403228D01*
G01X5445545Y3402842D01*
G01X5446193Y3402420D01*
G01X5446815Y3401963D01*
G01X5447410Y3401473D01*
G01X5447976Y3400950D01*
G01X5448515Y3400396D01*
G01X5449023Y3399814D01*
G01X5449495Y3399205D01*
G01X5449934Y3398572D01*
G01X5450341Y3397914D01*
G01X5450707Y3397236D01*
G01X5451037Y3396538D01*
G01X5451326Y3395824D01*
G01X5451578Y3395092D01*
G01X5451786Y3394351D01*
G01X5451956Y3393599D01*
G01X5452083Y3392837D01*
G01X5452167Y3392070D01*
G01X5452210Y3391300D01*
G01X5452210Y3390528D01*
G01X5452167Y3389758D01*
G01X5452083Y3388991D01*
G01X5451956Y3388229D01*
G01X5451786Y3387477D01*
G01X5451578Y3386736D01*
G01X5451326Y3386004D01*
G01X5451037Y3385290D01*
G01X5450707Y3384592D01*
G01X5450341Y3383914D01*
G01X5449934Y3383256D01*
G01X5449495Y3382623D01*
G01X5449023Y3382014D01*
G01X5448515Y3381432D01*
G01X5447976Y3380878D01*
G01X5447410Y3380355D01*
G01X5446815Y3379865D01*
G01X5446193Y3379408D01*
G01X5445545Y3378986D01*
G01X5444877Y3378600D01*
G01X5444189Y3378252D01*
G01X5443483Y3377942D01*
G01X5442762Y3377673D01*
G01X5442025Y3377442D01*
G01X5441276Y3377251D01*
G01X5440519Y3377104D01*
G01X5439754Y3376997D01*
G01X5438987Y3376934D01*
G01X5438215Y3376913D01*
G01X5376216Y3376913D01*
G01X5375444Y3376934D01*
G01X5374677Y3376997D01*
G01X5373912Y3377104D01*
G01X5373155Y3377251D01*
G01X5372406Y3377442D01*
G01X5371669Y3377673D01*
G01X5370948Y3377942D01*
G01X5370242Y3378252D01*
G01X5369554Y3378600D01*
G01X5368886Y3378986D01*
G01X5368238Y3379408D01*
G01X5367616Y3379865D01*
G01X5367021Y3380355D01*
G01X5366455Y3380878D01*
G01X5365916Y3381432D01*
G01X5365408Y3382014D01*
G01X5364936Y3382623D01*
G01X5364497Y3383256D01*
G01X5364090Y3383914D01*
G01X5363724Y3384592D01*
G01X5363394Y3385290D01*
G01X5363105Y3386004D01*
G01X5362853Y3386736D01*
G01X5362645Y3387477D01*
G01X5362475Y3388229D01*
G01X5362348Y3388991D01*
G01X5362264Y3389758D01*
G01X5362221Y3390528D01*
G01X5362221Y3391300D01*
G01X5362264Y3392070D01*
G01X5362348Y3392837D01*
G01X5362475Y3393599D01*
G01X5362645Y3394351D01*
G01X5362853Y3395092D01*
G01X5363105Y3395824D01*
G01X5363394Y3396538D01*
G01X5363724Y3397236D01*
G01X5364090Y3397914D01*
G01X5364497Y3398572D01*
G01X5364936Y3399205D01*
G01X5365408Y3399814D01*
G01X5365916Y3400396D01*
G01X5366455Y3400950D01*
G01X5367021Y3401473D01*
G01X5367616Y3401963D01*
G01X5368238Y3402420D01*
G01X5368886Y3402842D01*
G01X5369554Y3403228D01*
G01X5370242Y3403576D01*
G01X5370948Y3403886D01*
G01X5371669Y3404155D01*
G01X5372406Y3404386D01*
G01X5373155Y3404577D01*
G01X5373912Y3404724D01*
G01X5374677Y3404831D01*
G01X5375444Y3404894D01*
G01X5376216Y3404914D01*
G01X5438215Y3404914D01*
G01X5438987Y3404894D01*
G37*
G36*
G01X4874678Y3354793D02*
G01X4875445Y3354856D01*
G01X4876217Y3354876D01*
G01X4938216Y3354876D01*
G01X4938988Y3354856D01*
G01X4939755Y3354793D01*
G01X4940520Y3354686D01*
G01X4941277Y3354539D01*
G01X4942026Y3354348D01*
G01X4942763Y3354117D01*
G01X4943484Y3353848D01*
G01X4944190Y3353538D01*
G01X4944878Y3353190D01*
G01X4945546Y3352804D01*
G01X4946194Y3352382D01*
G01X4946816Y3351925D01*
G01X4947411Y3351435D01*
G01X4947977Y3350912D01*
G01X4948516Y3350358D01*
G01X4949024Y3349776D01*
G01X4949496Y3349167D01*
G01X4949935Y3348534D01*
G01X4950342Y3347876D01*
G01X4950708Y3347198D01*
G01X4951038Y3346500D01*
G01X4951327Y3345786D01*
G01X4951579Y3345054D01*
G01X4951787Y3344313D01*
G01X4951957Y3343561D01*
G01X4952084Y3342799D01*
G01X4952168Y3342032D01*
G01X4952211Y3341262D01*
G01X4952211Y3340490D01*
G01X4952168Y3339720D01*
G01X4952084Y3338953D01*
G01X4951957Y3338191D01*
G01X4951787Y3337439D01*
G01X4951579Y3336698D01*
G01X4951327Y3335966D01*
G01X4951038Y3335252D01*
G01X4950708Y3334554D01*
G01X4950342Y3333876D01*
G01X4949935Y3333218D01*
G01X4949496Y3332585D01*
G01X4949024Y3331976D01*
G01X4948516Y3331394D01*
G01X4947977Y3330840D01*
G01X4947411Y3330317D01*
G01X4946816Y3329827D01*
G01X4946194Y3329370D01*
G01X4945546Y3328948D01*
G01X4944878Y3328562D01*
G01X4944190Y3328214D01*
G01X4943484Y3327904D01*
G01X4942763Y3327635D01*
G01X4942026Y3327404D01*
G01X4941277Y3327213D01*
G01X4940520Y3327066D01*
G01X4939755Y3326959D01*
G01X4938988Y3326896D01*
G01X4938216Y3326875D01*
G01X4876217Y3326875D01*
G01X4875445Y3326896D01*
G01X4874678Y3326959D01*
G01X4873913Y3327066D01*
G01X4873156Y3327213D01*
G01X4872407Y3327404D01*
G01X4871670Y3327635D01*
G01X4870949Y3327904D01*
G01X4870243Y3328214D01*
G01X4869555Y3328562D01*
G01X4868887Y3328948D01*
G01X4868239Y3329370D01*
G01X4867617Y3329827D01*
G01X4867022Y3330317D01*
G01X4866456Y3330840D01*
G01X4865917Y3331394D01*
G01X4865409Y3331976D01*
G01X4864937Y3332585D01*
G01X4864498Y3333218D01*
G01X4864091Y3333876D01*
G01X4863725Y3334554D01*
G01X4863395Y3335252D01*
G01X4863106Y3335966D01*
G01X4862854Y3336698D01*
G01X4862646Y3337439D01*
G01X4862476Y3338191D01*
G01X4862349Y3338953D01*
G01X4862265Y3339720D01*
G01X4862222Y3340490D01*
G01X4862222Y3341262D01*
G01X4862265Y3342032D01*
G01X4862349Y3342799D01*
G01X4862476Y3343561D01*
G01X4862646Y3344313D01*
G01X4862854Y3345054D01*
G01X4863106Y3345786D01*
G01X4863395Y3346500D01*
G01X4863725Y3347198D01*
G01X4864091Y3347876D01*
G01X4864498Y3348534D01*
G01X4864937Y3349167D01*
G01X4865409Y3349776D01*
G01X4865917Y3350358D01*
G01X4866456Y3350912D01*
G01X4867022Y3351435D01*
G01X4867617Y3351925D01*
G01X4868239Y3352382D01*
G01X4868887Y3352804D01*
G01X4869555Y3353190D01*
G01X4870243Y3353538D01*
G01X4870949Y3353848D01*
G01X4871670Y3354117D01*
G01X4872407Y3354348D01*
G01X4873156Y3354539D01*
G01X4873913Y3354686D01*
G01X4874678Y3354793D01*
G37*
G36*
G01X5374677Y3354793D02*
G01X5375444Y3354856D01*
G01X5376216Y3354876D01*
G01X5438215Y3354876D01*
G01X5438987Y3354856D01*
G01X5439754Y3354793D01*
G01X5440519Y3354686D01*
G01X5441276Y3354539D01*
G01X5442025Y3354348D01*
G01X5442762Y3354117D01*
G01X5443483Y3353848D01*
G01X5444189Y3353538D01*
G01X5444877Y3353190D01*
G01X5445545Y3352804D01*
G01X5446193Y3352382D01*
G01X5446815Y3351925D01*
G01X5447410Y3351435D01*
G01X5447976Y3350912D01*
G01X5448515Y3350358D01*
G01X5449023Y3349776D01*
G01X5449495Y3349167D01*
G01X5449934Y3348534D01*
G01X5450341Y3347876D01*
G01X5450707Y3347198D01*
G01X5451037Y3346500D01*
G01X5451326Y3345786D01*
G01X5451578Y3345054D01*
G01X5451786Y3344313D01*
G01X5451956Y3343561D01*
G01X5452083Y3342799D01*
G01X5452167Y3342032D01*
G01X5452210Y3341262D01*
G01X5452210Y3340490D01*
G01X5452167Y3339720D01*
G01X5452083Y3338953D01*
G01X5451956Y3338191D01*
G01X5451786Y3337439D01*
G01X5451578Y3336698D01*
G01X5451326Y3335966D01*
G01X5451037Y3335252D01*
G01X5450707Y3334554D01*
G01X5450341Y3333876D01*
G01X5449934Y3333218D01*
G01X5449495Y3332585D01*
G01X5449023Y3331976D01*
G01X5448515Y3331394D01*
G01X5447976Y3330840D01*
G01X5447410Y3330317D01*
G01X5446815Y3329827D01*
G01X5446193Y3329370D01*
G01X5445545Y3328948D01*
G01X5444877Y3328562D01*
G01X5444189Y3328214D01*
G01X5443483Y3327904D01*
G01X5442762Y3327635D01*
G01X5442025Y3327404D01*
G01X5441276Y3327213D01*
G01X5440519Y3327066D01*
G01X5439754Y3326959D01*
G01X5438987Y3326896D01*
G01X5438215Y3326875D01*
G01X5376216Y3326875D01*
G01X5375444Y3326896D01*
G01X5374677Y3326959D01*
G01X5373912Y3327066D01*
G01X5373155Y3327213D01*
G01X5372406Y3327404D01*
G01X5371669Y3327635D01*
G01X5370948Y3327904D01*
G01X5370242Y3328214D01*
G01X5369554Y3328562D01*
G01X5368886Y3328948D01*
G01X5368238Y3329370D01*
G01X5367616Y3329827D01*
G01X5367021Y3330317D01*
G01X5366455Y3330840D01*
G01X5365916Y3331394D01*
G01X5365408Y3331976D01*
G01X5364936Y3332585D01*
G01X5364497Y3333218D01*
G01X5364090Y3333876D01*
G01X5363724Y3334554D01*
G01X5363394Y3335252D01*
G01X5363105Y3335966D01*
G01X5362853Y3336698D01*
G01X5362645Y3337439D01*
G01X5362475Y3338191D01*
G01X5362348Y3338953D01*
G01X5362264Y3339720D01*
G01X5362221Y3340490D01*
G01X5362221Y3341262D01*
G01X5362264Y3342032D01*
G01X5362348Y3342799D01*
G01X5362475Y3343561D01*
G01X5362645Y3344313D01*
G01X5362853Y3345054D01*
G01X5363105Y3345786D01*
G01X5363394Y3346500D01*
G01X5363724Y3347198D01*
G01X5364090Y3347876D01*
G01X5364497Y3348534D01*
G01X5364936Y3349167D01*
G01X5365408Y3349776D01*
G01X5365916Y3350358D01*
G01X5366455Y3350912D01*
G01X5367021Y3351435D01*
G01X5367616Y3351925D01*
G01X5368238Y3352382D01*
G01X5368886Y3352804D01*
G01X5369554Y3353190D01*
G01X5370242Y3353538D01*
G01X5370948Y3353848D01*
G01X5371669Y3354117D01*
G01X5372406Y3354348D01*
G01X5373155Y3354539D01*
G01X5373912Y3354686D01*
G01X5374677Y3354793D01*
G37*
G36*
G01X4874678Y3304755D02*
G01X4875445Y3304818D01*
G01X4876217Y3304838D01*
G01X4938216Y3304838D01*
G01X4938988Y3304818D01*
G01X4939755Y3304755D01*
G01X4940520Y3304648D01*
G01X4941277Y3304501D01*
G01X4942026Y3304310D01*
G01X4942763Y3304079D01*
G01X4943484Y3303810D01*
G01X4944190Y3303500D01*
G01X4944878Y3303152D01*
G01X4945546Y3302766D01*
G01X4946194Y3302344D01*
G01X4946816Y3301887D01*
G01X4947411Y3301397D01*
G01X4947977Y3300874D01*
G01X4948516Y3300320D01*
G01X4949024Y3299738D01*
G01X4949496Y3299129D01*
G01X4949935Y3298496D01*
G01X4950342Y3297838D01*
G01X4950708Y3297160D01*
G01X4951038Y3296462D01*
G01X4951327Y3295748D01*
G01X4951579Y3295016D01*
G01X4951787Y3294275D01*
G01X4951957Y3293523D01*
G01X4952084Y3292761D01*
G01X4952168Y3291994D01*
G01X4952211Y3291224D01*
G01X4952211Y3290452D01*
G01X4952168Y3289682D01*
G01X4952084Y3288915D01*
G01X4951957Y3288153D01*
G01X4951787Y3287401D01*
G01X4951579Y3286660D01*
G01X4951327Y3285928D01*
G01X4951038Y3285214D01*
G01X4950708Y3284516D01*
G01X4950342Y3283838D01*
G01X4949935Y3283180D01*
G01X4949496Y3282547D01*
G01X4949024Y3281938D01*
G01X4948516Y3281356D01*
G01X4947977Y3280802D01*
G01X4947411Y3280279D01*
G01X4946816Y3279789D01*
G01X4946194Y3279332D01*
G01X4945546Y3278910D01*
G01X4944878Y3278524D01*
G01X4944190Y3278176D01*
G01X4943484Y3277866D01*
G01X4942763Y3277597D01*
G01X4942026Y3277366D01*
G01X4941277Y3277175D01*
G01X4940520Y3277028D01*
G01X4939755Y3276921D01*
G01X4938988Y3276858D01*
G01X4938216Y3276837D01*
G01X4876217Y3276837D01*
G01X4875445Y3276858D01*
G01X4874678Y3276921D01*
G01X4873913Y3277028D01*
G01X4873156Y3277175D01*
G01X4872407Y3277366D01*
G01X4871670Y3277597D01*
G01X4870949Y3277866D01*
G01X4870243Y3278176D01*
G01X4869555Y3278524D01*
G01X4868887Y3278910D01*
G01X4868239Y3279332D01*
G01X4867617Y3279789D01*
G01X4867022Y3280279D01*
G01X4866456Y3280802D01*
G01X4865917Y3281356D01*
G01X4865409Y3281938D01*
G01X4864937Y3282547D01*
G01X4864498Y3283180D01*
G01X4864091Y3283838D01*
G01X4863725Y3284516D01*
G01X4863395Y3285214D01*
G01X4863106Y3285928D01*
G01X4862854Y3286660D01*
G01X4862646Y3287401D01*
G01X4862476Y3288153D01*
G01X4862349Y3288915D01*
G01X4862265Y3289682D01*
G01X4862222Y3290452D01*
G01X4862222Y3291224D01*
G01X4862265Y3291994D01*
G01X4862349Y3292761D01*
G01X4862476Y3293523D01*
G01X4862646Y3294275D01*
G01X4862854Y3295016D01*
G01X4863106Y3295748D01*
G01X4863395Y3296462D01*
G01X4863725Y3297160D01*
G01X4864091Y3297838D01*
G01X4864498Y3298496D01*
G01X4864937Y3299129D01*
G01X4865409Y3299738D01*
G01X4865917Y3300320D01*
G01X4866456Y3300874D01*
G01X4867022Y3301397D01*
G01X4867617Y3301887D01*
G01X4868239Y3302344D01*
G01X4868887Y3302766D01*
G01X4869555Y3303152D01*
G01X4870243Y3303500D01*
G01X4870949Y3303810D01*
G01X4871670Y3304079D01*
G01X4872407Y3304310D01*
G01X4873156Y3304501D01*
G01X4873913Y3304648D01*
G01X4874678Y3304755D01*
G37*
G36*
G01X5438987Y3304818D02*
G01X5439754Y3304755D01*
G01X5440519Y3304648D01*
G01X5441276Y3304501D01*
G01X5442025Y3304310D01*
G01X5442762Y3304079D01*
G01X5443483Y3303810D01*
G01X5444189Y3303500D01*
G01X5444877Y3303152D01*
G01X5445545Y3302766D01*
G01X5446193Y3302344D01*
G01X5446815Y3301887D01*
G01X5447410Y3301397D01*
G01X5447976Y3300874D01*
G01X5448515Y3300320D01*
G01X5449023Y3299738D01*
G01X5449495Y3299129D01*
G01X5449934Y3298496D01*
G01X5450341Y3297838D01*
G01X5450707Y3297160D01*
G01X5451037Y3296462D01*
G01X5451326Y3295748D01*
G01X5451578Y3295016D01*
G01X5451786Y3294275D01*
G01X5451956Y3293523D01*
G01X5452083Y3292761D01*
G01X5452167Y3291994D01*
G01X5452210Y3291224D01*
G01X5452210Y3290452D01*
G01X5452167Y3289682D01*
G01X5452083Y3288915D01*
G01X5451956Y3288153D01*
G01X5451786Y3287401D01*
G01X5451578Y3286660D01*
G01X5451326Y3285928D01*
G01X5451037Y3285214D01*
G01X5450707Y3284516D01*
G01X5450341Y3283838D01*
G01X5449934Y3283180D01*
G01X5449495Y3282547D01*
G01X5449023Y3281938D01*
G01X5448515Y3281356D01*
G01X5447976Y3280802D01*
G01X5447410Y3280279D01*
G01X5446815Y3279789D01*
G01X5446193Y3279332D01*
G01X5445545Y3278910D01*
G01X5444877Y3278524D01*
G01X5444189Y3278176D01*
G01X5443483Y3277866D01*
G01X5442762Y3277597D01*
G01X5442025Y3277366D01*
G01X5441276Y3277175D01*
G01X5440519Y3277028D01*
G01X5439754Y3276921D01*
G01X5438987Y3276858D01*
G01X5438215Y3276837D01*
G01X5376216Y3276837D01*
G01X5375444Y3276858D01*
G01X5374677Y3276921D01*
G01X5373912Y3277028D01*
G01X5373155Y3277175D01*
G01X5372406Y3277366D01*
G01X5371669Y3277597D01*
G01X5370948Y3277866D01*
G01X5370242Y3278176D01*
G01X5369554Y3278524D01*
G01X5368886Y3278910D01*
G01X5368238Y3279332D01*
G01X5367616Y3279789D01*
G01X5367021Y3280279D01*
G01X5366455Y3280802D01*
G01X5365916Y3281356D01*
G01X5365408Y3281938D01*
G01X5364936Y3282547D01*
G01X5364497Y3283180D01*
G01X5364090Y3283838D01*
G01X5363724Y3284516D01*
G01X5363394Y3285214D01*
G01X5363105Y3285928D01*
G01X5362853Y3286660D01*
G01X5362645Y3287401D01*
G01X5362475Y3288153D01*
G01X5362348Y3288915D01*
G01X5362264Y3289682D01*
G01X5362221Y3290452D01*
G01X5362221Y3291224D01*
G01X5362264Y3291994D01*
G01X5362348Y3292761D01*
G01X5362475Y3293523D01*
G01X5362645Y3294275D01*
G01X5362853Y3295016D01*
G01X5363105Y3295748D01*
G01X5363394Y3296462D01*
G01X5363724Y3297160D01*
G01X5364090Y3297838D01*
G01X5364497Y3298496D01*
G01X5364936Y3299129D01*
G01X5365408Y3299738D01*
G01X5365916Y3300320D01*
G01X5366455Y3300874D01*
G01X5367021Y3301397D01*
G01X5367616Y3301887D01*
G01X5368238Y3302344D01*
G01X5368886Y3302766D01*
G01X5369554Y3303152D01*
G01X5370242Y3303500D01*
G01X5370948Y3303810D01*
G01X5371669Y3304079D01*
G01X5372406Y3304310D01*
G01X5373155Y3304501D01*
G01X5373912Y3304648D01*
G01X5374677Y3304755D01*
G01X5375444Y3304818D01*
G01X5376216Y3304838D01*
G01X5438215Y3304838D01*
G01X5438987Y3304818D01*
G37*
G36*
G01X4874678Y3254717D02*
G01X4875445Y3254780D01*
G01X4876217Y3254800D01*
G01X4938216Y3254800D01*
G01X4938988Y3254780D01*
G01X4939755Y3254717D01*
G01X4940520Y3254610D01*
G01X4941277Y3254463D01*
G01X4942026Y3254272D01*
G01X4942763Y3254041D01*
G01X4943484Y3253772D01*
G01X4944190Y3253462D01*
G01X4944878Y3253114D01*
G01X4945546Y3252728D01*
G01X4946194Y3252306D01*
G01X4946816Y3251849D01*
G01X4947411Y3251359D01*
G01X4947977Y3250836D01*
G01X4948516Y3250282D01*
G01X4949024Y3249700D01*
G01X4949496Y3249091D01*
G01X4949935Y3248458D01*
G01X4950342Y3247800D01*
G01X4950708Y3247122D01*
G01X4951038Y3246424D01*
G01X4951327Y3245710D01*
G01X4951579Y3244978D01*
G01X4951787Y3244237D01*
G01X4951957Y3243485D01*
G01X4952084Y3242723D01*
G01X4952168Y3241956D01*
G01X4952211Y3241186D01*
G01X4952211Y3240414D01*
G01X4952168Y3239644D01*
G01X4952084Y3238877D01*
G01X4951957Y3238115D01*
G01X4951787Y3237363D01*
G01X4951579Y3236622D01*
G01X4951327Y3235890D01*
G01X4951038Y3235176D01*
G01X4950708Y3234478D01*
G01X4950342Y3233800D01*
G01X4949935Y3233142D01*
G01X4949496Y3232509D01*
G01X4949024Y3231900D01*
G01X4948516Y3231318D01*
G01X4947977Y3230764D01*
G01X4947411Y3230241D01*
G01X4946816Y3229751D01*
G01X4946194Y3229294D01*
G01X4945546Y3228872D01*
G01X4944878Y3228486D01*
G01X4944190Y3228138D01*
G01X4943484Y3227828D01*
G01X4942763Y3227559D01*
G01X4942026Y3227328D01*
G01X4941277Y3227137D01*
G01X4940520Y3226990D01*
G01X4939755Y3226883D01*
G01X4938988Y3226820D01*
G01X4938216Y3226799D01*
G01X4876217Y3226799D01*
G01X4875445Y3226820D01*
G01X4874678Y3226883D01*
G01X4873913Y3226990D01*
G01X4873156Y3227137D01*
G01X4872407Y3227328D01*
G01X4871670Y3227559D01*
G01X4870949Y3227828D01*
G01X4870243Y3228138D01*
G01X4869555Y3228486D01*
G01X4868887Y3228872D01*
G01X4868239Y3229294D01*
G01X4867617Y3229751D01*
G01X4867022Y3230241D01*
G01X4866456Y3230764D01*
G01X4865917Y3231318D01*
G01X4865409Y3231900D01*
G01X4864937Y3232509D01*
G01X4864498Y3233142D01*
G01X4864091Y3233800D01*
G01X4863725Y3234478D01*
G01X4863395Y3235176D01*
G01X4863106Y3235890D01*
G01X4862854Y3236622D01*
G01X4862646Y3237363D01*
G01X4862476Y3238115D01*
G01X4862349Y3238877D01*
G01X4862265Y3239644D01*
G01X4862222Y3240414D01*
G01X4862222Y3241186D01*
G01X4862265Y3241956D01*
G01X4862349Y3242723D01*
G01X4862476Y3243485D01*
G01X4862646Y3244237D01*
G01X4862854Y3244978D01*
G01X4863106Y3245710D01*
G01X4863395Y3246424D01*
G01X4863725Y3247122D01*
G01X4864091Y3247800D01*
G01X4864498Y3248458D01*
G01X4864937Y3249091D01*
G01X4865409Y3249700D01*
G01X4865917Y3250282D01*
G01X4866456Y3250836D01*
G01X4867022Y3251359D01*
G01X4867617Y3251849D01*
G01X4868239Y3252306D01*
G01X4868887Y3252728D01*
G01X4869555Y3253114D01*
G01X4870243Y3253462D01*
G01X4870949Y3253772D01*
G01X4871670Y3254041D01*
G01X4872407Y3254272D01*
G01X4873156Y3254463D01*
G01X4873913Y3254610D01*
G01X4874678Y3254717D01*
G37*
G36*
G01X5438987Y3254780D02*
G01X5439754Y3254717D01*
G01X5440519Y3254610D01*
G01X5441276Y3254463D01*
G01X5442025Y3254272D01*
G01X5442762Y3254041D01*
G01X5443483Y3253772D01*
G01X5444189Y3253462D01*
G01X5444877Y3253114D01*
G01X5445545Y3252728D01*
G01X5446193Y3252306D01*
G01X5446815Y3251849D01*
G01X5447410Y3251359D01*
G01X5447976Y3250836D01*
G01X5448515Y3250282D01*
G01X5449023Y3249700D01*
G01X5449495Y3249091D01*
G01X5449934Y3248458D01*
G01X5450341Y3247800D01*
G01X5450707Y3247122D01*
G01X5451037Y3246424D01*
G01X5451326Y3245710D01*
G01X5451578Y3244978D01*
G01X5451786Y3244237D01*
G01X5451956Y3243485D01*
G01X5452083Y3242723D01*
G01X5452167Y3241956D01*
G01X5452210Y3241186D01*
G01X5452210Y3240414D01*
G01X5452167Y3239644D01*
G01X5452083Y3238877D01*
G01X5451956Y3238115D01*
G01X5451786Y3237363D01*
G01X5451578Y3236622D01*
G01X5451326Y3235890D01*
G01X5451037Y3235176D01*
G01X5450707Y3234478D01*
G01X5450341Y3233800D01*
G01X5449934Y3233142D01*
G01X5449495Y3232509D01*
G01X5449023Y3231900D01*
G01X5448515Y3231318D01*
G01X5447976Y3230764D01*
G01X5447410Y3230241D01*
G01X5446815Y3229751D01*
G01X5446193Y3229294D01*
G01X5445545Y3228872D01*
G01X5444877Y3228486D01*
G01X5444189Y3228138D01*
G01X5443483Y3227828D01*
G01X5442762Y3227559D01*
G01X5442025Y3227328D01*
G01X5441276Y3227137D01*
G01X5440519Y3226990D01*
G01X5439754Y3226883D01*
G01X5438987Y3226820D01*
G01X5438215Y3226799D01*
G01X5376216Y3226799D01*
G01X5375444Y3226820D01*
G01X5374677Y3226883D01*
G01X5373912Y3226990D01*
G01X5373155Y3227137D01*
G01X5372406Y3227328D01*
G01X5371669Y3227559D01*
G01X5370948Y3227828D01*
G01X5370242Y3228138D01*
G01X5369554Y3228486D01*
G01X5368886Y3228872D01*
G01X5368238Y3229294D01*
G01X5367616Y3229751D01*
G01X5367021Y3230241D01*
G01X5366455Y3230764D01*
G01X5365916Y3231318D01*
G01X5365408Y3231900D01*
G01X5364936Y3232509D01*
G01X5364497Y3233142D01*
G01X5364090Y3233800D01*
G01X5363724Y3234478D01*
G01X5363394Y3235176D01*
G01X5363105Y3235890D01*
G01X5362853Y3236622D01*
G01X5362645Y3237363D01*
G01X5362475Y3238115D01*
G01X5362348Y3238877D01*
G01X5362264Y3239644D01*
G01X5362221Y3240414D01*
G01X5362221Y3241186D01*
G01X5362264Y3241956D01*
G01X5362348Y3242723D01*
G01X5362475Y3243485D01*
G01X5362645Y3244237D01*
G01X5362853Y3244978D01*
G01X5363105Y3245710D01*
G01X5363394Y3246424D01*
G01X5363724Y3247122D01*
G01X5364090Y3247800D01*
G01X5364497Y3248458D01*
G01X5364936Y3249091D01*
G01X5365408Y3249700D01*
G01X5365916Y3250282D01*
G01X5366455Y3250836D01*
G01X5367021Y3251359D01*
G01X5367616Y3251849D01*
G01X5368238Y3252306D01*
G01X5368886Y3252728D01*
G01X5369554Y3253114D01*
G01X5370242Y3253462D01*
G01X5370948Y3253772D01*
G01X5371669Y3254041D01*
G01X5372406Y3254272D01*
G01X5373155Y3254463D01*
G01X5373912Y3254610D01*
G01X5374677Y3254717D01*
G01X5375444Y3254780D01*
G01X5376216Y3254800D01*
G01X5438215Y3254800D01*
G01X5438987Y3254780D01*
G37*
G36*
G01X5156074Y3185878D02*
G01X5156844Y3185921D01*
G01X5157616Y3185921D01*
G01X5158386Y3185878D01*
G01X5159153Y3185794D01*
G01X5159915Y3185667D01*
G01X5160667Y3185497D01*
G01X5161408Y3185288D01*
G01X5162140Y3185037D01*
G01X5162854Y3184747D01*
G01X5163552Y3184417D01*
G01X5164230Y3184051D01*
G01X5164888Y3183645D01*
G01X5165521Y3183205D01*
G01X5166130Y3182733D01*
G01X5166712Y3182225D01*
G01X5167266Y3181687D01*
G01X5167789Y3181120D01*
G01X5168279Y3180526D01*
G01X5168736Y3179903D01*
G01X5169158Y3179256D01*
G01X5169544Y3178588D01*
G01X5169892Y3177899D01*
G01X5170202Y3177193D01*
G01X5170471Y3176472D01*
G01X5170702Y3175735D01*
G01X5170893Y3174986D01*
G01X5171040Y3174229D01*
G01X5171147Y3173465D01*
G01X5171210Y3172697D01*
G01X5171230Y3171925D01*
G01X5171230Y3109926D01*
G01X5171210Y3109154D01*
G01X5171147Y3108387D01*
G01X5171040Y3107623D01*
G01X5170893Y3106866D01*
G01X5170702Y3106116D01*
G01X5170471Y3105380D01*
G01X5170202Y3104659D01*
G01X5169892Y3103952D01*
G01X5169544Y3103264D01*
G01X5169158Y3102596D01*
G01X5168736Y3101948D01*
G01X5168279Y3101326D01*
G01X5167789Y3100732D01*
G01X5167266Y3100165D01*
G01X5166712Y3099627D01*
G01X5166130Y3099119D01*
G01X5165521Y3098646D01*
G01X5164888Y3098207D01*
G01X5164230Y3097801D01*
G01X5163552Y3097435D01*
G01X5162854Y3097105D01*
G01X5162140Y3096815D01*
G01X5161408Y3096564D01*
G01X5160667Y3096355D01*
G01X5159915Y3096185D01*
G01X5159153Y3096058D01*
G01X5158386Y3095974D01*
G01X5157616Y3095931D01*
G01X5156844Y3095931D01*
G01X5156074Y3095974D01*
G01X5155307Y3096058D01*
G01X5154545Y3096185D01*
G01X5153793Y3096355D01*
G01X5153052Y3096564D01*
G01X5152320Y3096815D01*
G01X5151606Y3097105D01*
G01X5150908Y3097435D01*
G01X5150230Y3097801D01*
G01X5149572Y3098207D01*
G01X5148939Y3098646D01*
G01X5148330Y3099119D01*
G01X5147748Y3099627D01*
G01X5147194Y3100165D01*
G01X5146671Y3100732D01*
G01X5146181Y3101326D01*
G01X5145724Y3101948D01*
G01X5145302Y3102596D01*
G01X5144916Y3103264D01*
G01X5144568Y3103952D01*
G01X5144258Y3104659D01*
G01X5143989Y3105380D01*
G01X5143758Y3106116D01*
G01X5143567Y3106866D01*
G01X5143420Y3107623D01*
G01X5143313Y3108387D01*
G01X5143250Y3109154D01*
G01X5143229Y3109926D01*
G01X5143229Y3171925D01*
G01X5143250Y3172697D01*
G01X5143313Y3173465D01*
G01X5143420Y3174229D01*
G01X5143567Y3174986D01*
G01X5143758Y3175735D01*
G01X5143989Y3176472D01*
G01X5144258Y3177193D01*
G01X5144568Y3177899D01*
G01X5144916Y3178588D01*
G01X5145302Y3179256D01*
G01X5145724Y3179903D01*
G01X5146181Y3180526D01*
G01X5146671Y3181120D01*
G01X5147194Y3181687D01*
G01X5147748Y3182225D01*
G01X5148330Y3182733D01*
G01X5148939Y3183205D01*
G01X5149572Y3183645D01*
G01X5150230Y3184051D01*
G01X5150908Y3184417D01*
G01X5151606Y3184747D01*
G01X5152320Y3185037D01*
G01X5153052Y3185288D01*
G01X5153793Y3185497D01*
G01X5154545Y3185667D01*
G01X5155307Y3185794D01*
G01X5156074Y3185878D01*
G37*
G36*
G01X5055998Y3185878D02*
G01X5056768Y3185921D01*
G01X5057540Y3185921D01*
G01X5058310Y3185878D01*
G01X5059077Y3185794D01*
G01X5059839Y3185667D01*
G01X5060591Y3185497D01*
G01X5061332Y3185288D01*
G01X5062064Y3185037D01*
G01X5062778Y3184747D01*
G01X5063476Y3184417D01*
G01X5064154Y3184051D01*
G01X5064812Y3183645D01*
G01X5065445Y3183205D01*
G01X5066054Y3182733D01*
G01X5066636Y3182225D01*
G01X5067190Y3181687D01*
G01X5067713Y3181120D01*
G01X5068203Y3180526D01*
G01X5068660Y3179903D01*
G01X5069082Y3179256D01*
G01X5069468Y3178588D01*
G01X5069816Y3177899D01*
G01X5070126Y3177193D01*
G01X5070395Y3176472D01*
G01X5070626Y3175735D01*
G01X5070817Y3174986D01*
G01X5070964Y3174229D01*
G01X5071071Y3173465D01*
G01X5071134Y3172697D01*
G01X5071154Y3171925D01*
G01X5071154Y3109926D01*
G01X5071134Y3109154D01*
G01X5071071Y3108387D01*
G01X5070964Y3107623D01*
G01X5070817Y3106866D01*
G01X5070626Y3106116D01*
G01X5070395Y3105380D01*
G01X5070126Y3104659D01*
G01X5069816Y3103952D01*
G01X5069468Y3103264D01*
G01X5069082Y3102596D01*
G01X5068660Y3101948D01*
G01X5068203Y3101326D01*
G01X5067713Y3100732D01*
G01X5067190Y3100165D01*
G01X5066636Y3099627D01*
G01X5066054Y3099119D01*
G01X5065445Y3098646D01*
G01X5064812Y3098207D01*
G01X5064154Y3097801D01*
G01X5063476Y3097435D01*
G01X5062778Y3097105D01*
G01X5062064Y3096815D01*
G01X5061332Y3096564D01*
G01X5060591Y3096355D01*
G01X5059839Y3096185D01*
G01X5059077Y3096058D01*
G01X5058310Y3095974D01*
G01X5057540Y3095931D01*
G01X5056768Y3095931D01*
G01X5055998Y3095974D01*
G01X5055231Y3096058D01*
G01X5054469Y3096185D01*
G01X5053717Y3096355D01*
G01X5052976Y3096564D01*
G01X5052244Y3096815D01*
G01X5051530Y3097105D01*
G01X5050832Y3097435D01*
G01X5050154Y3097801D01*
G01X5049496Y3098207D01*
G01X5048863Y3098646D01*
G01X5048254Y3099119D01*
G01X5047672Y3099627D01*
G01X5047118Y3100165D01*
G01X5046595Y3100732D01*
G01X5046105Y3101326D01*
G01X5045648Y3101948D01*
G01X5045226Y3102596D01*
G01X5044840Y3103264D01*
G01X5044492Y3103952D01*
G01X5044182Y3104659D01*
G01X5043913Y3105380D01*
G01X5043682Y3106116D01*
G01X5043491Y3106866D01*
G01X5043344Y3107623D01*
G01X5043237Y3108387D01*
G01X5043174Y3109154D01*
G01X5043153Y3109926D01*
G01X5043153Y3171925D01*
G01X5043174Y3172697D01*
G01X5043237Y3173465D01*
G01X5043344Y3174229D01*
G01X5043491Y3174986D01*
G01X5043682Y3175735D01*
G01X5043913Y3176472D01*
G01X5044182Y3177193D01*
G01X5044492Y3177899D01*
G01X5044840Y3178588D01*
G01X5045226Y3179256D01*
G01X5045648Y3179903D01*
G01X5046105Y3180526D01*
G01X5046595Y3181120D01*
G01X5047118Y3181687D01*
G01X5047672Y3182225D01*
G01X5048254Y3182733D01*
G01X5048863Y3183205D01*
G01X5049496Y3183645D01*
G01X5050154Y3184051D01*
G01X5050832Y3184417D01*
G01X5051530Y3184747D01*
G01X5052244Y3185037D01*
G01X5052976Y3185288D01*
G01X5053717Y3185497D01*
G01X5054469Y3185667D01*
G01X5055231Y3185794D01*
G01X5055998Y3185878D01*
G37*
G36*
G01X5257692Y3185921D02*
G01X5258462Y3185878D01*
G01X5259229Y3185794D01*
G01X5259991Y3185667D01*
G01X5260743Y3185497D01*
G01X5261484Y3185288D01*
G01X5262216Y3185037D01*
G01X5262930Y3184747D01*
G01X5263628Y3184417D01*
G01X5264306Y3184051D01*
G01X5264964Y3183645D01*
G01X5265597Y3183205D01*
G01X5266206Y3182733D01*
G01X5266788Y3182225D01*
G01X5267342Y3181687D01*
G01X5267865Y3181120D01*
G01X5268355Y3180526D01*
G01X5268812Y3179903D01*
G01X5269234Y3179256D01*
G01X5269620Y3178588D01*
G01X5269968Y3177899D01*
G01X5270278Y3177193D01*
G01X5270547Y3176472D01*
G01X5270778Y3175735D01*
G01X5270969Y3174986D01*
G01X5271116Y3174229D01*
G01X5271223Y3173465D01*
G01X5271286Y3172697D01*
G01X5271306Y3171925D01*
G01X5271306Y3109926D01*
G01X5271286Y3109154D01*
G01X5271223Y3108387D01*
G01X5271116Y3107623D01*
G01X5270969Y3106866D01*
G01X5270778Y3106116D01*
G01X5270547Y3105380D01*
G01X5270278Y3104659D01*
G01X5269968Y3103952D01*
G01X5269620Y3103264D01*
G01X5269234Y3102596D01*
G01X5268812Y3101948D01*
G01X5268355Y3101326D01*
G01X5267865Y3100732D01*
G01X5267342Y3100165D01*
G01X5266788Y3099627D01*
G01X5266206Y3099119D01*
G01X5265597Y3098646D01*
G01X5264964Y3098207D01*
G01X5264306Y3097801D01*
G01X5263628Y3097435D01*
G01X5262930Y3097105D01*
G01X5262216Y3096815D01*
G01X5261484Y3096564D01*
G01X5260743Y3096355D01*
G01X5259991Y3096185D01*
G01X5259229Y3096058D01*
G01X5258462Y3095974D01*
G01X5257692Y3095931D01*
G01X5256920Y3095931D01*
G01X5256150Y3095974D01*
G01X5255383Y3096058D01*
G01X5254621Y3096185D01*
G01X5253869Y3096355D01*
G01X5253128Y3096564D01*
G01X5252396Y3096815D01*
G01X5251682Y3097105D01*
G01X5250984Y3097435D01*
G01X5250306Y3097801D01*
G01X5249648Y3098207D01*
G01X5249015Y3098646D01*
G01X5248406Y3099119D01*
G01X5247824Y3099627D01*
G01X5247270Y3100165D01*
G01X5246747Y3100732D01*
G01X5246257Y3101326D01*
G01X5245800Y3101948D01*
G01X5245378Y3102596D01*
G01X5244992Y3103264D01*
G01X5244644Y3103952D01*
G01X5244334Y3104659D01*
G01X5244065Y3105380D01*
G01X5243834Y3106116D01*
G01X5243643Y3106866D01*
G01X5243496Y3107623D01*
G01X5243389Y3108387D01*
G01X5243326Y3109154D01*
G01X5243305Y3109926D01*
G01X5243305Y3171925D01*
G01X5243326Y3172697D01*
G01X5243389Y3173465D01*
G01X5243496Y3174229D01*
G01X5243643Y3174986D01*
G01X5243834Y3175735D01*
G01X5244065Y3176472D01*
G01X5244334Y3177193D01*
G01X5244644Y3177899D01*
G01X5244992Y3178588D01*
G01X5245378Y3179256D01*
G01X5245800Y3179903D01*
G01X5246257Y3180526D01*
G01X5246747Y3181120D01*
G01X5247270Y3181687D01*
G01X5247824Y3182225D01*
G01X5248406Y3182733D01*
G01X5249015Y3183205D01*
G01X5249648Y3183645D01*
G01X5250306Y3184051D01*
G01X5250984Y3184417D01*
G01X5251682Y3184747D01*
G01X5252396Y3185037D01*
G01X5253128Y3185288D01*
G01X5253869Y3185497D01*
G01X5254621Y3185667D01*
G01X5255383Y3185794D01*
G01X5256150Y3185878D01*
G01X5256920Y3185921D01*
G01X5257692Y3185921D01*
G37*
G36*
G01X5107578Y3185921D02*
G01X5108348Y3185878D01*
G01X5109115Y3185794D01*
G01X5109877Y3185667D01*
G01X5110629Y3185497D01*
G01X5111370Y3185288D01*
G01X5112102Y3185037D01*
G01X5112816Y3184747D01*
G01X5113514Y3184417D01*
G01X5114192Y3184051D01*
G01X5114850Y3183645D01*
G01X5115483Y3183205D01*
G01X5116092Y3182733D01*
G01X5116674Y3182225D01*
G01X5117228Y3181687D01*
G01X5117751Y3181120D01*
G01X5118241Y3180526D01*
G01X5118698Y3179903D01*
G01X5119120Y3179256D01*
G01X5119506Y3178588D01*
G01X5119854Y3177899D01*
G01X5120164Y3177193D01*
G01X5120433Y3176472D01*
G01X5120664Y3175735D01*
G01X5120855Y3174986D01*
G01X5121002Y3174229D01*
G01X5121109Y3173465D01*
G01X5121172Y3172697D01*
G01X5121192Y3171925D01*
G01X5121192Y3109926D01*
G01X5121172Y3109154D01*
G01X5121109Y3108387D01*
G01X5121002Y3107623D01*
G01X5120855Y3106866D01*
G01X5120664Y3106116D01*
G01X5120433Y3105380D01*
G01X5120164Y3104659D01*
G01X5119854Y3103952D01*
G01X5119506Y3103264D01*
G01X5119120Y3102596D01*
G01X5118698Y3101948D01*
G01X5118241Y3101326D01*
G01X5117751Y3100732D01*
G01X5117228Y3100165D01*
G01X5116674Y3099627D01*
G01X5116092Y3099119D01*
G01X5115483Y3098646D01*
G01X5114850Y3098207D01*
G01X5114192Y3097801D01*
G01X5113514Y3097435D01*
G01X5112816Y3097105D01*
G01X5112102Y3096815D01*
G01X5111370Y3096564D01*
G01X5110629Y3096355D01*
G01X5109877Y3096185D01*
G01X5109115Y3096058D01*
G01X5108348Y3095974D01*
G01X5107578Y3095931D01*
G01X5106806Y3095931D01*
G01X5106036Y3095974D01*
G01X5105269Y3096058D01*
G01X5104507Y3096185D01*
G01X5103755Y3096355D01*
G01X5103014Y3096564D01*
G01X5102282Y3096815D01*
G01X5101568Y3097105D01*
G01X5100870Y3097435D01*
G01X5100192Y3097801D01*
G01X5099534Y3098207D01*
G01X5098901Y3098646D01*
G01X5098292Y3099119D01*
G01X5097710Y3099627D01*
G01X5097156Y3100165D01*
G01X5096633Y3100732D01*
G01X5096143Y3101326D01*
G01X5095686Y3101948D01*
G01X5095264Y3102596D01*
G01X5094878Y3103264D01*
G01X5094530Y3103952D01*
G01X5094220Y3104659D01*
G01X5093951Y3105380D01*
G01X5093720Y3106116D01*
G01X5093529Y3106866D01*
G01X5093382Y3107623D01*
G01X5093275Y3108387D01*
G01X5093212Y3109154D01*
G01X5093191Y3109926D01*
G01X5093191Y3171925D01*
G01X5093212Y3172697D01*
G01X5093275Y3173465D01*
G01X5093382Y3174229D01*
G01X5093529Y3174986D01*
G01X5093720Y3175735D01*
G01X5093951Y3176472D01*
G01X5094220Y3177193D01*
G01X5094530Y3177899D01*
G01X5094878Y3178588D01*
G01X5095264Y3179256D01*
G01X5095686Y3179903D01*
G01X5096143Y3180526D01*
G01X5096633Y3181120D01*
G01X5097156Y3181687D01*
G01X5097710Y3182225D01*
G01X5098292Y3182733D01*
G01X5098901Y3183205D01*
G01X5099534Y3183645D01*
G01X5100192Y3184051D01*
G01X5100870Y3184417D01*
G01X5101568Y3184747D01*
G01X5102282Y3185037D01*
G01X5103014Y3185288D01*
G01X5103755Y3185497D01*
G01X5104507Y3185667D01*
G01X5105269Y3185794D01*
G01X5106036Y3185878D01*
G01X5106806Y3185921D01*
G01X5107578Y3185921D01*
G37*
G36*
G01X5007502Y3185921D02*
G01X5008272Y3185878D01*
G01X5009039Y3185794D01*
G01X5009801Y3185667D01*
G01X5010553Y3185497D01*
G01X5011294Y3185288D01*
G01X5012026Y3185037D01*
G01X5012740Y3184747D01*
G01X5013438Y3184417D01*
G01X5014116Y3184051D01*
G01X5014774Y3183645D01*
G01X5015407Y3183205D01*
G01X5016016Y3182733D01*
G01X5016598Y3182225D01*
G01X5017152Y3181687D01*
G01X5017675Y3181120D01*
G01X5018165Y3180526D01*
G01X5018622Y3179903D01*
G01X5019044Y3179256D01*
G01X5019430Y3178588D01*
G01X5019778Y3177899D01*
G01X5020088Y3177193D01*
G01X5020357Y3176472D01*
G01X5020588Y3175735D01*
G01X5020779Y3174986D01*
G01X5020926Y3174229D01*
G01X5021033Y3173465D01*
G01X5021096Y3172697D01*
G01X5021116Y3171925D01*
G01X5021116Y3109926D01*
G01X5021096Y3109154D01*
G01X5021033Y3108387D01*
G01X5020926Y3107623D01*
G01X5020779Y3106866D01*
G01X5020588Y3106116D01*
G01X5020357Y3105380D01*
G01X5020088Y3104659D01*
G01X5019778Y3103952D01*
G01X5019430Y3103264D01*
G01X5019044Y3102596D01*
G01X5018622Y3101948D01*
G01X5018165Y3101326D01*
G01X5017675Y3100732D01*
G01X5017152Y3100165D01*
G01X5016598Y3099627D01*
G01X5016016Y3099119D01*
G01X5015407Y3098646D01*
G01X5014774Y3098207D01*
G01X5014116Y3097801D01*
G01X5013438Y3097435D01*
G01X5012740Y3097105D01*
G01X5012026Y3096815D01*
G01X5011294Y3096564D01*
G01X5010553Y3096355D01*
G01X5009801Y3096185D01*
G01X5009039Y3096058D01*
G01X5008272Y3095974D01*
G01X5007502Y3095931D01*
G01X5006730Y3095931D01*
G01X5005960Y3095974D01*
G01X5005193Y3096058D01*
G01X5004431Y3096185D01*
G01X5003679Y3096355D01*
G01X5002938Y3096564D01*
G01X5002206Y3096815D01*
G01X5001492Y3097105D01*
G01X5000794Y3097435D01*
G01X5000116Y3097801D01*
G01X4999458Y3098207D01*
G01X4998825Y3098646D01*
G01X4998216Y3099119D01*
G01X4997634Y3099627D01*
G01X4997080Y3100165D01*
G01X4996557Y3100732D01*
G01X4996067Y3101326D01*
G01X4995610Y3101948D01*
G01X4995188Y3102596D01*
G01X4994802Y3103264D01*
G01X4994454Y3103952D01*
G01X4994144Y3104659D01*
G01X4993875Y3105380D01*
G01X4993644Y3106116D01*
G01X4993453Y3106866D01*
G01X4993306Y3107623D01*
G01X4993199Y3108387D01*
G01X4993136Y3109154D01*
G01X4993115Y3109926D01*
G01X4993115Y3171925D01*
G01X4993136Y3172697D01*
G01X4993199Y3173465D01*
G01X4993306Y3174229D01*
G01X4993453Y3174986D01*
G01X4993644Y3175735D01*
G01X4993875Y3176472D01*
G01X4994144Y3177193D01*
G01X4994454Y3177899D01*
G01X4994802Y3178588D01*
G01X4995188Y3179256D01*
G01X4995610Y3179903D01*
G01X4996067Y3180526D01*
G01X4996557Y3181120D01*
G01X4997080Y3181687D01*
G01X4997634Y3182225D01*
G01X4998216Y3182733D01*
G01X4998825Y3183205D01*
G01X4999458Y3183645D01*
G01X5000116Y3184051D01*
G01X5000794Y3184417D01*
G01X5001492Y3184747D01*
G01X5002206Y3185037D01*
G01X5002938Y3185288D01*
G01X5003679Y3185497D01*
G01X5004431Y3185667D01*
G01X5005193Y3185794D01*
G01X5005960Y3185878D01*
G01X5006730Y3185921D01*
G01X5007502Y3185921D01*
G37*
G36*
G01X5307730Y3185921D02*
G01X5308500Y3185878D01*
G01X5309267Y3185794D01*
G01X5310029Y3185667D01*
G01X5310781Y3185497D01*
G01X5311522Y3185288D01*
G01X5312254Y3185037D01*
G01X5312968Y3184747D01*
G01X5313666Y3184417D01*
G01X5314344Y3184051D01*
G01X5315002Y3183645D01*
G01X5315635Y3183205D01*
G01X5316244Y3182733D01*
G01X5316826Y3182225D01*
G01X5317380Y3181687D01*
G01X5317903Y3181120D01*
G01X5318393Y3180526D01*
G01X5318850Y3179903D01*
G01X5319272Y3179256D01*
G01X5319658Y3178588D01*
G01X5320006Y3177899D01*
G01X5320316Y3177193D01*
G01X5320585Y3176472D01*
G01X5320816Y3175735D01*
G01X5321007Y3174986D01*
G01X5321154Y3174229D01*
G01X5321261Y3173465D01*
G01X5321324Y3172697D01*
G01X5321344Y3171925D01*
G01X5321344Y3109926D01*
G01X5321324Y3109154D01*
G01X5321261Y3108387D01*
G01X5321154Y3107623D01*
G01X5321007Y3106866D01*
G01X5320816Y3106116D01*
G01X5320585Y3105380D01*
G01X5320316Y3104659D01*
G01X5320006Y3103952D01*
G01X5319658Y3103264D01*
G01X5319272Y3102596D01*
G01X5318850Y3101948D01*
G01X5318393Y3101326D01*
G01X5317903Y3100732D01*
G01X5317380Y3100165D01*
G01X5316826Y3099627D01*
G01X5316244Y3099119D01*
G01X5315635Y3098646D01*
G01X5315002Y3098207D01*
G01X5314344Y3097801D01*
G01X5313666Y3097435D01*
G01X5312968Y3097105D01*
G01X5312254Y3096815D01*
G01X5311522Y3096564D01*
G01X5310781Y3096355D01*
G01X5310029Y3096185D01*
G01X5309267Y3096058D01*
G01X5308500Y3095974D01*
G01X5307730Y3095931D01*
G01X5306958Y3095931D01*
G01X5306188Y3095974D01*
G01X5305421Y3096058D01*
G01X5304659Y3096185D01*
G01X5303907Y3096355D01*
G01X5303166Y3096564D01*
G01X5302434Y3096815D01*
G01X5301720Y3097105D01*
G01X5301022Y3097435D01*
G01X5300344Y3097801D01*
G01X5299686Y3098207D01*
G01X5299053Y3098646D01*
G01X5298444Y3099119D01*
G01X5297862Y3099627D01*
G01X5297308Y3100165D01*
G01X5296785Y3100732D01*
G01X5296295Y3101326D01*
G01X5295838Y3101948D01*
G01X5295416Y3102596D01*
G01X5295030Y3103264D01*
G01X5294682Y3103952D01*
G01X5294372Y3104659D01*
G01X5294103Y3105380D01*
G01X5293872Y3106116D01*
G01X5293681Y3106866D01*
G01X5293534Y3107623D01*
G01X5293427Y3108387D01*
G01X5293364Y3109154D01*
G01X5293343Y3109926D01*
G01X5293343Y3171925D01*
G01X5293364Y3172697D01*
G01X5293427Y3173465D01*
G01X5293534Y3174229D01*
G01X5293681Y3174986D01*
G01X5293872Y3175735D01*
G01X5294103Y3176472D01*
G01X5294372Y3177193D01*
G01X5294682Y3177899D01*
G01X5295030Y3178588D01*
G01X5295416Y3179256D01*
G01X5295838Y3179903D01*
G01X5296295Y3180526D01*
G01X5296785Y3181120D01*
G01X5297308Y3181687D01*
G01X5297862Y3182225D01*
G01X5298444Y3182733D01*
G01X5299053Y3183205D01*
G01X5299686Y3183645D01*
G01X5300344Y3184051D01*
G01X5301022Y3184417D01*
G01X5301720Y3184747D01*
G01X5302434Y3185037D01*
G01X5303166Y3185288D01*
G01X5303907Y3185497D01*
G01X5304659Y3185667D01*
G01X5305421Y3185794D01*
G01X5306188Y3185878D01*
G01X5306958Y3185921D01*
G01X5307730Y3185921D01*
G37*
G36*
G01X5206112Y3185878D02*
G01X5206882Y3185921D01*
G01X5207654Y3185921D01*
G01X5208424Y3185878D01*
G01X5209191Y3185794D01*
G01X5209953Y3185667D01*
G01X5210705Y3185497D01*
G01X5211446Y3185288D01*
G01X5212178Y3185037D01*
G01X5212892Y3184747D01*
G01X5213590Y3184417D01*
G01X5214268Y3184051D01*
G01X5214926Y3183645D01*
G01X5215559Y3183205D01*
G01X5216168Y3182733D01*
G01X5216750Y3182225D01*
G01X5217304Y3181687D01*
G01X5217827Y3181120D01*
G01X5218317Y3180526D01*
G01X5218774Y3179903D01*
G01X5219196Y3179256D01*
G01X5219582Y3178588D01*
G01X5219930Y3177899D01*
G01X5220240Y3177193D01*
G01X5220509Y3176472D01*
G01X5220740Y3175735D01*
G01X5220931Y3174986D01*
G01X5221078Y3174229D01*
G01X5221185Y3173465D01*
G01X5221248Y3172697D01*
G01X5221268Y3171925D01*
G01X5221268Y3109926D01*
G01X5221248Y3109154D01*
G01X5221185Y3108387D01*
G01X5221078Y3107623D01*
G01X5220931Y3106866D01*
G01X5220740Y3106116D01*
G01X5220509Y3105380D01*
G01X5220240Y3104659D01*
G01X5219930Y3103952D01*
G01X5219582Y3103264D01*
G01X5219196Y3102596D01*
G01X5218774Y3101948D01*
G01X5218317Y3101326D01*
G01X5217827Y3100732D01*
G01X5217304Y3100165D01*
G01X5216750Y3099627D01*
G01X5216168Y3099119D01*
G01X5215559Y3098646D01*
G01X5214926Y3098207D01*
G01X5214268Y3097801D01*
G01X5213590Y3097435D01*
G01X5212892Y3097105D01*
G01X5212178Y3096815D01*
G01X5211446Y3096564D01*
G01X5210705Y3096355D01*
G01X5209953Y3096185D01*
G01X5209191Y3096058D01*
G01X5208424Y3095974D01*
G01X5207654Y3095931D01*
G01X5206882Y3095931D01*
G01X5206112Y3095974D01*
G01X5205345Y3096058D01*
G01X5204583Y3096185D01*
G01X5203831Y3096355D01*
G01X5203090Y3096564D01*
G01X5202358Y3096815D01*
G01X5201644Y3097105D01*
G01X5200946Y3097435D01*
G01X5200268Y3097801D01*
G01X5199610Y3098207D01*
G01X5198977Y3098646D01*
G01X5198368Y3099119D01*
G01X5197786Y3099627D01*
G01X5197232Y3100165D01*
G01X5196709Y3100732D01*
G01X5196219Y3101326D01*
G01X5195762Y3101948D01*
G01X5195340Y3102596D01*
G01X5194954Y3103264D01*
G01X5194606Y3103952D01*
G01X5194296Y3104659D01*
G01X5194027Y3105380D01*
G01X5193796Y3106116D01*
G01X5193605Y3106866D01*
G01X5193458Y3107623D01*
G01X5193351Y3108387D01*
G01X5193288Y3109154D01*
G01X5193267Y3109926D01*
G01X5193267Y3171925D01*
G01X5193288Y3172697D01*
G01X5193351Y3173465D01*
G01X5193458Y3174229D01*
G01X5193605Y3174986D01*
G01X5193796Y3175735D01*
G01X5194027Y3176472D01*
G01X5194296Y3177193D01*
G01X5194606Y3177899D01*
G01X5194954Y3178588D01*
G01X5195340Y3179256D01*
G01X5195762Y3179903D01*
G01X5196219Y3180526D01*
G01X5196709Y3181120D01*
G01X5197232Y3181687D01*
G01X5197786Y3182225D01*
G01X5198368Y3182733D01*
G01X5198977Y3183205D01*
G01X5199610Y3183645D01*
G01X5200268Y3184051D01*
G01X5200946Y3184417D01*
G01X5201644Y3184747D01*
G01X5202358Y3185037D01*
G01X5203090Y3185288D01*
G01X5203831Y3185497D01*
G01X5204583Y3185667D01*
G01X5205345Y3185794D01*
G01X5206112Y3185878D01*
G37*
G36*
G01X5297237Y3250919D02*
G01X5297237Y3530921D01*
G01X5017235Y3530921D01*
G01X5017235Y3250919D01*
G01X5297237Y3250919D01*
G37*
G36*
G01X4541398Y3702599D02*
G01X4621398Y3702599D01*
G01X4626399Y3697597D01*
G01X4626399Y3674801D01*
G01X4589399Y3674801D01*
G01X4589399Y3641801D01*
G01X4626399Y3641801D01*
G01X4626399Y3617598D01*
G01X4621398Y3612599D01*
G01X4541398Y3612599D01*
G01X4536399Y3617598D01*
G01X4536399Y3697597D01*
G01X4541398Y3702599D01*
G37*
G36*
G01X4780402Y3612601D02*
G01X4700402Y3612601D01*
G01X4695401Y3617603D01*
G01X4695401Y3640399D01*
G01X4732401Y3640399D01*
G01X4732401Y3673399D01*
G01X4695401Y3673399D01*
G01X4695401Y3697602D01*
G01X4700402Y3702601D01*
G01X4780402Y3702601D01*
G01X4785401Y3697602D01*
G01X4785401Y3617603D01*
G01X4780402Y3612601D01*
G37*
G36*
G01X4780402Y3777701D02*
G01X4700402Y3777701D01*
G01X4695401Y3782703D01*
G01X4695401Y3805499D01*
G01X4732401Y3805499D01*
G01X4732401Y3838499D01*
G01X4695401Y3838499D01*
G01X4695401Y3862702D01*
G01X4700402Y3867701D01*
G01X4780402Y3867701D01*
G01X4785401Y3862702D01*
G01X4785401Y3782703D01*
G01X4780402Y3777701D01*
G37*
G36*
G01X4541398Y3867699D02*
G01X4621398Y3867699D01*
G01X4626399Y3862697D01*
G01X4626399Y3839901D01*
G01X4589399Y3839901D01*
G01X4589399Y3806901D01*
G01X4626399Y3806901D01*
G01X4626399Y3782698D01*
G01X4621398Y3777699D01*
G01X4541398Y3777699D01*
G01X4536399Y3782698D01*
G01X4536399Y3862697D01*
G01X4541398Y3867699D01*
G37*
G36*
G01X5085202Y3777701D02*
G01X5005202Y3777701D01*
G01X5000201Y3782703D01*
G01X5000201Y3805499D01*
G01X5037201Y3805499D01*
G01X5037201Y3838499D01*
G01X5000201Y3838499D01*
G01X5000201Y3862702D01*
G01X5005202Y3867701D01*
G01X5085202Y3867701D01*
G01X5090201Y3862702D01*
G01X5090201Y3782703D01*
G01X5085202Y3777701D01*
G37*
G36*
G01X4846198Y3867699D02*
G01X4926198Y3867699D01*
G01X4931199Y3862697D01*
G01X4931199Y3839901D01*
G01X4894199Y3839901D01*
G01X4894199Y3806901D01*
G01X4931199Y3806901D01*
G01X4931199Y3782698D01*
G01X4926198Y3777699D01*
G01X4846198Y3777699D01*
G01X4841199Y3782698D01*
G01X4841199Y3862697D01*
G01X4846198Y3867699D01*
G37*
G36*
G01X4780402Y3942801D02*
G01X4700402Y3942801D01*
G01X4695401Y3947803D01*
G01X4695401Y3970599D01*
G01X4732401Y3970599D01*
G01X4732401Y4003599D01*
G01X4695401Y4003599D01*
G01X4695401Y4027802D01*
G01X4700402Y4032801D01*
G01X4780402Y4032801D01*
G01X4785401Y4027802D01*
G01X4785401Y3947803D01*
G01X4780402Y3942801D01*
G37*
G36*
G01X4541398Y4032799D02*
G01X4621398Y4032799D01*
G01X4626399Y4027797D01*
G01X4626399Y4005001D01*
G01X4589399Y4005001D01*
G01X4589399Y3972001D01*
G01X4626399Y3972001D01*
G01X4626399Y3947798D01*
G01X4621398Y3942799D01*
G01X4541398Y3942799D01*
G01X4536399Y3947798D01*
G01X4536399Y4027797D01*
G01X4541398Y4032799D01*
G37*
G36*
G01X5353599Y3015102D02*
G01X5353599Y2935102D01*
G01X5348597Y2930101D01*
G01X5325801Y2930101D01*
G01X5325801Y2967101D01*
G01X5292801Y2967101D01*
G01X5292801Y2930101D01*
G01X5268598Y2930101D01*
G01X5263599Y2935102D01*
G01X5263599Y3015102D01*
G01X5268598Y3020101D01*
G01X5348597Y3020101D01*
G01X5353599Y3015102D01*
G37*
G36*
G01X5263601Y2776098D02*
G01X5263601Y2856098D01*
G01X5268603Y2861099D01*
G01X5291399Y2861099D01*
G01X5291399Y2824099D01*
G01X5324399Y2824099D01*
G01X5324399Y2861099D01*
G01X5348602Y2861099D01*
G01X5353601Y2856098D01*
G01X5353601Y2776098D01*
G01X5348602Y2771099D01*
G01X5268603Y2771099D01*
G01X5263601Y2776098D01*
G37*
G36*
G01X5201199Y3015102D02*
G01X5201199Y2935102D01*
G01X5196197Y2930101D01*
G01X5173401Y2930101D01*
G01X5173401Y2967101D01*
G01X5140401Y2967101D01*
G01X5140401Y2930101D01*
G01X5116198Y2930101D01*
G01X5111199Y2935102D01*
G01X5111199Y3015102D01*
G01X5116198Y3020101D01*
G01X5196197Y3020101D01*
G01X5201199Y3015102D01*
G37*
G36*
G01X5111201Y2776098D02*
G01X5111201Y2856098D01*
G01X5116203Y2861099D01*
G01X5138999Y2861099D01*
G01X5138999Y2824099D01*
G01X5171999Y2824099D01*
G01X5171999Y2861099D01*
G01X5196202Y2861099D01*
G01X5201201Y2856098D01*
G01X5201201Y2776098D01*
G01X5196202Y2771099D01*
G01X5116203Y2771099D01*
G01X5111201Y2776098D01*
G37*
G36*
G01X5048799Y3015102D02*
G01X5048799Y2935102D01*
G01X5043797Y2930101D01*
G01X5021001Y2930101D01*
G01X5021001Y2967101D01*
G01X4988001Y2967101D01*
G01X4988001Y2930101D01*
G01X4963798Y2930101D01*
G01X4958799Y2935102D01*
G01X4958799Y3015102D01*
G01X4963798Y3020101D01*
G01X5043797Y3020101D01*
G01X5048799Y3015102D01*
G37*
G36*
G01X4958801Y2776098D02*
G01X4958801Y2856098D01*
G01X4963803Y2861099D01*
G01X4986599Y2861099D01*
G01X4986599Y2824099D01*
G01X5019599Y2824099D01*
G01X5019599Y2861099D01*
G01X5043802Y2861099D01*
G01X5048801Y2856098D01*
G01X5048801Y2776098D01*
G01X5043802Y2771099D01*
G01X4963803Y2771099D01*
G01X4958801Y2776098D01*
G37*
G36*
G01X4896399Y3015102D02*
G01X4896399Y2935102D01*
G01X4891397Y2930101D01*
G01X4868601Y2930101D01*
G01X4868601Y2967101D01*
G01X4835601Y2967101D01*
G01X4835601Y2930101D01*
G01X4811398Y2930101D01*
G01X4806399Y2935102D01*
G01X4806399Y3015102D01*
G01X4811398Y3020101D01*
G01X4891397Y3020101D01*
G01X4896399Y3015102D01*
G37*
G36*
G01X4806401Y2776098D02*
G01X4806401Y2856098D01*
G01X4811403Y2861099D01*
G01X4834199Y2861099D01*
G01X4834199Y2824099D01*
G01X4867199Y2824099D01*
G01X4867199Y2861099D01*
G01X4891402Y2861099D01*
G01X4896401Y2856098D01*
G01X4896401Y2776098D01*
G01X4891402Y2771099D01*
G01X4811403Y2771099D01*
G01X4806401Y2776098D01*
G37*
G36*
G01X4743999Y3015102D02*
G01X4743999Y2935102D01*
G01X4738997Y2930101D01*
G01X4716201Y2930101D01*
G01X4716201Y2967101D01*
G01X4683201Y2967101D01*
G01X4683201Y2930101D01*
G01X4658998Y2930101D01*
G01X4653999Y2935102D01*
G01X4653999Y3015102D01*
G01X4658998Y3020101D01*
G01X4738997Y3020101D01*
G01X4743999Y3015102D01*
G37*
G36*
G01X4654001Y2776098D02*
G01X4654001Y2856098D01*
G01X4659003Y2861099D01*
G01X4681799Y2861099D01*
G01X4681799Y2824099D01*
G01X4714799Y2824099D01*
G01X4714799Y2861099D01*
G01X4739002Y2861099D01*
G01X4744001Y2856098D01*
G01X4744001Y2776098D01*
G01X4739002Y2771099D01*
G01X4659003Y2771099D01*
G01X4654001Y2776098D01*
G37*
G36*
G01X5544698Y3372399D02*
G01X5624698Y3372399D01*
G01X5629699Y3367397D01*
G01X5629699Y3344601D01*
G01X5592699Y3344601D01*
G01X5592699Y3311601D01*
G01X5629699Y3311601D01*
G01X5629699Y3287398D01*
G01X5624698Y3282399D01*
G01X5544698Y3282399D01*
G01X5539699Y3287398D01*
G01X5539699Y3367397D01*
G01X5544698Y3372399D01*
G37*
G36*
G01X5783702Y3282401D02*
G01X5703702Y3282401D01*
G01X5698701Y3287403D01*
G01X5698701Y3310199D01*
G01X5735701Y3310199D01*
G01X5735701Y3343199D01*
G01X5698701Y3343199D01*
G01X5698701Y3367402D01*
G01X5703702Y3372401D01*
G01X5783702Y3372401D01*
G01X5788701Y3367402D01*
G01X5788701Y3287403D01*
G01X5783702Y3282401D01*
G37*

G04 Pad Start*
G54D10*
G01X7133387Y3604806D03*
G01X7033387Y3604806D03*
G01X6933387Y3604806D03*
G01X6833387Y3604806D03*
G01X6733388Y3604806D03*
G01X6633388Y3604806D03*
G54D11*
G01X6393409Y3354794D03*
G01X7373391Y3354946D03*
G54D12*
G01X6137002Y4506598D03*
G54D13*
G01X7380001Y3951608D03*
G01X7180002Y3951608D03*
G01X6980002Y3951608D03*
G01X6780003Y3951608D03*
G01X6580003Y3951608D03*
G01X6380003Y3951608D03*
G54D12*
G01X7623003Y4506598D03*
G54D14*
G01X5588000Y3028798D03*
G01X5588000Y3168802D03*
G54D16*
G01X4730902Y3327400D03*
G01X4590898Y3327400D03*
G01X4730902Y3149600D03*
G01X4590898Y3149600D03*
G04 Pad End*

M02*

