G04 Layer: InnerLayer2*
G04 EasyEDA Pro v2.2.36.5, 2025-02-22 11:45:42*
G04 Gerber Generator version 0.3*
G04 Scale: 100 percent, Rotated: No, Reflected: No*
G04 Dimensions in millimeters*
G04 Leading zeros omitted, absolute positions, 4 integers and 5 decimals*
%FSLAX45Y45*%
%MOMM*%
%ADD10C,0.254*%
%ADD11C,0.80508*%
%ADD12C,2.0*%
%ADD13C,0.6*%
%ADD14C,0.13*%
G75*

G54D10*

G04 Copper Start*
G01X1137300Y3000000D02*
G01X1137300Y2775354D01*
G01X877079Y2775354D01*
G03X757146Y2730500I-51579J-44854D01*
G03X877079Y2685646I68354J0D01*
G01X1137300Y2685646D01*
G01X1137300Y1300000D01*
G03X1300000Y1137300I162700J0D01*
G01X5111346Y1137300D01*
G01X5111346Y859298D01*
G03X5156200Y739365I44854J-51579D01*
G03X5201054Y859298I0J68354D01*
G01X5201054Y1137300D01*
G01X8700000Y1137300D01*
G03X8862700Y1300000I0J162700D01*
G01X8862700Y2685646D01*
G01X9143221Y2685646D01*
G03X9263154Y2730500I51579J44854D01*
G03X9143221Y2775354I-68354J0D01*
G01X8862700Y2775354D01*
G01X8862700Y3000000D01*
G01X9887300Y3000000D01*
G01X9887300Y512700D01*
G01X9700000Y512700D01*
G03X9487300Y300000I0J-212700D01*
G01X9487300Y112700D01*
G01X512700Y112700D01*
G01X512700Y300000D01*
G03X300000Y512700I-212700J0D01*
G01X112700Y512700D01*
G01X112700Y3000000D01*
G01X1137300Y3000000D01*
G01X276002Y512700D02*
G01X276002Y3000000D01*
G01X530402Y112700D02*
G01X530402Y3000000D01*
G01X784802Y112700D02*
G01X784802Y2675582D01*
G01X784802Y2785418D02*
G01X784802Y3000000D01*
G01X1039202Y112700D02*
G01X1039202Y2685646D01*
G01X1039202Y2775354D02*
G01X1039202Y3000000D01*
G01X1293602Y112700D02*
G01X1293602Y1137426D01*
G01X1548002Y112700D02*
G01X1548002Y1137300D01*
G01X1802402Y112700D02*
G01X1802402Y1137300D01*
G01X2056802Y112700D02*
G01X2056802Y1137300D01*
G01X2311202Y112700D02*
G01X2311202Y1137300D01*
G01X2565602Y112700D02*
G01X2565602Y1137300D01*
G01X2820002Y112700D02*
G01X2820002Y1137300D01*
G01X3074403Y112700D02*
G01X3074403Y1137300D01*
G01X3328803Y112700D02*
G01X3328803Y1137300D01*
G01X3583203Y112700D02*
G01X3583203Y1137300D01*
G01X3837603Y112700D02*
G01X3837603Y1137300D01*
G01X4092003Y112700D02*
G01X4092003Y1137300D01*
G01X4346403Y112700D02*
G01X4346403Y1137300D01*
G01X4600803Y112700D02*
G01X4600803Y1137300D01*
G01X4855203Y112700D02*
G01X4855203Y1137300D01*
G01X5109603Y112700D02*
G01X5109603Y757709D01*
G01X5109603Y857729D02*
G01X5109603Y1137300D01*
G01X5364003Y112700D02*
G01X5364003Y1137300D01*
G01X5618403Y112700D02*
G01X5618403Y1137300D01*
G01X5872803Y112700D02*
G01X5872803Y1137300D01*
G01X6127203Y112700D02*
G01X6127203Y1137300D01*
G01X6381603Y112700D02*
G01X6381603Y1137300D01*
G01X6636003Y112700D02*
G01X6636003Y1137300D01*
G01X6890403Y112700D02*
G01X6890403Y1137300D01*
G01X7144803Y112700D02*
G01X7144803Y1137300D01*
G01X7399203Y112700D02*
G01X7399203Y1137300D01*
G01X7653603Y112700D02*
G01X7653603Y1137300D01*
G01X7908003Y112700D02*
G01X7908003Y1137300D01*
G01X8162404Y112700D02*
G01X8162404Y1137300D01*
G01X8416804Y112700D02*
G01X8416804Y1137300D01*
G01X8671204Y112700D02*
G01X8671204Y1137300D01*
G01X8925604Y112700D02*
G01X8925604Y2685646D01*
G01X8925604Y2775354D02*
G01X8925604Y3000000D01*
G01X9180004Y112700D02*
G01X9180004Y2663767D01*
G01X9180004Y2797233D02*
G01X9180004Y3000000D01*
G01X9434404Y112700D02*
G01X9434404Y3000000D01*
G01X9688804Y512405D02*
G01X9688804Y3000000D01*
G01X512700Y205601D02*
G01X9487300Y205601D01*
G01X440146Y460001D02*
G01X9559854Y460001D01*
G01X112700Y714401D02*
G01X9887300Y714401D01*
G01X112700Y968801D02*
G01X5111346Y968801D01*
G01X5201054Y968801D02*
G01X9887300Y968801D01*
G01X112700Y1223202D02*
G01X1156566Y1223202D01*
G01X8843434Y1223202D02*
G01X9887300Y1223202D01*
G01X112700Y1477602D02*
G01X1137300Y1477602D01*
G01X8862700Y1477602D02*
G01X9887300Y1477602D01*
G01X112700Y1732002D02*
G01X1137300Y1732002D01*
G01X8862700Y1732002D02*
G01X9887300Y1732002D01*
G01X112700Y1986402D02*
G01X1137300Y1986402D01*
G01X8862700Y1986402D02*
G01X9887300Y1986402D01*
G01X112700Y2240802D02*
G01X1137300Y2240802D01*
G01X8862700Y2240802D02*
G01X9887300Y2240802D01*
G01X112700Y2495202D02*
G01X1137300Y2495202D01*
G01X8862700Y2495202D02*
G01X9887300Y2495202D01*
G01X112700Y2749602D02*
G01X759869Y2749602D01*
G01X9260431Y2749602D02*
G01X9887300Y2749602D01*
G01X4285846Y5142721D02*
G01X4285846Y4862700D01*
G01X1300000Y4862700D01*
G03X1137300Y4700000I0J-162700D01*
G01X1137300Y3000000D01*
G01X112700Y3000000D01*
G01X112700Y5481700D01*
G01X300000Y5481700D01*
G03X512700Y5694400I0J212700D01*
G01X512700Y5887300D01*
G01X9487300Y5887300D01*
G01X9487300Y5700000D01*
G03X9700000Y5487300I212700J0D01*
G01X9887300Y5487300D01*
G01X9887300Y3000000D01*
G01X8862700Y3000000D01*
G01X8862700Y4700000D01*
G03X8700000Y4862700I-162700J0D01*
G01X4375554Y4862700D01*
G01X4375554Y5142721D01*
G03X4330700Y5262654I-44854J51579D01*
G03X4285846Y5142721I0J-68354D01*
G01X276002Y3000000D02*
G01X276002Y5481700D01*
G01X530402Y3000000D02*
G01X530402Y5887300D01*
G01X784802Y3000000D02*
G01X784802Y5887300D01*
G01X1039202Y3000000D02*
G01X1039202Y5887300D01*
G01X1293602Y4862574D02*
G01X1293602Y5887300D01*
G01X1548002Y4862700D02*
G01X1548002Y5887300D01*
G01X1802402Y4862700D02*
G01X1802402Y5887300D01*
G01X2056802Y4862700D02*
G01X2056802Y5887300D01*
G01X2311202Y4862700D02*
G01X2311202Y5887300D01*
G01X2565602Y4862700D02*
G01X2565602Y5887300D01*
G01X2820002Y4862700D02*
G01X2820002Y5887300D01*
G01X3074403Y4862700D02*
G01X3074403Y5887300D01*
G01X3328803Y4862700D02*
G01X3328803Y5887300D01*
G01X3583203Y4862700D02*
G01X3583203Y5887300D01*
G01X3837603Y4862700D02*
G01X3837603Y5887300D01*
G01X4092003Y4862700D02*
G01X4092003Y5887300D01*
G01X4346403Y5260826D02*
G01X4346403Y5887300D01*
G01X4600803Y4862700D02*
G01X4600803Y5887300D01*
G01X4855203Y4862700D02*
G01X4855203Y5887300D01*
G01X5109603Y4862700D02*
G01X5109603Y5887300D01*
G01X5364003Y4862700D02*
G01X5364003Y5887300D01*
G01X5618403Y4862700D02*
G01X5618403Y5887300D01*
G01X5872803Y4862700D02*
G01X5872803Y5887300D01*
G01X6127203Y4862700D02*
G01X6127203Y5887300D01*
G01X6381603Y4862700D02*
G01X6381603Y5887300D01*
G01X6636003Y4862700D02*
G01X6636003Y5887300D01*
G01X6890403Y4862700D02*
G01X6890403Y5887300D01*
G01X7144803Y4862700D02*
G01X7144803Y5887300D01*
G01X7399203Y4862700D02*
G01X7399203Y5887300D01*
G01X7653603Y4862700D02*
G01X7653603Y5887300D01*
G01X7908003Y4862700D02*
G01X7908003Y5887300D01*
G01X8162404Y4862700D02*
G01X8162404Y5887300D01*
G01X8416804Y4862700D02*
G01X8416804Y5887300D01*
G01X8671204Y4862700D02*
G01X8671204Y5887300D01*
G01X8925604Y3000000D02*
G01X8925604Y5887300D01*
G01X9180004Y3000000D02*
G01X9180004Y5887300D01*
G01X9434404Y3000000D02*
G01X9434404Y5887300D01*
G01X9688804Y3000000D02*
G01X9688804Y5487595D01*
G01X112700Y3004002D02*
G01X1137300Y3004002D01*
G01X8862700Y3004002D02*
G01X9887300Y3004002D01*
G01X112700Y3258402D02*
G01X1137300Y3258402D01*
G01X8862700Y3258402D02*
G01X9887300Y3258402D01*
G01X112700Y3512802D02*
G01X1137300Y3512802D01*
G01X8862700Y3512802D02*
G01X9887300Y3512802D01*
G01X112700Y3767202D02*
G01X1137300Y3767202D01*
G01X8862700Y3767202D02*
G01X9887300Y3767202D01*
G01X112700Y4021602D02*
G01X1137300Y4021602D01*
G01X8862700Y4021602D02*
G01X9887300Y4021602D01*
G01X112700Y4276002D02*
G01X1137300Y4276002D01*
G01X8862700Y4276002D02*
G01X9887300Y4276002D01*
G01X112700Y4530402D02*
G01X1137300Y4530402D01*
G01X8862700Y4530402D02*
G01X9887300Y4530402D01*
G01X112700Y4784802D02*
G01X1161148Y4784802D01*
G01X8838852Y4784802D02*
G01X9887300Y4784802D01*
G01X112700Y5039202D02*
G01X4285846Y5039202D01*
G01X4375554Y5039202D02*
G01X9887300Y5039202D01*
G01X112700Y5293602D02*
G01X9887300Y5293602D01*
G01X454302Y5548002D02*
G01X9551212Y5548002D01*
G01X512700Y5802402D02*
G01X9487300Y5802402D01*
G01X1162700Y1300000D02*
G01X1162700Y2685646D01*
G01X4799821Y2685646D01*
G03X4919754Y2730500I51579J44854D01*
G03X4799821Y2775354I-68354J0D01*
G01X4574262Y2775354D01*
G03X4503745Y2862188I-65762J18646D01*
G01X4375554Y2990379D01*
G01X4375554Y4837300D01*
G01X8700000Y4837300D01*
G02X8837300Y4700000I0J-137300D01*
G01X8837300Y2775354D01*
G01X5512579Y2775354D01*
G03X5392646Y2730500I-51579J-44854D01*
G03X5512579Y2685646I68354J0D01*
G01X8837300Y2685646D01*
G01X8837300Y1300000D01*
G02X8700000Y1162700I-137300J0D01*
G01X5201054Y1162700D01*
G01X5201054Y2678921D01*
G03X5156200Y2798854I-44854J51579D01*
G03X5111346Y2678921I0J-68354D01*
G01X5111346Y1162700D01*
G01X1300000Y1162700D01*
G02X1162700Y1300000I0J137300D01*
G01X4931646Y2424809D02*
G03X5068354Y2424809I68354J0D01*
G03X4931646Y2424809I-68354J0D01*
G01X1166413Y1268285D02*
G01X1166413Y2685646D01*
G01X1261813Y1168117D02*
G01X1261813Y2685646D01*
G01X1357213Y1162700D02*
G01X1357213Y2685646D01*
G01X1452614Y1162700D02*
G01X1452614Y2685646D01*
G01X1548014Y1162700D02*
G01X1548014Y2685646D01*
G01X1643414Y1162700D02*
G01X1643414Y2685646D01*
G01X1738814Y1162700D02*
G01X1738814Y2685646D01*
G01X1834214Y1162700D02*
G01X1834214Y2685646D01*
G01X1929614Y1162700D02*
G01X1929614Y2685646D01*
G01X2025014Y1162700D02*
G01X2025014Y2685646D01*
G01X2120414Y1162700D02*
G01X2120414Y2685646D01*
G01X2215814Y1162700D02*
G01X2215814Y2685646D01*
G01X2311215Y1162700D02*
G01X2311215Y2685646D01*
G01X2406615Y1162700D02*
G01X2406615Y2685646D01*
G01X2502015Y1162700D02*
G01X2502015Y2685646D01*
G01X2597415Y1162700D02*
G01X2597415Y2685646D01*
G01X2692815Y1162700D02*
G01X2692815Y2685646D01*
G01X2788215Y1162700D02*
G01X2788215Y2685646D01*
G01X2883615Y1162700D02*
G01X2883615Y2685646D01*
G01X2979015Y1162700D02*
G01X2979015Y2685646D01*
G01X3074415Y1162700D02*
G01X3074415Y2685646D01*
G01X3169816Y1162700D02*
G01X3169816Y2685646D01*
G01X3265216Y1162700D02*
G01X3265216Y2685646D01*
G01X3360616Y1162700D02*
G01X3360616Y2685646D01*
G01X3456016Y1162700D02*
G01X3456016Y2685646D01*
G01X3551416Y1162700D02*
G01X3551416Y2685646D01*
G01X3646816Y1162700D02*
G01X3646816Y2685646D01*
G01X3742216Y1162700D02*
G01X3742216Y2685646D01*
G01X3837616Y1162700D02*
G01X3837616Y2685646D01*
G01X3933017Y1162700D02*
G01X3933017Y2685646D01*
G01X4028417Y1162700D02*
G01X4028417Y2685646D01*
G01X4123817Y1162700D02*
G01X4123817Y2685646D01*
G01X4219217Y1162700D02*
G01X4219217Y2685646D01*
G01X4314617Y1162700D02*
G01X4314617Y2685646D01*
G01X4410017Y1162700D02*
G01X4410017Y2685646D01*
G01X4410017Y2955916D02*
G01X4410017Y4837300D01*
G01X4505417Y1162700D02*
G01X4505417Y2685646D01*
G01X4505417Y2862284D02*
G01X4505417Y4837300D01*
G01X4600817Y1162700D02*
G01X4600817Y2685646D01*
G01X4600817Y2775354D02*
G01X4600817Y4837300D01*
G01X4696217Y1162700D02*
G01X4696217Y2685646D01*
G01X4696217Y2775354D02*
G01X4696217Y4837300D01*
G01X4791618Y1162700D02*
G01X4791618Y2685646D01*
G01X4791618Y2775354D02*
G01X4791618Y4837300D01*
G01X4887018Y1162700D02*
G01X4887018Y2672159D01*
G01X4887018Y2788841D02*
G01X4887018Y4837300D01*
G01X4982418Y1162700D02*
G01X4982418Y2358755D01*
G01X4982418Y2490863D02*
G01X4982418Y4837300D01*
G01X5077818Y1162700D02*
G01X5077818Y4837300D01*
G01X5173218Y2796702D02*
G01X5173218Y4837300D01*
G01X5268618Y1162700D02*
G01X5268618Y4837300D01*
G01X5364018Y1162700D02*
G01X5364018Y4837300D01*
G01X5459418Y1162700D02*
G01X5459418Y2662164D01*
G01X5459418Y2798836D02*
G01X5459418Y4837300D01*
G01X5554818Y1162700D02*
G01X5554818Y2685646D01*
G01X5554818Y2775354D02*
G01X5554818Y4837300D01*
G01X5650219Y1162700D02*
G01X5650219Y2685646D01*
G01X5650219Y2775354D02*
G01X5650219Y4837300D01*
G01X5745619Y1162700D02*
G01X5745619Y2685646D01*
G01X5745619Y2775354D02*
G01X5745619Y4837300D01*
G01X5841019Y1162700D02*
G01X5841019Y2685646D01*
G01X5841019Y2775354D02*
G01X5841019Y4837300D01*
G01X5936419Y1162700D02*
G01X5936419Y2685646D01*
G01X5936419Y2775354D02*
G01X5936419Y4837300D01*
G01X6031819Y1162700D02*
G01X6031819Y2685646D01*
G01X6031819Y2775354D02*
G01X6031819Y4837300D01*
G01X6127219Y1162700D02*
G01X6127219Y2685646D01*
G01X6127219Y2775354D02*
G01X6127219Y4837300D01*
G01X6222619Y1162700D02*
G01X6222619Y2685646D01*
G01X6222619Y2775354D02*
G01X6222619Y4837300D01*
G01X6318019Y1162700D02*
G01X6318019Y2685646D01*
G01X6318019Y2775354D02*
G01X6318019Y4837300D01*
G01X6413419Y1162700D02*
G01X6413419Y2685646D01*
G01X6413419Y2775354D02*
G01X6413419Y4837300D01*
G01X6508820Y1162700D02*
G01X6508820Y2685646D01*
G01X6508820Y2775354D02*
G01X6508820Y4837300D01*
G01X6604220Y1162700D02*
G01X6604220Y2685646D01*
G01X6604220Y2775354D02*
G01X6604220Y4837300D01*
G01X6699620Y1162700D02*
G01X6699620Y2685646D01*
G01X6699620Y2775354D02*
G01X6699620Y4837300D01*
G01X6795020Y1162700D02*
G01X6795020Y2685646D01*
G01X6795020Y2775354D02*
G01X6795020Y4837300D01*
G01X6890420Y1162700D02*
G01X6890420Y2685646D01*
G01X6890420Y2775354D02*
G01X6890420Y4837300D01*
G01X6985820Y1162700D02*
G01X6985820Y2685646D01*
G01X6985820Y2775354D02*
G01X6985820Y4837300D01*
G01X7081220Y1162700D02*
G01X7081220Y2685646D01*
G01X7081220Y2775354D02*
G01X7081220Y4837300D01*
G01X7176620Y1162700D02*
G01X7176620Y2685646D01*
G01X7176620Y2775354D02*
G01X7176620Y4837300D01*
G01X7272021Y1162700D02*
G01X7272021Y2685646D01*
G01X7272021Y2775354D02*
G01X7272021Y4837300D01*
G01X7367421Y1162700D02*
G01X7367421Y2685646D01*
G01X7367421Y2775354D02*
G01X7367421Y4837300D01*
G01X7462821Y1162700D02*
G01X7462821Y2685646D01*
G01X7462821Y2775354D02*
G01X7462821Y4837300D01*
G01X7558221Y1162700D02*
G01X7558221Y2685646D01*
G01X7558221Y2775354D02*
G01X7558221Y4837300D01*
G01X7653621Y1162700D02*
G01X7653621Y2685646D01*
G01X7653621Y2775354D02*
G01X7653621Y4837300D01*
G01X7749021Y1162700D02*
G01X7749021Y2685646D01*
G01X7749021Y2775354D02*
G01X7749021Y4837300D01*
G01X7844421Y1162700D02*
G01X7844421Y2685646D01*
G01X7844421Y2775354D02*
G01X7844421Y4837300D01*
G01X7939821Y1162700D02*
G01X7939821Y2685646D01*
G01X7939821Y2775354D02*
G01X7939821Y4837300D01*
G01X8035221Y1162700D02*
G01X8035221Y2685646D01*
G01X8035221Y2775354D02*
G01X8035221Y4837300D01*
G01X8130622Y1162700D02*
G01X8130622Y2685646D01*
G01X8130622Y2775354D02*
G01X8130622Y4837300D01*
G01X8226022Y1162700D02*
G01X8226022Y2685646D01*
G01X8226022Y2775354D02*
G01X8226022Y4837300D01*
G01X8321422Y1162700D02*
G01X8321422Y2685646D01*
G01X8321422Y2775354D02*
G01X8321422Y4837300D01*
G01X8416822Y1162700D02*
G01X8416822Y2685646D01*
G01X8416822Y2775354D02*
G01X8416822Y4837300D01*
G01X8512222Y1162700D02*
G01X8512222Y2685646D01*
G01X8512222Y2775354D02*
G01X8512222Y4837300D01*
G01X8607622Y1162700D02*
G01X8607622Y2685646D01*
G01X8607622Y2775354D02*
G01X8607622Y4837300D01*
G01X8703022Y1162733D02*
G01X8703022Y2685646D01*
G01X8703022Y2775354D02*
G01X8703022Y4837267D01*
G01X8798422Y1204269D02*
G01X8798422Y2685646D01*
G01X8798422Y2775354D02*
G01X8798422Y4795731D01*
G01X1170281Y1255009D02*
G01X5111346Y1255009D01*
G01X5201054Y1255009D02*
G01X8829719Y1255009D01*
G01X1162700Y1350409D02*
G01X5111346Y1350409D01*
G01X5201054Y1350409D02*
G01X8837300Y1350409D01*
G01X1162700Y1445809D02*
G01X5111346Y1445809D01*
G01X5201054Y1445809D02*
G01X8837300Y1445809D01*
G01X1162700Y1541209D02*
G01X5111346Y1541209D01*
G01X5201054Y1541209D02*
G01X8837300Y1541209D01*
G01X1162700Y1636609D02*
G01X5111346Y1636609D01*
G01X5201054Y1636609D02*
G01X8837300Y1636609D01*
G01X1162700Y1732009D02*
G01X5111346Y1732009D01*
G01X5201054Y1732009D02*
G01X8837300Y1732009D01*
G01X1162700Y1827409D02*
G01X5111346Y1827409D01*
G01X5201054Y1827409D02*
G01X8837300Y1827409D01*
G01X1162700Y1922809D02*
G01X5111346Y1922809D01*
G01X5201054Y1922809D02*
G01X8837300Y1922809D01*
G01X1162700Y2018210D02*
G01X5111346Y2018210D01*
G01X5201054Y2018210D02*
G01X8837300Y2018210D01*
G01X1162700Y2113610D02*
G01X5111346Y2113610D01*
G01X5201054Y2113610D02*
G01X8837300Y2113610D01*
G01X1162700Y2209010D02*
G01X5111346Y2209010D01*
G01X5201054Y2209010D02*
G01X8837300Y2209010D01*
G01X1162700Y2304410D02*
G01X5111346Y2304410D01*
G01X5201054Y2304410D02*
G01X8837300Y2304410D01*
G01X1162700Y2399810D02*
G01X4936381Y2399810D01*
G01X5063619Y2399810D02*
G01X5111346Y2399810D01*
G01X5201054Y2399810D02*
G01X8837300Y2399810D01*
G01X1162700Y2495210D02*
G01X5111346Y2495210D01*
G01X5201054Y2495210D02*
G01X8837300Y2495210D01*
G01X1162700Y2590610D02*
G01X5111346Y2590610D01*
G01X5201054Y2590610D02*
G01X8837300Y2590610D01*
G01X4903293Y2686010D02*
G01X5104307Y2686010D01*
G01X5208093Y2686010D02*
G01X5409107Y2686010D01*
G01X4575685Y2781410D02*
G01X4805789Y2781410D01*
G01X4897011Y2781410D02*
G01X5110589Y2781410D01*
G01X5201811Y2781410D02*
G01X5415389Y2781410D01*
G01X5506611Y2781410D02*
G01X8837300Y2781410D01*
G01X4489123Y2876811D02*
G01X8837300Y2876811D01*
G01X4393722Y2972211D02*
G01X8837300Y2972211D01*
G01X4375554Y3067611D02*
G01X8837300Y3067611D01*
G01X4375554Y3163011D02*
G01X8837300Y3163011D01*
G01X4375554Y3258411D02*
G01X8837300Y3258411D01*
G01X4375554Y3353811D02*
G01X8837300Y3353811D01*
G01X4375554Y3449211D02*
G01X8837300Y3449211D01*
G01X4375554Y3544611D02*
G01X8837300Y3544611D01*
G01X4375554Y3640012D02*
G01X8837300Y3640012D01*
G01X4375554Y3735412D02*
G01X8837300Y3735412D01*
G01X4375554Y3830812D02*
G01X8837300Y3830812D01*
G01X4375554Y3926212D02*
G01X8837300Y3926212D01*
G01X4375554Y4021612D02*
G01X8837300Y4021612D01*
G01X4375554Y4117012D02*
G01X8837300Y4117012D01*
G01X4375554Y4212412D02*
G01X8837300Y4212412D01*
G01X4375554Y4307812D02*
G01X8837300Y4307812D01*
G01X4375554Y4403212D02*
G01X8837300Y4403212D01*
G01X4375554Y4498613D02*
G01X8837300Y4498613D01*
G01X4375554Y4594013D02*
G01X8837300Y4594013D01*
G01X4375554Y4689413D02*
G01X8837300Y4689413D01*
G01X4375554Y4784813D02*
G01X8807973Y4784813D01*
G01X4442738Y2775354D02*
G01X1162700Y2775354D01*
G01X1162700Y4700000D01*
G02X1300000Y4837300I137300J0D01*
G01X4285846Y4837300D01*
G01X4285846Y2971800D01*
G03X4298983Y2940083I44854J0D01*
G01X4440312Y2798755D01*
G03X4442738Y2775354I68188J-4755D01*
G01X1166413Y2775354D02*
G01X1166413Y4731715D01*
G01X1261813Y2775354D02*
G01X1261813Y4831883D01*
G01X1357213Y2775354D02*
G01X1357213Y4837300D01*
G01X1452614Y2775354D02*
G01X1452614Y4837300D01*
G01X1548014Y2775354D02*
G01X1548014Y4837300D01*
G01X1643414Y2775354D02*
G01X1643414Y4837300D01*
G01X1738814Y2775354D02*
G01X1738814Y4837300D01*
G01X1834214Y2775354D02*
G01X1834214Y4837300D01*
G01X1929614Y2775354D02*
G01X1929614Y4837300D01*
G01X2025014Y2775354D02*
G01X2025014Y4837300D01*
G01X2120414Y2775354D02*
G01X2120414Y4837300D01*
G01X2215814Y2775354D02*
G01X2215814Y4837300D01*
G01X2311215Y2775354D02*
G01X2311215Y4837300D01*
G01X2406615Y2775354D02*
G01X2406615Y4837300D01*
G01X2502015Y2775354D02*
G01X2502015Y4837300D01*
G01X2597415Y2775354D02*
G01X2597415Y4837300D01*
G01X2692815Y2775354D02*
G01X2692815Y4837300D01*
G01X2788215Y2775354D02*
G01X2788215Y4837300D01*
G01X2883615Y2775354D02*
G01X2883615Y4837300D01*
G01X2979015Y2775354D02*
G01X2979015Y4837300D01*
G01X3074415Y2775354D02*
G01X3074415Y4837300D01*
G01X3169816Y2775354D02*
G01X3169816Y4837300D01*
G01X3265216Y2775354D02*
G01X3265216Y4837300D01*
G01X3360616Y2775354D02*
G01X3360616Y4837300D01*
G01X3456016Y2775354D02*
G01X3456016Y4837300D01*
G01X3551416Y2775354D02*
G01X3551416Y4837300D01*
G01X3646816Y2775354D02*
G01X3646816Y4837300D01*
G01X3742216Y2775354D02*
G01X3742216Y4837300D01*
G01X3837616Y2775354D02*
G01X3837616Y4837300D01*
G01X3933017Y2775354D02*
G01X3933017Y4837300D01*
G01X4028417Y2775354D02*
G01X4028417Y4837300D01*
G01X4123817Y2775354D02*
G01X4123817Y4837300D01*
G01X4219217Y2775354D02*
G01X4219217Y4837300D01*
G01X4314617Y2775354D02*
G01X4314617Y2924450D01*
G01X4410017Y2775354D02*
G01X4410017Y2829050D01*
G01X1162700Y2781410D02*
G01X4441315Y2781410D01*
G01X1162700Y2876811D02*
G01X4362256Y2876811D01*
G01X1162700Y2972211D02*
G01X4285846Y2972211D01*
G01X1162700Y3067611D02*
G01X4285846Y3067611D01*
G01X1162700Y3163011D02*
G01X4285846Y3163011D01*
G01X1162700Y3258411D02*
G01X4285846Y3258411D01*
G01X1162700Y3353811D02*
G01X4285846Y3353811D01*
G01X1162700Y3449211D02*
G01X4285846Y3449211D01*
G01X1162700Y3544611D02*
G01X4285846Y3544611D01*
G01X1162700Y3640012D02*
G01X4285846Y3640012D01*
G01X1162700Y3735412D02*
G01X4285846Y3735412D01*
G01X1162700Y3830812D02*
G01X4285846Y3830812D01*
G01X1162700Y3926212D02*
G01X4285846Y3926212D01*
G01X1162700Y4021612D02*
G01X4285846Y4021612D01*
G01X1162700Y4117012D02*
G01X4285846Y4117012D01*
G01X1162700Y4212412D02*
G01X4285846Y4212412D01*
G01X1162700Y4307812D02*
G01X4285846Y4307812D01*
G01X1162700Y4403212D02*
G01X4285846Y4403212D01*
G01X1162700Y4498613D02*
G01X4285846Y4498613D01*
G01X1162700Y4594013D02*
G01X4285846Y4594013D01*
G01X1162700Y4689413D02*
G01X4285846Y4689413D01*
G01X1192027Y4784813D02*
G01X4285846Y4784813D01*
G04 Copper End*

G04 Circle Start*
G54D11*
G01X5936000Y3161000D03*
G04 Circle End*

G04 Pad Start*
G54D12*
G01X300000Y5700000D03*
G01X9700000Y5700000D03*
G01X9700000Y300000D03*
G01X300000Y300000D03*
G04 Pad End*

G04 Via Start*
G54D13*
G01X825500Y2730500D03*
G01X4508500Y2794000D03*
G01X4851400Y2730500D03*
G01X5000000Y2424809D03*
G01X5156200Y2730500D03*
G01X5461000Y2730500D03*
G01X5936000Y3161000D03*
G01X9194800Y2730500D03*
G01X4330700Y5194300D03*
G01X5156200Y807719D03*
G04 Via End*

G04 Track Start*
G54D14*
G01X825500Y2730500D02*
G01X4851400Y2730500D01*
G01X5156200Y2730500D02*
G01X5156200Y807719D01*
G01X5461000Y2730500D02*
G01X9194800Y2730500D01*
G01X4508500Y2794000D02*
G01X4330700Y2971800D01*
G01X4330700Y5194300D01*
G04 Track End*

M02*

