G04 Layer: TopSilkscreenLayer*
G04 EasyEDA Pro v2.2.36.5, 2025-02-22 11:45:42*
G04 Gerber Generator version 0.3*
G04 Scale: 100 percent, Rotated: No, Reflected: No*
G04 Dimensions in millimeters*
G04 Leading zeros omitted, absolute positions, 4 integers and 5 decimals*
%FSLAX45Y45*%
%MOMM*%
%ADD10C,0.4*%
%ADD11C,0.254*%
G75*


G04 Image Start*
G36*
G01X5300502Y1741759D02*
G01X5132519Y1741181D01*
G01X4964537Y1740603D01*
G01X4950224Y1742360D01*
G01X4935910Y1744116D01*
G01X4918554Y1748669D01*
G01X4901198Y1753222D01*
G01X4883896Y1760608D01*
G01X4866593Y1767995D01*
G01X4854127Y1775534D01*
G01X4841661Y1783073D01*
G01X4829995Y1791706D01*
G01X4818330Y1800338D01*
G01X4801998Y1816875D01*
G01X4785667Y1833412D01*
G01X4775206Y1848150D01*
G01X4764746Y1862889D01*
G01X4755475Y1881552D01*
G01X4746205Y1900216D01*
G01X4736730Y1928992D01*
G01X4733383Y1944932D01*
G01X4730036Y1960872D01*
G01X4729076Y1984325D01*
G01X4728117Y2007779D01*
G01X4690788Y2041729D01*
G01X4652543Y2079842D01*
G01X4614299Y2117956D01*
G01X4598683Y2135064D01*
G01X4583067Y2152172D01*
G01X4567204Y2170058D01*
G01X4551342Y2187944D01*
G01X4527571Y2217495D01*
G01X4503801Y2247045D01*
G01X4490634Y2264931D01*
G01X4477466Y2282817D01*
G01X4464851Y2301480D01*
G01X4452235Y2320144D01*
G01X4437249Y2345028D01*
G01X4422264Y2369913D01*
G01X4410121Y2394798D01*
G01X4397977Y2419682D01*
G01X4385058Y2451601D01*
G01X4371957Y2490854D01*
G01X4358856Y2530107D01*
G01X4343056Y2585198D01*
G01X4333864Y2622197D01*
G01X4324671Y2659196D01*
G01X4316631Y2697301D01*
G01X4308591Y2735405D01*
G01X4298703Y2780509D01*
G01X4288816Y2825612D01*
G01X4283308Y2845831D01*
G01X4277800Y2866050D01*
G01X4268519Y2891712D01*
G01X4259237Y2917374D01*
G01X4256869Y2928752D01*
G01X4254500Y2940129D01*
G01X4254500Y2967143D01*
G01X4342380Y2967143D01*
G01X4342699Y2943814D01*
G01X4349098Y2928028D01*
G01X4355496Y2912242D01*
G01X4369808Y2864494D01*
G01X4375150Y2842466D01*
G01X4380493Y2820437D01*
G01X4393742Y2757703D01*
G01X4406992Y2694968D01*
G01X4414137Y2664640D01*
G01X4421282Y2634312D01*
G01X4438277Y2572100D01*
G01X4458505Y2508334D01*
G01X4477093Y2458564D01*
G01X4488531Y2435235D01*
G01X4499970Y2411906D01*
G01X4513936Y2388576D01*
G01X4527902Y2365247D01*
G01X4546602Y2338593D01*
G01X4565303Y2311940D01*
G01X4579794Y2293490D01*
G01X4594285Y2275040D01*
G01X4601321Y2266486D01*
G01X4608356Y2257932D01*
G01X4626605Y2236667D01*
G01X4644853Y2215401D01*
G01X4669551Y2189231D01*
G01X4694250Y2163060D01*
G01X4711961Y2145159D01*
G01X4729673Y2127258D01*
G01X4749135Y2108609D01*
G01X4768597Y2089961D01*
G01X4807963Y2054924D01*
G01X4811564Y2047558D01*
G01X4815165Y2040192D01*
G01X4816182Y2006753D01*
G01X4817199Y1973314D01*
G01X4819608Y1962428D01*
G01X4822017Y1951540D01*
G01X4826484Y1938927D01*
G01X4830951Y1926313D01*
G01X4837861Y1914233D01*
G01X4844772Y1902152D01*
G01X4854960Y1889519D01*
G01X4865148Y1876886D01*
G01X4890264Y1856668D01*
G01X4902209Y1849835D01*
G01X4914155Y1843001D01*
G01X4924570Y1839205D01*
G01X4934984Y1835409D01*
G01X4946650Y1832120D01*
G01X4946650Y1832120D01*
G01X4958316Y1828831D01*
G01X5272505Y1827766D01*
G01X5289320Y1830231D01*
G01X5306135Y1832696D01*
G01X5317317Y1836709D01*
G01X5328499Y1840723D01*
G01X5339079Y1845929D01*
G01X5349659Y1851136D01*
G01X5370801Y1865320D01*
G01X5381371Y1875769D01*
G01X5391940Y1886218D01*
G01X5400139Y1897232D01*
G01X5408336Y1908246D01*
G01X5413881Y1919124D01*
G01X5419425Y1930003D01*
G01X5423411Y1940592D01*
G01X5427397Y1951181D01*
G01X5432411Y1973314D01*
G01X5433366Y2018418D01*
G01X5434322Y2063521D01*
G01X5436790Y2068965D01*
G01X5439257Y2074408D01*
G01X5448748Y2087628D01*
G01X5458240Y2100848D01*
G01X5465166Y2112513D01*
G01X5472091Y2124178D01*
G01X5482213Y2144396D01*
G01X5492335Y2164615D01*
G01X5513092Y2214384D01*
G01X5538960Y2292149D01*
G01X5545364Y2314876D01*
G01X5551767Y2337604D01*
G01X5551294Y2639154D01*
G01X5550821Y2940704D01*
G01X5548411Y2949258D01*
G01X5546001Y2957812D01*
G01X5541795Y2966033D01*
G01X5537591Y2974254D01*
G01X5532284Y2980127D01*
G01X5526979Y2985999D01*
G01X5519172Y2990248D01*
G01X5511365Y2994497D01*
G01X5496482Y2998807D01*
G01X5487667Y2999858D01*
G01X5478852Y3000908D01*
G01X5467599Y2997195D01*
G01X5455598Y2981141D01*
G01X5444196Y2958310D01*
G01X5438933Y2942508D01*
G01X5433671Y2926706D01*
G01X5429775Y2909598D01*
G01X5425878Y2892490D01*
G01X5421429Y2858125D01*
G01X5418187Y2851769D01*
G01X5414944Y2845413D01*
G01X5410038Y2840507D01*
G01X5405131Y2835601D01*
G01X5392270Y2829009D01*
G01X5381254Y2828289D01*
G01X5370237Y2827569D01*
G01X5363004Y2830769D01*
G01X5355770Y2833968D01*
G01X5350191Y2838224D01*
G01X5344611Y2842479D01*
G01X5336806Y2857881D01*
G01X5334670Y2868186D01*
G01X5332533Y2878492D01*
G01X5326302Y2915819D01*
G01X5320072Y2953146D01*
G01X5316174Y2981141D01*
G01X5312276Y3009136D01*
G01X5310670Y3023912D01*
G01X5309063Y3038687D01*
G01X5306088Y3094677D01*
G01X5303002Y3106605D01*
G01X5299916Y3118532D01*
G01X5296501Y3125268D01*
G01X5293085Y3132004D01*
G01X5286964Y3139347D01*
G01X5280845Y3146690D01*
G01X5270611Y3151728D01*
G01X5260378Y3156765D01*
G01X5246221Y3157375D01*
G01X5232065Y3157986D01*
G01X5213515Y3154539D01*
G01X5204125Y3150097D01*
G01X5194735Y3145655D01*
G01X5181425Y3132455D01*
G01X5176770Y3123453D01*
G01X5179841Y3007960D01*
G01X5176656Y2993112D01*
G01X5172231Y2986134D01*
G01X5167806Y2979157D01*
G01X5161050Y2974541D01*
G01X5154295Y2969926D01*
G01X5148237Y2967951D01*
G01X5142180Y2965976D01*
G01X5123096Y2967508D01*
G01X5116572Y2970835D01*
G01X5110049Y2974163D01*
G01X5098683Y2985529D01*
G01X5092293Y2999805D01*
G01X5089759Y3063571D01*
G01X5078137Y3421288D01*
G01X5066516Y3779004D01*
G01X5063696Y3841215D01*
G01X5056823Y3858320D01*
G01X5051469Y3864854D01*
G01X5046114Y3871389D01*
G01X5026753Y3880635D01*
G01X5011199Y3881749D01*
G01X4999372Y3880628D01*
G01X4987546Y3879507D01*
G01X4978480Y3876321D01*
G01X4969414Y3873135D01*
G01X4960855Y3868062D01*
G01X4952296Y3862989D01*
G01X4934286Y3845183D01*
G01X4933520Y3841643D01*
G01X4932754Y3838105D01*
G01X4927216Y3607922D01*
G01X4921678Y3377740D01*
G01X4917918Y3220655D01*
G01X4914158Y3063571D01*
G01X4913350Y3044130D01*
G01X4912542Y3024689D01*
G01X4910614Y3018671D01*
G01X4908685Y3012654D01*
G01X4894895Y2997317D01*
G01X4888822Y2994219D01*
G01X4882750Y2991121D01*
G01X4872939Y2990205D01*
G01X4863128Y2989289D01*
G01X4854777Y2992063D01*
G01X4846427Y2994836D01*
G01X4830544Y3010718D01*
G01X4827636Y3018481D01*
G01X4824729Y3026244D01*
G01X4823782Y3127338D01*
G01X4822296Y3406250D01*
G01X4820811Y3685162D01*
G01X4816568Y3692400D01*
G01X4812326Y3699638D01*
G01X4805408Y3707034D01*
G01X4798490Y3714430D01*
G01X4791331Y3719171D01*
G01X4784172Y3723912D01*
G01X4776162Y3726241D01*
G01X4768152Y3728569D01*
G01X4747837Y3728725D01*
G01X4733473Y3722371D01*
G01X4719297Y3710756D01*
G01X4705649Y3691631D01*
G01X4700216Y3680105D01*
G01X4694783Y3668578D01*
G01X4681508Y3207435D01*
G01X4668233Y2746292D01*
G01X4666724Y2699185D01*
G01X4665216Y2652077D01*
G01X4661982Y2644749D01*
G01X4658749Y2637422D01*
G01X4647237Y2625528D01*
G01X4640237Y2622243D01*
G01X4633238Y2618958D01*
G01X4621573Y2618859D01*
G01X4609907Y2618759D01*
G01X4602469Y2622559D01*
G01X4595031Y2626359D01*
G01X4578364Y2643831D01*
G01X4568718Y2662940D01*
G01X4564795Y2676475D01*
G01X4560872Y2690010D01*
G01X4554663Y2732927D01*
G01X4548454Y2775843D01*
G01X4546846Y2784397D01*
G01X4545238Y2792951D01*
G01X4542848Y2803838D01*
G01X4540459Y2814725D01*
G01X4527573Y2853607D01*
G01X4514835Y2879269D01*
G01X4502098Y2904932D01*
G01X4489831Y2924460D01*
G01X4477564Y2943988D01*
G01X4465256Y2960232D01*
G01X4452949Y2976475D01*
G01X4439487Y2989951D01*
G01X4426026Y3003427D01*
G01X4420429Y3004972D01*
G01X4414832Y3006517D01*
G01X4402800Y3005024D01*
G01X4390768Y3003530D01*
G01X4367869Y2993998D01*
G01X4358991Y2987325D01*
G01X4350114Y2980652D01*
G01X4346247Y2973898D01*
G01X4342380Y2967143D01*
G01X4254500Y2967143D01*
G01X4254500Y2973645D01*
G01X4257627Y2985947D01*
G01X4260753Y2998249D01*
G01X4266714Y3010719D01*
G01X4272674Y3023189D01*
G01X4280103Y3032493D01*
G01X4287531Y3041797D01*
G01X4295513Y3049319D01*
G01X4303495Y3056842D01*
G01X4328381Y3073127D01*
G01X4355538Y3084731D01*
G01X4370735Y3088676D01*
G01X4385931Y3092620D01*
G01X4403411Y3093476D01*
G01X4420892Y3094332D01*
G01X4445036Y3090466D01*
G01X4453879Y3086889D01*
G01X4462722Y3083312D01*
G01X4470988Y3077823D01*
G01X4479254Y3072333D01*
G01X4490920Y3062325D01*
G01X4502585Y3052318D01*
G01X4527696Y3023134D01*
G01X4539783Y3007075D01*
G01X4551871Y2991016D01*
G01X4563780Y2971864D01*
G01X4575689Y2952713D01*
G01X4580691Y2944375D01*
G01X4585694Y2936038D01*
G01X4585780Y2942259D01*
G01X4585866Y2948480D01*
G01X4596570Y3317138D01*
G01X4607273Y3685796D01*
G01X4611318Y3697846D01*
G01X4615364Y3709895D01*
G01X4626657Y3732345D01*
G01X4635344Y3745565D01*
G01X4644030Y3758785D01*
G01X4657263Y3772530D01*
G01X4670496Y3786275D01*
G01X4682975Y3794429D01*
G01X4695454Y3802584D01*
G01X4714180Y3810740D01*
G01X4723482Y3813325D01*
G01X4732783Y3815910D01*
G01X4751448Y3816680D01*
G01X4770113Y3817450D01*
G01X4783841Y3814874D01*
G01X4797570Y3812297D01*
G01X4823581Y3802886D01*
G01X4833399Y3796945D01*
G01X4843216Y3791004D01*
G01X4844373Y3825441D01*
G01X4845529Y3859879D01*
G01X4847879Y3867813D01*
G01X4850229Y3875748D01*
G01X4856649Y3885699D01*
G01X4863069Y3895650D01*
G01X4881851Y3918017D01*
G01X4902383Y3935119D01*
G01X4907796Y3938779D01*
G01X4913209Y3942438D01*
G01X4921764Y3947308D01*
G01X4930318Y3952178D01*
G01X4938873Y3955579D01*
G01X4947428Y3958979D01*
G01X4958316Y3962114D01*
G01X4969203Y3965248D01*
G01X4983202Y3967326D01*
G01X4997200Y3969403D01*
G01X5017420Y3968740D01*
G01X5037640Y3968077D01*
G01X5054750Y3963505D01*
G01X5061933Y3961208D01*
G01X5069117Y3958911D01*
G01X5075932Y3955446D01*
G01X5082747Y3951980D01*
G01X5091893Y3945783D01*
G01X5101040Y3939584D01*
G01X5119119Y3921224D01*
G01X5126024Y3910770D01*
G01X5132929Y3900316D01*
G01X5136848Y3892506D01*
G01X5140767Y3884696D01*
G01X5144131Y3874620D01*
G01X5147495Y3864545D01*
G01X5149734Y3853658D01*
G01X5151974Y3842770D01*
G01X5162131Y3538788D01*
G01X5172289Y3234805D01*
G01X5172846Y3234248D01*
G01X5173403Y3233691D01*
G01X5183078Y3236867D01*
G01X5192754Y3240043D01*
G01X5204632Y3242564D01*
G01X5216511Y3245086D01*
G01X5239842Y3245112D01*
G01X5263173Y3245137D01*
G01X5274941Y3242746D01*
G01X5286709Y3240356D01*
G01X5299176Y3235548D01*
G01X5311643Y3230741D01*
G01X5321252Y3224921D01*
G01X5330860Y3219100D01*
G01X5350947Y3201116D01*
G01X5365055Y3182781D01*
G01X5371171Y3171390D01*
G01X5377286Y3159999D01*
G01X5380671Y3151445D01*
G01X5384056Y3142891D01*
G01X5386982Y3132463D01*
G01X5389909Y3122035D01*
G01X5392193Y3107578D01*
G01X5394476Y3093122D01*
G01X5395541Y3071798D01*
G01X5396605Y3050473D01*
G01X5407220Y3060301D01*
G01X5417836Y3070128D01*
G01X5443598Y3083136D01*
G01X5452153Y3085388D01*
G01X5460708Y3087641D01*
G01X5480388Y3087660D01*
G01X5500069Y3087678D01*
G01X5514607Y3084729D01*
G01X5529145Y3081779D01*
G01X5540033Y3077656D01*
G01X5550920Y3073533D01*
G01X5560921Y3068039D01*
G01X5570922Y3062545D01*
G01X5579685Y3055803D01*
G01X5588448Y3049060D01*
G01X5597321Y3039477D01*
G01X5606195Y3029893D01*
G01X5611557Y3021511D01*
G01X5616920Y3013128D01*
G01X5620897Y3005279D01*
G01X5624874Y2997431D01*
G01X5629441Y2983800D01*
G01X5634009Y2970168D01*
G01X5636398Y2955436D01*
G01X5638788Y2940704D01*
G01X5638794Y2632238D01*
G01X5638800Y2323773D01*
G01X5632397Y2298370D01*
G01X5621443Y2261043D01*
G01X5605973Y2212829D01*
G01X5599699Y2195721D01*
G01X5593425Y2178613D01*
G01X5577731Y2139730D01*
G01X5564942Y2113134D01*
G01X5552153Y2086538D01*
G01X5543142Y2071141D01*
G01X5534130Y2055745D01*
G01X5528001Y2046928D01*
G01X5521872Y2038112D01*
G01X5521267Y2004906D01*
G01X5520660Y1971700D01*
G01X5517493Y1953174D01*
G01X5514325Y1934648D01*
G01X5508254Y1916491D01*
G01X5502183Y1898334D01*
G01X5494870Y1883722D01*
G01X5487557Y1869110D01*
G01X5479473Y1856668D01*
G01X5471389Y1844226D01*
G01X5459216Y1829723D01*
G01X5447043Y1815220D01*
G01X5417431Y1790323D01*
G01X5395316Y1775401D01*
G01X5363149Y1759260D01*
G01X5346837Y1753802D01*
G01X5330525Y1748344D01*
G01X5315514Y1745052D01*
G01X5300502Y1741759D01*
G37*
G36*
G01X5572696Y3845399D02*
G01X5555587Y3839171D01*
G01X5456041Y3802866D01*
G01X5356496Y3766561D01*
G01X5344053Y3766598D01*
G01X5331610Y3766635D01*
G01X5326166Y3769492D01*
G01X5320722Y3772348D01*
G01X5308793Y3783669D01*
G01X5305608Y3789845D01*
G01X5302422Y3796020D01*
G01X5301677Y3805398D01*
G01X5300933Y3814775D01*
G01X5304380Y3827512D01*
G01X5308698Y3833939D01*
G01X5313015Y3840368D01*
G01X5319202Y3844878D01*
G01X5325388Y3849390D01*
G01X5399269Y3876066D01*
G01X5473151Y3902743D01*
G01X5476230Y3904006D01*
G01X5479310Y3905269D01*
G01X5472342Y3909678D01*
G01X5465374Y3914087D01*
G01X5440488Y3926911D01*
G01X5415601Y3939735D01*
G01X5389774Y3950689D01*
G01X5363947Y3961642D01*
G01X5330669Y3972704D01*
G01X5297391Y3983766D01*
G01X5267839Y3991319D01*
G01X5238286Y3998872D01*
G01X5207178Y4005127D01*
G01X5176071Y4011381D01*
G01X5150407Y4015293D01*
G01X5124742Y4019205D01*
G01X5106856Y4021520D01*
G01X5088968Y4023834D01*
G01X5060971Y4026192D01*
G01X5032975Y4028551D01*
G01X5006204Y4030144D01*
G01X4979433Y4031738D01*
G01X4884890Y4031738D01*
G01X4853166Y4030162D01*
G01X4821441Y4028587D01*
G01X4767002Y4023792D01*
G01X4743671Y4020750D01*
G01X4720340Y4017707D01*
G01X4704978Y4015327D01*
G01X4689616Y4012947D01*
G01X4665316Y4008325D01*
G01X4641015Y4003701D01*
G01X4616129Y3998154D01*
G01X4591243Y3992607D01*
G01X4536804Y3976995D01*
G01X4516584Y3970010D01*
G01X4496364Y3963026D01*
G01X4464528Y3950646D01*
G01X4463061Y3948273D01*
G01X4599020Y3899125D01*
G01X4621559Y3889922D01*
G01X4633848Y3875962D01*
G01X4636459Y3868101D01*
G01X4639070Y3860240D01*
G01X4638332Y3849950D01*
G01X4637593Y3839660D01*
G01X4634380Y3833369D01*
G01X4631167Y3827078D01*
G01X4624157Y3820616D01*
G01X4617146Y3814154D01*
G01X4599289Y3808963D01*
G01X4591335Y3809898D01*
G01X4583382Y3810833D01*
G01X4459386Y3855921D01*
G01X4335389Y3901009D01*
G01X4330905Y3903328D01*
G01X4326421Y3905647D01*
G01X4321492Y3909794D01*
G01X4316563Y3913941D01*
G01X4312416Y3921904D01*
G01X4308269Y3929867D01*
G01X4308161Y3953196D01*
G01X4338023Y4034848D01*
G01X4367886Y4116501D01*
G01X4384297Y4161404D01*
G01X4400707Y4206306D01*
G01X4400707Y4207555D01*
G01X4407317Y4214755D01*
G01X4413928Y4221955D01*
G01X4421705Y4225592D01*
G01X4429482Y4229229D01*
G01X4438814Y4229236D01*
G01X4448146Y4229242D01*
G01X4459733Y4226025D01*
G01X4466350Y4220978D01*
G01X4472966Y4215932D01*
G01X4477250Y4208987D01*
G01X4481535Y4202042D01*
G01X4483025Y4194145D01*
G01X4484516Y4186248D01*
G01X4480595Y4167826D01*
G01X4464050Y4122722D01*
G01X4447505Y4077619D01*
G01X4439146Y4054906D01*
G01X4430787Y4032194D01*
G01X4444039Y4037538D01*
G01X4457291Y4042881D01*
G01X4482271Y4051382D01*
G01X4507251Y4059883D01*
G01X4536631Y4068405D01*
G01X4566011Y4076926D01*
G01X4589514Y4082230D01*
G01X4613018Y4087535D01*
G01X4636349Y4092260D01*
G01X4659680Y4096986D01*
G01X4731228Y4107747D01*
G01X4761558Y4110954D01*
G01X4791888Y4114161D01*
G01X4812109Y4115677D01*
G01X4832329Y4117192D01*
G01X4934819Y4120935D01*
G01X4980008Y4119045D01*
G01X5025198Y4117154D01*
G01X5053194Y4114940D01*
G01X5081191Y4112726D01*
G01X5135618Y4106244D01*
G01X5162066Y4102328D01*
G01X5188514Y4098413D01*
G01X5242952Y4087530D01*
G01X5268617Y4081366D01*
G01X5294280Y4075202D01*
G01X5316056Y4069103D01*
G01X5337831Y4063005D01*
G01X5397030Y4042814D01*
G01X5421092Y4032779D01*
G01X5445154Y4022744D01*
G01X5461485Y4015026D01*
G01X5477817Y4007307D01*
G01X5492454Y3999295D01*
G01X5507092Y3991282D01*
G01X5507442Y3991680D01*
G01X5507793Y3992078D01*
G01X5482228Y4062066D01*
G01X5456662Y4132054D01*
G01X5456604Y4142407D01*
G01X5456545Y4152759D01*
G01X5459553Y4159515D01*
G01X5462562Y4166270D01*
G01X5469034Y4172708D01*
G01X5475506Y4179146D01*
G01X5481208Y4181852D01*
G01X5486910Y4184557D01*
G01X5496538Y4185330D01*
G01X5506165Y4186103D01*
G01X5521708Y4180941D01*
G01X5528038Y4175523D01*
G01X5534368Y4170105D01*
G01X5537458Y4165077D01*
G01X5540547Y4160049D01*
G01X5586077Y4035626D01*
G01X5631608Y3911203D01*
G01X5631704Y3897983D01*
G01X5631801Y3884763D01*
G01X5627534Y3877506D01*
G01X5623268Y3870249D01*
G01X5610365Y3859206D01*
G01X5600085Y3855416D01*
G01X5589805Y3851627D01*
G01X5572696Y3845399D01*
G37*
G04 Image End*

G04 Text Start*
G54D10*
G01X4622589Y5417396D02*
G01X4622589Y5246962D01*
G01X4622589Y5417396D02*
G01X4736381Y5246962D01*
G01X4736381Y5417396D02*
G01X4736381Y5246962D01*
G01X4856015Y5360500D02*
G01X4839759Y5352626D01*
G01X4823503Y5336370D01*
G01X4815375Y5311986D01*
G01X4815375Y5295730D01*
G01X4823503Y5271346D01*
G01X4839759Y5255090D01*
G01X4856015Y5246962D01*
G01X4880399Y5246962D01*
G01X4896655Y5255090D01*
G01X4912911Y5271346D01*
G01X4921039Y5295730D01*
G01X4921039Y5311986D01*
G01X4912911Y5336370D01*
G01X4896655Y5352626D01*
G01X4880399Y5360500D01*
G01X4856015Y5360500D01*
G01X5000033Y5360500D02*
G01X5000033Y5246962D01*
G01X5000033Y5311986D02*
G01X5008161Y5336370D01*
G01X5024417Y5352626D01*
G01X5040673Y5360500D01*
G01X5065057Y5360500D01*
G01X5168435Y5417396D02*
G01X5168435Y5279474D01*
G01X5176563Y5255090D01*
G01X5192819Y5246962D01*
G01X5209075Y5246962D01*
G01X5144051Y5360500D02*
G01X5200947Y5360500D01*
G01X5288069Y5417396D02*
G01X5288069Y5246962D01*
G01X5288069Y5328242D02*
G01X5312453Y5352626D01*
G01X5328709Y5360500D01*
G01X5353093Y5360500D01*
G01X5369349Y5352626D01*
G01X5377477Y5328242D01*
G01X5377477Y5246962D01*
G01X4724189Y753012D02*
G01X4707933Y769268D01*
G01X4683549Y777396D01*
G01X4651037Y777396D01*
G01X4626653Y769268D01*
G01X4610397Y753012D01*
G01X4610397Y736756D01*
G01X4618525Y720500D01*
G01X4626653Y712626D01*
G01X4642909Y704498D01*
G01X4691677Y688242D01*
G01X4707933Y680114D01*
G01X4716061Y671986D01*
G01X4724189Y655730D01*
G01X4724189Y631346D01*
G01X4707933Y615090D01*
G01X4683549Y606962D01*
G01X4651037Y606962D01*
G01X4626653Y615090D01*
G01X4610397Y631346D01*
G01X4843823Y720500D02*
G01X4827567Y712626D01*
G01X4811311Y696370D01*
G01X4803183Y671986D01*
G01X4803183Y655730D01*
G01X4811311Y631346D01*
G01X4827567Y615090D01*
G01X4843823Y606962D01*
G01X4868207Y606962D01*
G01X4884463Y615090D01*
G01X4900719Y631346D01*
G01X4908847Y655730D01*
G01X4908847Y671986D01*
G01X4900719Y696370D01*
G01X4884463Y712626D01*
G01X4868207Y720500D01*
G01X4843823Y720500D01*
G01X4987841Y720500D02*
G01X4987841Y639474D01*
G01X4995969Y615090D01*
G01X5012225Y606962D01*
G01X5036609Y606962D01*
G01X5052865Y615090D01*
G01X5077249Y639474D01*
G01X5077249Y720500D02*
G01X5077249Y606962D01*
G01X5180627Y777396D02*
G01X5180627Y639474D01*
G01X5188755Y615090D01*
G01X5205011Y606962D01*
G01X5221267Y606962D01*
G01X5156243Y720500D02*
G01X5213139Y720500D01*
G01X5300261Y777396D02*
G01X5300261Y606962D01*
G01X5300261Y688242D02*
G01X5324645Y712626D01*
G01X5340901Y720500D01*
G01X5365285Y720500D01*
G01X5381541Y712626D01*
G01X5389669Y688242D01*
G01X5389669Y606962D01*
G01X577604Y2674278D02*
G01X748038Y2714918D01*
G01X577604Y2755558D02*
G01X748038Y2714918D01*
G01X577604Y2755558D02*
G01X748038Y2796198D01*
G01X577604Y2836838D02*
G01X748038Y2796198D01*
G01X683014Y2915832D02*
G01X683014Y3013368D01*
G01X666758Y3013368D01*
G01X650502Y3005240D01*
G01X642374Y2997112D01*
G01X634500Y2980856D01*
G01X634500Y2956472D01*
G01X642374Y2940216D01*
G01X658630Y2923960D01*
G01X683014Y2915832D01*
G01X699270Y2915832D01*
G01X723654Y2923960D01*
G01X739910Y2940216D01*
G01X748038Y2956472D01*
G01X748038Y2980856D01*
G01X739910Y2997112D01*
G01X723654Y3013368D01*
G01X658630Y3181770D02*
G01X642374Y3173642D01*
G01X634500Y3149258D01*
G01X634500Y3124874D01*
G01X642374Y3100490D01*
G01X658630Y3092362D01*
G01X674886Y3100490D01*
G01X683014Y3116746D01*
G01X691142Y3157386D01*
G01X699270Y3173642D01*
G01X715526Y3181770D01*
G01X723654Y3181770D01*
G01X739910Y3173642D01*
G01X748038Y3149258D01*
G01X748038Y3124874D01*
G01X739910Y3100490D01*
G01X723654Y3092362D01*
G01X577604Y3285148D02*
G01X715526Y3285148D01*
G01X739910Y3293276D01*
G01X748038Y3309532D01*
G01X748038Y3325788D01*
G01X634500Y3260764D02*
G01X634500Y3317660D01*
G01X9417396Y3297274D02*
G01X9246962Y3297274D01*
G01X9417396Y3297274D02*
G01X9417396Y3191610D01*
G01X9336370Y3297274D02*
G01X9336370Y3232250D01*
G01X9246962Y3297274D02*
G01X9246962Y3191610D01*
G01X9360500Y3015080D02*
G01X9246962Y3015080D01*
G01X9336370Y3015080D02*
G01X9352626Y3031336D01*
G01X9360500Y3047592D01*
G01X9360500Y3071976D01*
G01X9352626Y3088232D01*
G01X9336370Y3104488D01*
G01X9311986Y3112616D01*
G01X9295730Y3112616D01*
G01X9271346Y3104488D01*
G01X9255090Y3088232D01*
G01X9246962Y3071976D01*
G01X9246962Y3047592D01*
G01X9255090Y3031336D01*
G01X9271346Y3015080D01*
G01X9336370Y2846678D02*
G01X9352626Y2854806D01*
G01X9360500Y2879190D01*
G01X9360500Y2903574D01*
G01X9352626Y2927958D01*
G01X9336370Y2936086D01*
G01X9320114Y2927958D01*
G01X9311986Y2911702D01*
G01X9303858Y2871062D01*
G01X9295730Y2854806D01*
G01X9279474Y2846678D01*
G01X9271346Y2846678D01*
G01X9255090Y2854806D01*
G01X9246962Y2879190D01*
G01X9246962Y2903574D01*
G01X9255090Y2927958D01*
G01X9271346Y2936086D01*
G01X9417396Y2743300D02*
G01X9279474Y2743300D01*
G01X9255090Y2735172D01*
G01X9246962Y2718916D01*
G01X9246962Y2702660D01*
G01X9360500Y2767684D02*
G01X9360500Y2710788D01*
G54D11*
G01X4074922Y5816854D02*
G01X4134866Y5816854D01*
G01X4102100Y5773420D01*
G01X4118610Y5773420D01*
G01X4129532Y5767832D01*
G01X4134866Y5762498D01*
G01X4140454Y5745988D01*
G01X4140454Y5735066D01*
G01X4134866Y5718810D01*
G01X4123944Y5707888D01*
G01X4107688Y5702300D01*
G01X4091178Y5702300D01*
G01X4074922Y5707888D01*
G01X4069334Y5713222D01*
G01X4064000Y5724144D01*
G01X4192016Y5816854D02*
G01X4192016Y5702300D01*
G01X4192016Y5816854D02*
G01X4230116Y5816854D01*
G01X4246626Y5811520D01*
G01X4257548Y5800598D01*
G01X4262882Y5789676D01*
G01X4268470Y5773420D01*
G01X4268470Y5745988D01*
G01X4262882Y5729732D01*
G01X4257548Y5718810D01*
G01X4246626Y5707888D01*
G01X4230116Y5702300D01*
G01X4192016Y5702300D01*
G01X4524248Y5789676D02*
G01X4518660Y5800598D01*
G01X4507738Y5811520D01*
G01X4496816Y5816854D01*
G01X4474972Y5816854D01*
G01X4464050Y5811520D01*
G01X4453128Y5800598D01*
G01X4447794Y5789676D01*
G01X4442206Y5773420D01*
G01X4442206Y5745988D01*
G01X4447794Y5729732D01*
G01X4453128Y5718810D01*
G01X4464050Y5707888D01*
G01X4474972Y5702300D01*
G01X4496816Y5702300D01*
G01X4507738Y5707888D01*
G01X4518660Y5718810D01*
G01X4524248Y5729732D01*
G01X4524248Y5745988D01*
G01X4496816Y5745988D02*
G01X4524248Y5745988D01*
G01X4575810Y5745988D02*
G01X4641342Y5745988D01*
G01X4641342Y5756910D01*
G01X4635754Y5767832D01*
G01X4630420Y5773420D01*
G01X4619498Y5778754D01*
G01X4603242Y5778754D01*
G01X4592320Y5773420D01*
G01X4581398Y5762498D01*
G01X4575810Y5745988D01*
G01X4575810Y5735066D01*
G01X4581398Y5718810D01*
G01X4592320Y5707888D01*
G01X4603242Y5702300D01*
G01X4619498Y5702300D01*
G01X4630420Y5707888D01*
G01X4641342Y5718810D01*
G01X4752848Y5762498D02*
G01X4747514Y5773420D01*
G01X4731004Y5778754D01*
G01X4714748Y5778754D01*
G01X4698492Y5773420D01*
G01X4692904Y5762498D01*
G01X4698492Y5751576D01*
G01X4709414Y5745988D01*
G01X4736592Y5740654D01*
G01X4747514Y5735066D01*
G01X4752848Y5724144D01*
G01X4752848Y5718810D01*
G01X4747514Y5707888D01*
G01X4731004Y5702300D01*
G01X4714748Y5702300D01*
G01X4698492Y5707888D01*
G01X4692904Y5718810D01*
G01X4820920Y5816854D02*
G01X4820920Y5724144D01*
G01X4826254Y5707888D01*
G01X4837176Y5702300D01*
G01X4848098Y5702300D01*
G01X4804410Y5778754D02*
G01X4842510Y5778754D01*
G01X4899660Y5778754D02*
G01X4899660Y5724144D01*
G01X4905248Y5707888D01*
G01X4916170Y5702300D01*
G01X4932426Y5702300D01*
G01X4943348Y5707888D01*
G01X4959604Y5724144D01*
G01X4959604Y5778754D02*
G01X4959604Y5702300D01*
G01X5011166Y5778754D02*
G01X5011166Y5702300D01*
G01X5011166Y5745988D02*
G01X5016754Y5762498D01*
G01X5027676Y5773420D01*
G01X5038598Y5778754D01*
G01X5054854Y5778754D01*
G01X5106416Y5745988D02*
G01X5171948Y5745988D01*
G01X5171948Y5756910D01*
G01X5166360Y5767832D01*
G01X5161026Y5773420D01*
G01X5150104Y5778754D01*
G01X5133848Y5778754D01*
G01X5122926Y5773420D01*
G01X5112004Y5762498D01*
G01X5106416Y5745988D01*
G01X5106416Y5735066D01*
G01X5112004Y5718810D01*
G01X5122926Y5707888D01*
G01X5133848Y5702300D01*
G01X5150104Y5702300D01*
G01X5161026Y5707888D01*
G01X5171948Y5718810D01*
G01X5345684Y5816854D02*
G01X5345684Y5702300D01*
G01X5345684Y5816854D02*
G01X5389372Y5702300D01*
G01X5433060Y5816854D02*
G01X5389372Y5702300D01*
G01X5433060Y5816854D02*
G01X5433060Y5702300D01*
G01X5512054Y5778754D02*
G01X5501132Y5773420D01*
G01X5490210Y5762498D01*
G01X5484622Y5745988D01*
G01X5484622Y5735066D01*
G01X5490210Y5718810D01*
G01X5501132Y5707888D01*
G01X5512054Y5702300D01*
G01X5528310Y5702300D01*
G01X5539232Y5707888D01*
G01X5550154Y5718810D01*
G01X5555488Y5735066D01*
G01X5555488Y5745988D01*
G01X5550154Y5762498D01*
G01X5539232Y5773420D01*
G01X5528310Y5778754D01*
G01X5512054Y5778754D01*
G01X5672582Y5816854D02*
G01X5672582Y5702300D01*
G01X5672582Y5762498D02*
G01X5661660Y5773420D01*
G01X5650738Y5778754D01*
G01X5634482Y5778754D01*
G01X5623560Y5773420D01*
G01X5612638Y5762498D01*
G01X5607050Y5745988D01*
G01X5607050Y5735066D01*
G01X5612638Y5718810D01*
G01X5623560Y5707888D01*
G01X5634482Y5702300D01*
G01X5650738Y5702300D01*
G01X5661660Y5707888D01*
G01X5672582Y5718810D01*
G01X5724144Y5778754D02*
G01X5724144Y5724144D01*
G01X5729732Y5707888D01*
G01X5740654Y5702300D01*
G01X5756910Y5702300D01*
G01X5767832Y5707888D01*
G01X5784088Y5724144D01*
G01X5784088Y5778754D02*
G01X5784088Y5702300D01*
G01X5835650Y5816854D02*
G01X5835650Y5702300D01*
G01X5887212Y5745988D02*
G01X5952744Y5745988D01*
G01X5952744Y5756910D01*
G01X5947410Y5767832D01*
G01X5941822Y5773420D01*
G01X5930900Y5778754D01*
G01X5914644Y5778754D01*
G01X5903722Y5773420D01*
G01X5892800Y5762498D01*
G01X5887212Y5745988D01*
G01X5887212Y5735066D01*
G01X5892800Y5718810D01*
G01X5903722Y5707888D01*
G01X5914644Y5702300D01*
G01X5930900Y5702300D01*
G01X5941822Y5707888D01*
G01X5952744Y5718810D01*
G01X3513328Y335864D02*
G01X3524250Y341198D01*
G01X3540506Y357454D01*
G01X3540506Y242900D01*
G01X3624834Y357454D02*
G01X3608578Y352120D01*
G01X3597656Y335864D01*
G01X3592068Y308432D01*
G01X3592068Y292176D01*
G01X3597656Y264744D01*
G01X3608578Y248488D01*
G01X3624834Y242900D01*
G01X3635756Y242900D01*
G01X3652012Y248488D01*
G01X3662934Y264744D01*
G01X3668522Y292176D01*
G01X3668522Y308432D01*
G01X3662934Y335864D01*
G01X3652012Y352120D01*
G01X3635756Y357454D01*
G01X3624834Y357454D01*
G01X3752850Y357454D02*
G01X3736594Y352120D01*
G01X3725672Y335864D01*
G01X3720084Y308432D01*
G01X3720084Y292176D01*
G01X3725672Y264744D01*
G01X3736594Y248488D01*
G01X3752850Y242900D01*
G01X3763772Y242900D01*
G01X3780028Y248488D01*
G01X3790950Y264744D01*
G01X3796538Y292176D01*
G01X3796538Y308432D01*
G01X3790950Y335864D01*
G01X3780028Y352120D01*
G01X3763772Y357454D01*
G01X3752850Y357454D01*
G01X3970274Y319354D02*
G01X4030472Y242900D01*
G01X4030472Y319354D02*
G01X3970274Y242900D01*
G01X4269740Y341198D02*
G01X4264406Y352120D01*
G01X4247896Y357454D01*
G01X4236974Y357454D01*
G01X4220718Y352120D01*
G01X4209796Y335864D01*
G01X4204208Y308432D01*
G01X4204208Y281254D01*
G01X4209796Y259410D01*
G01X4220718Y248488D01*
G01X4236974Y242900D01*
G01X4242562Y242900D01*
G01X4258818Y248488D01*
G01X4269740Y259410D01*
G01X4275328Y275666D01*
G01X4275328Y281254D01*
G01X4269740Y297510D01*
G01X4258818Y308432D01*
G01X4242562Y314020D01*
G01X4236974Y314020D01*
G01X4220718Y308432D01*
G01X4209796Y297510D01*
G01X4204208Y281254D01*
G01X4359656Y357454D02*
G01X4343400Y352120D01*
G01X4332478Y335864D01*
G01X4326890Y308432D01*
G01X4326890Y292176D01*
G01X4332478Y264744D01*
G01X4343400Y248488D01*
G01X4359656Y242900D01*
G01X4370578Y242900D01*
G01X4386834Y248488D01*
G01X4397756Y264744D01*
G01X4403344Y292176D01*
G01X4403344Y308432D01*
G01X4397756Y335864D01*
G01X4386834Y352120D01*
G01X4370578Y357454D01*
G01X4359656Y357454D01*
G01X4577080Y319354D02*
G01X4577080Y242900D01*
G01X4577080Y297510D02*
G01X4593590Y314020D01*
G01X4604512Y319354D01*
G01X4620768Y319354D01*
G01X4631690Y314020D01*
G01X4637278Y297510D01*
G01X4637278Y242900D01*
G01X4637278Y297510D02*
G01X4653534Y314020D01*
G01X4664456Y319354D01*
G01X4680712Y319354D01*
G01X4691634Y314020D01*
G01X4697222Y297510D01*
G01X4697222Y242900D01*
G01X4748784Y319354D02*
G01X4748784Y242900D01*
G01X4748784Y297510D02*
G01X4765294Y314020D01*
G01X4776216Y319354D01*
G01X4792472Y319354D01*
G01X4803394Y314020D01*
G01X4808728Y297510D01*
G01X4808728Y242900D01*
G01X4808728Y297510D02*
G01X4825238Y314020D01*
G01X4836160Y319354D01*
G01X4852416Y319354D01*
G01X4863338Y314020D01*
G01X4868926Y297510D01*
G01X4868926Y242900D01*
G01X5081016Y379298D02*
G01X5070094Y368376D01*
G01X5059172Y352120D01*
G01X5048250Y330276D01*
G01X5042662Y303098D01*
G01X5042662Y281254D01*
G01X5048250Y253822D01*
G01X5059172Y231978D01*
G01X5070094Y215722D01*
G01X5081016Y204800D01*
G01X5325872Y319354D02*
G01X5320284Y303098D01*
G01X5309362Y292176D01*
G01X5293106Y286588D01*
G01X5287518Y286588D01*
G01X5271262Y292176D01*
G01X5260340Y303098D01*
G01X5254752Y319354D01*
G01X5254752Y324942D01*
G01X5260340Y341198D01*
G01X5271262Y352120D01*
G01X5287518Y357454D01*
G01X5293106Y357454D01*
G01X5309362Y352120D01*
G01X5320284Y341198D01*
G01X5325872Y319354D01*
G01X5325872Y292176D01*
G01X5320284Y264744D01*
G01X5309362Y248488D01*
G01X5293106Y242900D01*
G01X5282184Y242900D01*
G01X5265674Y248488D01*
G01X5260340Y259410D01*
G01X5410200Y357454D02*
G01X5393944Y352120D01*
G01X5383022Y335864D01*
G01X5377434Y308432D01*
G01X5377434Y292176D01*
G01X5383022Y264744D01*
G01X5393944Y248488D01*
G01X5410200Y242900D01*
G01X5421122Y242900D01*
G01X5437378Y248488D01*
G01X5448300Y264744D01*
G01X5453888Y292176D01*
G01X5453888Y308432D01*
G01X5448300Y335864D01*
G01X5437378Y352120D01*
G01X5421122Y357454D01*
G01X5410200Y357454D01*
G01X5627624Y319354D02*
G01X5687822Y242900D01*
G01X5687822Y319354D02*
G01X5627624Y242900D01*
G01X5927090Y357454D02*
G01X5872480Y357454D01*
G01X5867146Y308432D01*
G01X5872480Y314020D01*
G01X5888990Y319354D01*
G01X5905246Y319354D01*
G01X5921756Y314020D01*
G01X5932678Y303098D01*
G01X5938012Y286588D01*
G01X5938012Y275666D01*
G01X5932678Y259410D01*
G01X5921756Y248488D01*
G01X5905246Y242900D01*
G01X5888990Y242900D01*
G01X5872480Y248488D01*
G01X5867146Y253822D01*
G01X5861558Y264744D01*
G01X6022340Y357454D02*
G01X6006084Y352120D01*
G01X5995162Y335864D01*
G01X5989574Y308432D01*
G01X5989574Y292176D01*
G01X5995162Y264744D01*
G01X6006084Y248488D01*
G01X6022340Y242900D01*
G01X6033262Y242900D01*
G01X6049518Y248488D01*
G01X6060440Y264744D01*
G01X6066028Y292176D01*
G01X6066028Y308432D01*
G01X6060440Y335864D01*
G01X6049518Y352120D01*
G01X6033262Y357454D01*
G01X6022340Y357454D01*
G01X6239764Y319354D02*
G01X6239764Y242900D01*
G01X6239764Y297510D02*
G01X6256274Y314020D01*
G01X6267196Y319354D01*
G01X6283452Y319354D01*
G01X6294374Y314020D01*
G01X6299962Y297510D01*
G01X6299962Y242900D01*
G01X6299962Y297510D02*
G01X6316218Y314020D01*
G01X6327140Y319354D01*
G01X6343396Y319354D01*
G01X6354318Y314020D01*
G01X6359906Y297510D01*
G01X6359906Y242900D01*
G01X6411468Y319354D02*
G01X6411468Y242900D01*
G01X6411468Y297510D02*
G01X6427978Y314020D01*
G01X6438900Y319354D01*
G01X6455156Y319354D01*
G01X6466078Y314020D01*
G01X6471412Y297510D01*
G01X6471412Y242900D01*
G01X6471412Y297510D02*
G01X6487922Y314020D01*
G01X6498844Y319354D01*
G01X6515100Y319354D01*
G01X6526022Y314020D01*
G01X6531610Y297510D01*
G01X6531610Y242900D01*
G01X6583172Y379298D02*
G01X6594094Y368376D01*
G01X6605016Y352120D01*
G01X6615938Y330276D01*
G01X6621272Y303098D01*
G01X6621272Y281254D01*
G01X6615938Y253822D01*
G01X6605016Y231978D01*
G01X6594094Y215722D01*
G01X6583172Y204800D01*
G04 Text End*

M02*

