G04 Layer: BottomLayer*
G04 EasyEDA Pro v2.2.36.5, 2025-02-22 11:45:42*
G04 Gerber Generator version 0.3*
G04 Scale: 100 percent, Rotated: No, Reflected: No*
G04 Dimensions in millimeters*
G04 Leading zeros omitted, absolute positions, 4 integers and 5 decimals*
%FSLAX45Y45*%
%MOMM*%
%ADD10C,0.2032*%
%ADD11C,0.254*%
%ADD12R,0.3X1.25001*%
%ADD13R,1.8X2.2*%
%ADD14R,1.5X3.39999*%
%ADD15R,1.0X3.49999*%
%ADD16R,0.80648X0.86401*%
%ADD17R,0.86401X0.80648*%
%ADD18R,0.8142X0.86401*%
%ADD19R,0.80648X0.86401*%
%ADD20R,3.49999X3.49999*%
%ADD21O,0.9X0.28001*%
%ADD22O,0.28001X0.9*%
%ADD23R,0.9X0.8*%
%ADD24R,0.8X0.9*%
%ADD25C,2.0*%
%ADD26C,0.6*%
%ADD27C,0.15*%
G75*


G04 Copper Start*
G36*
G01X4830395Y3321339D02*
G01X4833142Y3315857D01*
G01X4830375Y3310328D01*
G01X4806716Y3286669D01*
G01X4806716Y3297661D01*
G01X4830395Y3321339D01*
G37*
G36*
G01X35814Y5700000D02*
G01X35814Y5700000D01*
G01X164186Y5700000D01*
G01X166038Y5677646D01*
G01X171545Y5655901D01*
G01X180555Y5635360D01*
G01X192824Y5616581D01*
G01X208016Y5600078D01*
G01X225717Y5586301D01*
G01X245444Y5575625D01*
G01X266660Y5568342D01*
G01X288784Y5564650D01*
G01X311215Y5564650D01*
G01X333340Y5568342D01*
G01X354556Y5575625D01*
G01X374283Y5586301D01*
G01X391984Y5600078D01*
G01X407176Y5616581D01*
G01X419445Y5635360D01*
G01X428455Y5655901D01*
G01X433962Y5677646D01*
G01X435814Y5700000D01*
G01X435814Y5700000D01*
G01X9564186Y5700000D01*
G01X9566038Y5677646D01*
G01X9571545Y5655901D01*
G01X9580555Y5635360D01*
G01X9592824Y5616581D01*
G01X9608016Y5600078D01*
G01X9625717Y5586301D01*
G01X9645444Y5575625D01*
G01X9666660Y5568342D01*
G01X9688784Y5564650D01*
G01X9711215Y5564650D01*
G01X9733340Y5568342D01*
G01X9754556Y5575625D01*
G01X9774283Y5586301D01*
G01X9791984Y5600078D01*
G01X9807176Y5616581D01*
G01X9819445Y5635360D01*
G01X9828455Y5655901D01*
G01X9833962Y5677646D01*
G01X9835814Y5700000D01*
G01X9835814Y5700000D01*
G01X9833962Y5722354D01*
G01X9828455Y5744099D01*
G01X9819445Y5764640D01*
G01X9807176Y5783419D01*
G01X9791984Y5799922D01*
G01X9774283Y5813699D01*
G01X9754556Y5824375D01*
G01X9733340Y5831658D01*
G01X9711215Y5835350D01*
G01X9688784Y5835350D01*
G01X9666660Y5831658D01*
G01X9645444Y5824375D01*
G01X9625717Y5813699D01*
G01X9608016Y5799922D01*
G01X9592824Y5783419D01*
G01X9580555Y5764640D01*
G01X9571545Y5744099D01*
G01X9566038Y5722354D01*
G01X9564186Y5700000D01*
G01X435814Y5700000D01*
G01X433962Y5722354D01*
G01X428455Y5744099D01*
G01X419445Y5764640D01*
G01X407176Y5783419D01*
G01X391984Y5799922D01*
G01X374283Y5813699D01*
G01X354556Y5824375D01*
G01X333340Y5831658D01*
G01X311215Y5835350D01*
G01X288784Y5835350D01*
G01X266660Y5831658D01*
G01X245444Y5824375D01*
G01X225717Y5813699D01*
G01X208016Y5799922D01*
G01X192824Y5783419D01*
G01X180555Y5764640D01*
G01X171545Y5744099D01*
G01X166038Y5722354D01*
G01X164186Y5700000D01*
G01X35814Y5700000D01*
G01X37740Y5731844D01*
G01X43491Y5763224D01*
G01X52982Y5793682D01*
G01X66075Y5822773D01*
G01X82579Y5850075D01*
G01X102254Y5875188D01*
G01X124812Y5897746D01*
G01X149925Y5917421D01*
G01X177227Y5933925D01*
G01X206318Y5947018D01*
G01X236776Y5956509D01*
G01X268156Y5962260D01*
G01X300000Y5964186D01*
G01X9700000Y5964186D01*
G01X9731844Y5962260D01*
G01X9763224Y5956509D01*
G01X9793682Y5947018D01*
G01X9822773Y5933925D01*
G01X9850075Y5917421D01*
G01X9875188Y5897746D01*
G01X9897746Y5875188D01*
G01X9917421Y5850075D01*
G01X9933925Y5822773D01*
G01X9947018Y5793682D01*
G01X9956509Y5763224D01*
G01X9962260Y5731844D01*
G01X9964186Y5700000D01*
G01X9964186Y300000D01*
G01X9962260Y268156D01*
G01X9956509Y236776D01*
G01X9947018Y206318D01*
G01X9933925Y177227D01*
G01X9917421Y149925D01*
G01X9897746Y124812D01*
G01X9875188Y102254D01*
G01X9850075Y82579D01*
G01X9822773Y66075D01*
G01X9793682Y52982D01*
G01X9763224Y43491D01*
G01X9731844Y37740D01*
G01X9700000Y35814D01*
G01X300000Y35814D01*
G01X268156Y37740D01*
G01X236776Y43491D01*
G01X206318Y52982D01*
G01X177227Y66075D01*
G01X149925Y82579D01*
G01X124812Y102254D01*
G01X102254Y124812D01*
G01X82579Y149925D01*
G01X66075Y177227D01*
G01X52982Y206318D01*
G01X43491Y236776D01*
G01X37740Y268156D01*
G01X35814Y300000D01*
G01X164186Y300000D01*
G01X166038Y277646D01*
G01X171545Y255901D01*
G01X180555Y235360D01*
G01X192824Y216581D01*
G01X208016Y200078D01*
G01X225717Y186301D01*
G01X245444Y175625D01*
G01X266660Y168342D01*
G01X288784Y164650D01*
G01X311215Y164650D01*
G01X333340Y168342D01*
G01X354556Y175625D01*
G01X374283Y186301D01*
G01X391984Y200078D01*
G01X407176Y216581D01*
G01X419445Y235360D01*
G01X428455Y255901D01*
G01X433962Y277646D01*
G01X435814Y300000D01*
G01X435814Y300000D01*
G01X435814Y300000D01*
G01X9564186Y300000D01*
G01X9566038Y277646D01*
G01X9571545Y255901D01*
G01X9580555Y235360D01*
G01X9592824Y216581D01*
G01X9608016Y200078D01*
G01X9625717Y186301D01*
G01X9645444Y175625D01*
G01X9666660Y168342D01*
G01X9688784Y164650D01*
G01X9711215Y164650D01*
G01X9733340Y168342D01*
G01X9754556Y175625D01*
G01X9774283Y186301D01*
G01X9791984Y200078D01*
G01X9807176Y216581D01*
G01X9819445Y235360D01*
G01X9828455Y255901D01*
G01X9833962Y277646D01*
G01X9835814Y300000D01*
G01X9835814Y300000D01*
G01X9833962Y322354D01*
G01X9828455Y344099D01*
G01X9819445Y364640D01*
G01X9807176Y383419D01*
G01X9791984Y399922D01*
G01X9774283Y413699D01*
G01X9754556Y424375D01*
G01X9733340Y431658D01*
G01X9711215Y435350D01*
G01X9688784Y435350D01*
G01X9666660Y431658D01*
G01X9645444Y424375D01*
G01X9625717Y413699D01*
G01X9608016Y399922D01*
G01X9592824Y383419D01*
G01X9580555Y364640D01*
G01X9571545Y344099D01*
G01X9566038Y322354D01*
G01X9564186Y300000D01*
G01X435814Y300000D01*
G01X433962Y322354D01*
G01X428455Y344099D01*
G01X419445Y364640D01*
G01X407176Y383419D01*
G01X391984Y399922D01*
G01X374283Y413699D01*
G01X354556Y424375D01*
G01X333340Y431658D01*
G01X311215Y435350D01*
G01X288784Y435350D01*
G01X266660Y431658D01*
G01X245444Y424375D01*
G01X225717Y413699D01*
G01X208016Y399922D01*
G01X192824Y383419D01*
G01X180555Y364640D01*
G01X171545Y344099D01*
G01X166038Y322354D01*
G01X164186Y300000D01*
G01X35814Y300000D01*
G01X35814Y300000D01*
G01X35814Y807719D01*
G01X5090386Y807719D01*
G01X5092298Y791969D01*
G01X5097925Y777134D01*
G01X5106938Y764076D01*
G01X5118813Y753555D01*
G01X5132862Y746182D01*
G01X5148267Y742385D01*
G01X5164133Y742385D01*
G01X5179538Y746182D01*
G01X5193587Y753555D01*
G01X5205462Y764076D01*
G01X5214475Y777134D01*
G01X5220102Y791969D01*
G01X5222014Y807719D01*
G01X5220102Y823469D01*
G01X5214475Y838304D01*
G01X5205462Y851362D01*
G01X5193587Y861883D01*
G01X5179538Y869256D01*
G01X5164133Y873053D01*
G01X5148267Y873053D01*
G01X5132862Y869256D01*
G01X5118813Y861883D01*
G01X5106938Y851362D01*
G01X5097925Y838304D01*
G01X5092298Y823469D01*
G01X5090386Y807719D01*
G01X5090386Y807719D01*
G01X35814Y807719D01*
G01X35814Y2730500D01*
G01X759686Y2730500D01*
G01X761598Y2714750D01*
G01X767225Y2699915D01*
G01X776238Y2686857D01*
G01X788113Y2676336D01*
G01X802162Y2668963D01*
G01X817567Y2665166D01*
G01X833433Y2665166D01*
G01X848838Y2668963D01*
G01X862887Y2676336D01*
G01X874762Y2686857D01*
G01X883775Y2699915D01*
G01X889402Y2714750D01*
G01X891314Y2730500D01*
G01X889402Y2746250D01*
G01X883775Y2761085D01*
G01X874762Y2774143D01*
G01X862887Y2784664D01*
G01X848838Y2792037D01*
G01X833433Y2795834D01*
G01X817567Y2795834D01*
G01X802162Y2792037D01*
G01X788113Y2784664D01*
G01X776238Y2774143D01*
G01X767225Y2761085D01*
G01X761598Y2746250D01*
G01X759686Y2730500D01*
G01X759686Y2730500D01*
G01X35814Y2730500D01*
G01X35814Y4076700D01*
G01X4439786Y4076700D01*
G01X4439786Y3760064D01*
G01X4441262Y3748853D01*
G01X4445589Y3738407D01*
G01X4452472Y3729436D01*
G01X4509426Y3672483D01*
G01X4509426Y3614400D01*
G01X4510998Y3603904D01*
G01X4515578Y3594329D01*
G01X4522763Y3586517D01*
G01X4531921Y3581154D01*
G01X4542250Y3578711D01*
G01X4542250Y3571389D01*
G01X4531921Y3568946D01*
G01X4522763Y3563583D01*
G01X4515578Y3555771D01*
G01X4510998Y3546196D01*
G01X4509426Y3535700D01*
G01X4509426Y3449300D01*
G01X4511179Y3438233D01*
G01X4516266Y3428249D01*
G01X4524189Y3420326D01*
G01X4534173Y3415239D01*
G01X4545240Y3413486D01*
G01X4625887Y3413486D01*
G01X4635501Y3414800D01*
G01X4644409Y3418647D01*
G01X4651958Y3424744D01*
G01X4657593Y3432644D01*
G01X4660900Y3441766D01*
G01X4664207Y3432644D01*
G01X4669842Y3424744D01*
G01X4677391Y3418647D01*
G01X4686299Y3414800D01*
G01X4695913Y3413486D01*
G01X4753995Y3413486D01*
G01X4757157Y3410324D01*
G01X4759424Y3408214D01*
G01X4690902Y3408214D01*
G01X4679262Y3406269D01*
G01X4668886Y3400647D01*
G01X4660900Y3391957D01*
G01X4652914Y3400647D01*
G01X4642538Y3406269D01*
G01X4630898Y3408214D01*
G01X4550898Y3408214D01*
G01X4539831Y3406461D01*
G01X4529847Y3401374D01*
G01X4521924Y3393451D01*
G01X4516837Y3383467D01*
G01X4515084Y3372400D01*
G01X4515084Y3282400D01*
G01X4516837Y3271333D01*
G01X4521924Y3261349D01*
G01X4529847Y3253426D01*
G01X4539831Y3248339D01*
G01X4550898Y3246586D01*
G01X4630898Y3246586D01*
G01X4642538Y3248531D01*
G01X4652914Y3254153D01*
G01X4660900Y3262843D01*
G01X4668886Y3254153D01*
G01X4679262Y3248531D01*
G01X4690902Y3246586D01*
G01X4766633Y3246586D01*
G01X4750461Y3230414D01*
G01X4690902Y3230414D01*
G01X4679262Y3228469D01*
G01X4668886Y3222847D01*
G01X4660900Y3214157D01*
G01X4652914Y3222847D01*
G01X4642538Y3228469D01*
G01X4630898Y3230414D01*
G01X4550898Y3230414D01*
G01X4539831Y3228661D01*
G01X4529847Y3223574D01*
G01X4521924Y3215651D01*
G01X4516837Y3205667D01*
G01X4515084Y3194600D01*
G01X4515084Y3104600D01*
G01X4516837Y3093533D01*
G01X4521924Y3083549D01*
G01X4529847Y3075626D01*
G01X4539831Y3070539D01*
G01X4550898Y3068786D01*
G01X4630898Y3068786D01*
G01X4642538Y3070731D01*
G01X4652914Y3076353D01*
G01X4660900Y3085043D01*
G01X4668886Y3076353D01*
G01X4679262Y3070731D01*
G01X4690902Y3068786D01*
G01X4735594Y3068786D01*
G01X4713883Y3047074D01*
G01X4655800Y3047074D01*
G01X4655800Y3047074D01*
G01X4644733Y3045321D01*
G01X4634749Y3040234D01*
G01X4626826Y3032311D01*
G01X4621739Y3022327D01*
G01X4619986Y3011260D01*
G01X4619986Y2930613D01*
G01X4621300Y2920999D01*
G01X4625147Y2912091D01*
G01X4631244Y2904542D01*
G01X4639144Y2898907D01*
G01X4648266Y2895600D01*
G01X4639144Y2892293D01*
G01X4631244Y2886658D01*
G01X4625147Y2879109D01*
G01X4621300Y2870201D01*
G01X4619986Y2860587D01*
G01X4619986Y2842514D01*
G01X4552973Y2842514D01*
G01X4540669Y2851416D01*
G01X4526651Y2857261D01*
G01X4511667Y2859738D01*
G01X4496514Y2858713D01*
G01X4482000Y2854243D01*
G01X4468896Y2846565D01*
G01X4457902Y2836087D01*
G01X4449602Y2823368D01*
G01X4444438Y2809086D01*
G01X4442686Y2794000D01*
G01X4444438Y2778914D01*
G01X4449602Y2764632D01*
G01X4457902Y2751913D01*
G01X4468896Y2741435D01*
G01X4482000Y2733757D01*
G01X4496514Y2729287D01*
G01X4511667Y2728262D01*
G01X4526651Y2730739D01*
G01X4540669Y2736584D01*
G01X4552973Y2745486D01*
G01X4646023Y2745486D01*
G01X4655800Y2744126D01*
G01X4742200Y2744126D01*
G01X4752542Y2745651D01*
G01X4762002Y2750098D01*
G01X4769776Y2757087D01*
G01X4775200Y2766024D01*
G01X4780679Y2757021D01*
G01X4788542Y2750003D01*
G01X4785733Y2734899D01*
G01X4786502Y2719556D01*
G01X4790807Y2704809D01*
G01X4798414Y2691462D01*
G01X4808908Y2680242D01*
G01X4821716Y2671760D01*
G01X4836143Y2666479D01*
G01X4851400Y2664686D01*
G01X4866657Y2666479D01*
G01X4881084Y2671760D01*
G01X4893892Y2680242D01*
G01X4904386Y2691462D01*
G01X4911993Y2704809D01*
G01X4916298Y2719556D01*
G01X4917067Y2734899D01*
G01X4914258Y2750003D01*
G01X4922121Y2757021D01*
G01X4927600Y2766024D01*
G01X4932193Y2758130D01*
G01X4938633Y2751654D01*
G01X4946501Y2747018D01*
G01X4955286Y2744522D01*
G01X4955286Y2473101D01*
G01X4945422Y2461588D01*
G01X4938454Y2448123D01*
G01X4934752Y2433421D01*
G01X4934512Y2418262D01*
G01X4937748Y2403451D01*
G01X4944287Y2389773D01*
G01X4953782Y2377954D01*
G01X4965730Y2368621D01*
G01X4979497Y2362270D01*
G01X4994351Y2359238D01*
G01X5009506Y2359685D01*
G01X5024155Y2363588D01*
G01X5037523Y2370740D01*
G01X5048900Y2380761D01*
G01X5057682Y2393119D01*
G01X5063403Y2407159D01*
G01X5065760Y2422136D01*
G01X5064626Y2437254D01*
G01X5060064Y2451712D01*
G01X5052314Y2464743D01*
G01X5052314Y2744522D01*
G01X5061099Y2747018D01*
G01X5068967Y2751654D01*
G01X5075407Y2758130D01*
G01X5080000Y2766024D01*
G01X5085479Y2757021D01*
G01X5093342Y2750003D01*
G01X5090533Y2734899D01*
G01X5091302Y2719556D01*
G01X5095607Y2704809D01*
G01X5103214Y2691462D01*
G01X5113708Y2680242D01*
G01X5126516Y2671760D01*
G01X5140943Y2666479D01*
G01X5156200Y2664686D01*
G01X5171457Y2666479D01*
G01X5185884Y2671760D01*
G01X5198692Y2680242D01*
G01X5209186Y2691462D01*
G01X5216793Y2704809D01*
G01X5221098Y2719556D01*
G01X5221867Y2734899D01*
G01X5219058Y2750003D01*
G01X5226921Y2757021D01*
G01X5232400Y2766024D01*
G01X5237824Y2757087D01*
G01X5245598Y2750098D01*
G01X5255058Y2745651D01*
G01X5265400Y2744126D01*
G01X5351800Y2744126D01*
G01X5362551Y2745778D01*
G01X5372310Y2750580D01*
G01X5395248Y2727643D01*
G01X5397654Y2712647D01*
G01X5403433Y2698602D01*
G01X5412277Y2686256D01*
G01X5423716Y2676266D01*
G01X5437140Y2669163D01*
G01X5451835Y2665327D01*
G01X5467018Y2664962D01*
G01X5481881Y2668086D01*
G01X5495631Y2674534D01*
G01X5507537Y2683963D01*
G01X5516966Y2695869D01*
G01X5523414Y2709619D01*
G01X5526538Y2724482D01*
G01X5526393Y2730500D01*
G01X9128986Y2730500D01*
G01X9130898Y2714750D01*
G01X9136525Y2699915D01*
G01X9145538Y2686857D01*
G01X9157413Y2676336D01*
G01X9171462Y2668963D01*
G01X9186867Y2665166D01*
G01X9202733Y2665166D01*
G01X9218138Y2668963D01*
G01X9232187Y2676336D01*
G01X9244062Y2686857D01*
G01X9253075Y2699915D01*
G01X9258702Y2714750D01*
G01X9260614Y2730500D01*
G01X9258702Y2746250D01*
G01X9253075Y2761085D01*
G01X9244062Y2774143D01*
G01X9232187Y2784664D01*
G01X9218138Y2792037D01*
G01X9202733Y2795834D01*
G01X9186867Y2795834D01*
G01X9171462Y2792037D01*
G01X9157413Y2784664D01*
G01X9145538Y2774143D01*
G01X9136525Y2761085D01*
G01X9130898Y2746250D01*
G01X9128986Y2730500D01*
G01X9128986Y2730500D01*
G01X5526393Y2730500D01*
G01X5526173Y2739665D01*
G01X5522337Y2754360D01*
G01X5515234Y2767784D01*
G01X5505244Y2779223D01*
G01X5492898Y2788067D01*
G01X5478853Y2793846D01*
G01X5463857Y2796252D01*
G01X5405541Y2854568D01*
G01X5397017Y2861361D01*
G01X5387191Y2866079D01*
G01X5383968Y2876332D01*
G01X5377848Y2885167D01*
G01X5369383Y2891788D01*
G01X5359334Y2895600D01*
G01X5368456Y2898907D01*
G01X5376356Y2904542D01*
G01X5382453Y2912091D01*
G01X5386300Y2920999D01*
G01X5387614Y2930613D01*
G01X5387614Y3011260D01*
G01X5385861Y3022327D01*
G01X5380774Y3032311D01*
G01X5372851Y3040234D01*
G01X5362867Y3045321D01*
G01X5351800Y3047074D01*
G01X5293717Y3047074D01*
G01X5276734Y3064058D01*
G01X5282325Y3066852D01*
G01X5294972Y3061674D01*
G01X5308550Y3060128D01*
G01X5322038Y3062330D01*
G01X5334419Y3068114D01*
G01X5344763Y3077045D01*
G01X5352291Y3088450D01*
G01X5356436Y3101472D01*
G01X5363212Y3105310D01*
G01X5369191Y3110300D01*
G01X5407217Y3148326D01*
G01X5507186Y3048356D01*
G01X5507186Y2988798D01*
G01X5508939Y2977731D01*
G01X5514026Y2967747D01*
G01X5521949Y2959824D01*
G01X5531933Y2954737D01*
G01X5543000Y2952984D01*
G01X5633000Y2952984D01*
G01X5644067Y2954737D01*
G01X5654051Y2959824D01*
G01X5661974Y2967747D01*
G01X5667061Y2977731D01*
G01X5668814Y2988798D01*
G01X5668814Y3048356D01*
G01X5694828Y3074370D01*
G01X5701711Y3083341D01*
G01X5706038Y3093787D01*
G01X5707514Y3104998D01*
G01X5707514Y3248386D01*
G01X5757295Y3248386D01*
G01X5875909Y3129772D01*
G01X5880308Y3125930D01*
G01X5889756Y3114171D01*
G01X5901634Y3104871D01*
G01X5915316Y3098521D01*
G01X5930085Y3095452D01*
G01X5945165Y3095827D01*
G01X5959763Y3099626D01*
G01X5973113Y3106649D01*
G01X5984514Y3116526D01*
G01X5993366Y3128741D01*
G01X5999204Y3142649D01*
G01X6001722Y3157522D01*
G01X6000788Y3172578D01*
G01X5996450Y3187025D01*
G01X5988937Y3200105D01*
G01X5978642Y3211131D01*
G01X5966108Y3219523D01*
G01X5951992Y3224841D01*
G01X5937036Y3226806D01*
G01X5922026Y3225313D01*
G01X5907749Y3220442D01*
G01X5815674Y3312517D01*
G01X5815674Y3370600D01*
G01X5814149Y3380942D01*
G01X5809702Y3390402D01*
G01X5802713Y3398176D01*
G01X5793776Y3403600D01*
G01X5802691Y3409006D01*
G01X5809670Y3416750D01*
G01X5814124Y3426177D01*
G01X5815674Y3436486D01*
G01X6267595Y3436486D01*
G01X6267595Y3244794D01*
G01X6269348Y3233727D01*
G01X6274435Y3223743D01*
G01X6282358Y3215820D01*
G01X6292342Y3210733D01*
G01X6303409Y3208980D01*
G01X6483408Y3208980D01*
G01X6494476Y3210733D01*
G01X6504459Y3215820D01*
G01X6512383Y3223743D01*
G01X6517470Y3233727D01*
G01X6519222Y3244794D01*
G01X6519222Y3436486D01*
G01X6832600Y3436486D01*
G01X6843810Y3437962D01*
G01X6854257Y3442289D01*
G01X6863228Y3449172D01*
G01X6914028Y3499972D01*
G01X6919385Y3506492D01*
G01X6948387Y3506492D01*
G01X6957989Y3507803D01*
G01X6966889Y3511641D01*
G01X6974433Y3517724D01*
G01X6980070Y3525607D01*
G01X6983387Y3534713D01*
G01X6985928Y3527170D01*
G01X6990073Y3520375D01*
G01X6991541Y3509143D01*
G01X6995868Y3498675D01*
G01X7002759Y3489685D01*
G01X7030572Y3461872D01*
G01X7039543Y3454989D01*
G01X7049990Y3450662D01*
G01X7061200Y3449186D01*
G01X7213600Y3449186D01*
G01X7224810Y3450662D01*
G01X7235257Y3454989D01*
G01X7244228Y3461872D01*
G01X7247579Y3465223D01*
G01X7247578Y3464946D01*
G01X7247578Y3244947D01*
G01X7249330Y3233879D01*
G01X7254417Y3223896D01*
G01X7262341Y3215972D01*
G01X7272324Y3210885D01*
G01X7283392Y3209133D01*
G01X7463391Y3209133D01*
G01X7474458Y3210885D01*
G01X7484442Y3215972D01*
G01X7492365Y3223896D01*
G01X7497452Y3233879D01*
G01X7499205Y3244947D01*
G01X7499205Y3464946D01*
G01X7497452Y3476013D01*
G01X7492365Y3485997D01*
G01X7484442Y3493920D01*
G01X7474458Y3499007D01*
G01X7463391Y3500760D01*
G01X7283392Y3500760D01*
G01X7283114Y3500759D01*
G01X7510928Y3728572D01*
G01X7517811Y3737543D01*
G01X7522138Y3747990D01*
G01X7523614Y3759200D01*
G01X7523614Y4152900D01*
G01X7522138Y4164110D01*
G01X7517811Y4174557D01*
G01X7510928Y4183528D01*
G01X7358528Y4335928D01*
G01X7357654Y4336598D01*
G01X7512189Y4336598D01*
G01X7513942Y4325531D01*
G01X7519029Y4315547D01*
G01X7526953Y4307624D01*
G01X7536936Y4302537D01*
G01X7548003Y4300784D01*
G01X7698003Y4300784D01*
G01X7709070Y4302537D01*
G01X7719054Y4307624D01*
G01X7726977Y4315547D01*
G01X7732064Y4325531D01*
G01X7733817Y4336598D01*
G01X7733817Y4676597D01*
G01X7732064Y4687664D01*
G01X7726977Y4697648D01*
G01X7719054Y4705571D01*
G01X7709070Y4710658D01*
G01X7698003Y4712411D01*
G01X7548003Y4712411D01*
G01X7536936Y4710658D01*
G01X7526953Y4705571D01*
G01X7519029Y4697648D01*
G01X7513942Y4687664D01*
G01X7512189Y4676597D01*
G01X7512189Y4336598D01*
G01X7512189Y4336598D01*
G01X7357654Y4336598D01*
G01X7349557Y4342811D01*
G01X7339110Y4347138D01*
G01X7327900Y4348614D01*
G01X6247816Y4348614D01*
G01X6247816Y4676597D01*
G01X6246063Y4687664D01*
G01X6240976Y4697648D01*
G01X6233052Y4705571D01*
G01X6223069Y4710658D01*
G01X6212002Y4712411D01*
G01X6062002Y4712411D01*
G01X6050935Y4710658D01*
G01X6040951Y4705571D01*
G01X6033028Y4697648D01*
G01X6027941Y4687664D01*
G01X6026188Y4676597D01*
G01X6026188Y4348614D01*
G01X5690464Y4348614D01*
G01X5679253Y4347138D01*
G01X5668807Y4342811D01*
G01X5659836Y4335928D01*
G01X5374283Y4050374D01*
G01X5316200Y4050374D01*
G01X5305858Y4048849D01*
G01X5296398Y4044402D01*
G01X5288624Y4037413D01*
G01X5283200Y4028476D01*
G01X5277776Y4037413D01*
G01X5270002Y4044402D01*
G01X5260542Y4048849D01*
G01X5250200Y4050374D01*
G01X5163800Y4050374D01*
G01X5152733Y4048621D01*
G01X5142749Y4043534D01*
G01X5134826Y4035611D01*
G01X5129739Y4025627D01*
G01X5127986Y4014560D01*
G01X5127986Y3982741D01*
G01X5084350Y3939106D01*
G01X5084350Y3950564D01*
G01X5082874Y3961774D01*
G01X5078547Y3972221D01*
G01X5071664Y3981191D01*
G01X4945514Y4107341D01*
G01X4945514Y4137900D01*
G01X4944038Y4149111D01*
G01X4939711Y4159557D01*
G01X4932828Y4168528D01*
G01X4917828Y4183528D01*
G01X4908857Y4190411D01*
G01X4898411Y4194738D01*
G01X4887200Y4196214D01*
G01X4559300Y4196214D01*
G01X4548090Y4194738D01*
G01X4537643Y4190411D01*
G01X4528672Y4183528D01*
G01X4452472Y4107328D01*
G01X4445589Y4098357D01*
G01X4441262Y4087910D01*
G01X4439786Y4076700D01*
G01X35814Y4076700D01*
G01X35814Y5194300D01*
G01X4264886Y5194300D01*
G01X4266798Y5178550D01*
G01X4272425Y5163715D01*
G01X4281438Y5150657D01*
G01X4293313Y5140136D01*
G01X4307362Y5132763D01*
G01X4322767Y5128966D01*
G01X4338633Y5128966D01*
G01X4354038Y5132763D01*
G01X4368087Y5140136D01*
G01X4379962Y5150657D01*
G01X4388975Y5163715D01*
G01X4394602Y5178550D01*
G01X4396514Y5194300D01*
G01X4394602Y5210050D01*
G01X4388975Y5224885D01*
G01X4379962Y5237943D01*
G01X4368087Y5248464D01*
G01X4354038Y5255837D01*
G01X4338633Y5259634D01*
G01X4322767Y5259634D01*
G01X4307362Y5255837D01*
G01X4293313Y5248464D01*
G01X4281438Y5237943D01*
G01X4272425Y5224885D01*
G01X4266798Y5210050D01*
G01X4264886Y5194300D01*
G01X4264886Y5194300D01*
G01X35814Y5194300D01*
G01X35814Y5700000D01*
G37*
G36*
G01X4545240Y3908786D02*
G01X4625887Y3908786D01*
G01X4630286Y3909057D01*
G01X4630286Y3901443D01*
G01X4625887Y3901714D01*
G01X4545240Y3901714D01*
G01X4535455Y3900352D01*
G01X4526414Y3896367D01*
G01X4526414Y3914133D01*
G01X4535455Y3910148D01*
G01X4545240Y3908786D01*
G37*
G36*
G01X4997722Y3901589D02*
G01X4991673Y3900555D01*
G01X4985889Y3898503D01*
G01X4980815Y3904605D01*
G01X4869314Y4016106D01*
G01X4869314Y4036300D01*
G01X4867838Y4047511D01*
G01X4863511Y4057957D01*
G01X4856628Y4066928D01*
G01X4841628Y4081928D01*
G01X4832657Y4088811D01*
G01X4822211Y4093138D01*
G01X4811000Y4094614D01*
G01X4686300Y4094614D01*
G01X4675090Y4093138D01*
G01X4664643Y4088811D01*
G01X4655672Y4081928D01*
G01X4642972Y4069228D01*
G01X4638810Y4064402D01*
G01X4632460Y4066206D01*
G01X4625887Y4066814D01*
G01X4545240Y4066814D01*
G01X4538440Y4066163D01*
G01X4531887Y4064232D01*
G01X4577241Y4109586D01*
G01X4858886Y4109586D01*
G01X4858886Y4089400D01*
G01X4860362Y4078190D01*
G01X4864689Y4067743D01*
G01X4871572Y4058772D01*
G01X4997722Y3932622D01*
G01X4997722Y3901589D01*
G37*
G36*
G01X4625887Y3743686D02*
G01X4630286Y3743957D01*
G01X4630286Y3736343D01*
G01X4625887Y3736614D01*
G01X4567805Y3736614D01*
G01X4560733Y3743686D01*
G01X4625887Y3743686D01*
G37*
G36*
G01X4830395Y3321339D02*
G01X4833142Y3315857D01*
G01X4830375Y3310328D01*
G01X4806716Y3286669D01*
G01X4806716Y3297661D01*
G01X4830395Y3321339D01*
G37*
G36*
G01X5506572Y3296772D02*
G01X5512726Y3291663D01*
G01X5512726Y3284200D01*
G01X5514479Y3273133D01*
G01X5519566Y3263149D01*
G01X5527489Y3255226D01*
G01X5537473Y3250139D01*
G01X5548540Y3248386D01*
G01X5620886Y3248386D01*
G01X5620886Y3244616D01*
G01X5543000Y3244616D01*
G01X5531933Y3242863D01*
G01X5521949Y3237776D01*
G01X5514026Y3229853D01*
G01X5508939Y3219869D01*
G01X5507186Y3208802D01*
G01X5507186Y3170867D01*
G01X5472955Y3205097D01*
G01X5481095Y3215445D01*
G01X5486240Y3227562D01*
G01X5488030Y3240605D01*
G01X5486342Y3253661D01*
G01X5481292Y3265819D01*
G01X5486317Y3277883D01*
G01X5488031Y3290838D01*
G01X5486317Y3303793D01*
G01X5481292Y3315857D01*
G01X5483414Y3319931D01*
G01X5506572Y3296772D01*
G37*
G36*
G01X7094188Y4096757D02*
G01X7094188Y3776608D01*
G01X7095760Y3766115D01*
G01X7032765Y3703121D01*
G01X7018387Y3703121D01*
G01X7008785Y3701809D01*
G01X6999886Y3697972D01*
G01X6992341Y3691888D01*
G01X6986704Y3684005D01*
G01X6983387Y3674899D01*
G01X6980070Y3684005D01*
G01X6974433Y3691888D01*
G01X6966889Y3697972D01*
G01X6957989Y3701809D01*
G01X6948387Y3703121D01*
G01X6926714Y3703121D01*
G01X6926714Y3740945D01*
G01X6930002Y3740794D01*
G01X7030002Y3740794D01*
G01X7041069Y3742547D01*
G01X7051053Y3747634D01*
G01X7058976Y3755557D01*
G01X7064063Y3765541D01*
G01X7065816Y3776608D01*
G01X7065816Y4125129D01*
G01X7094188Y4096757D01*
G37*
G54D10*
G01X4830395Y3321339D02*
G03X4833142Y3315857I45824J19537D01*
G03X4830375Y3310328I43076J-25019D01*
G01X4806716Y3286669D01*
G01X4806716Y3297661D01*
G01X4830395Y3321339D01*
G01X35814Y5700000D02*
G02X300000Y5964186I264186J0D01*
G01X9700000Y5964186D01*
G02X9964186Y5700000I0J-264186D01*
G01X9964186Y300000D01*
G02X9700000Y35814I-264186J0D01*
G01X300000Y35814D01*
G02X35814Y300000I0J264186D01*
G01X35814Y5700000D01*
G01X435814Y5700000D02*
G03X164186Y5700000I-135814J0D01*
G03X435814Y5700000I135814J0D01*
G01X435814Y300000D02*
G03X164186Y300000I-135814J0D01*
G03X435814Y300000I135814J0D01*
G01X759686Y2730500D02*
G03X891314Y2730500I65814J0D01*
G03X759686Y2730500I-65814J0D01*
G01X4264886Y5194300D02*
G03X4396514Y5194300I65814J0D01*
G03X4264886Y5194300I-65814J0D01*
G01X4655800Y3047074D02*
G03X4619986Y3011260I0J-35814D01*
G01X4619986Y2930613D01*
G03X4648266Y2895600I35814J0D01*
G03X4619986Y2860587I7534J-35013D01*
G01X4619986Y2842514D01*
G01X4552973Y2842514D01*
G03X4442686Y2794000I-44473J-48514D01*
G03X4552973Y2745486I65814J0D01*
G01X4646023Y2745486D01*
G03X4655800Y2744126I9776J34454D01*
G01X4742200Y2744126D01*
G03X4775200Y2766024I0J35814D01*
G03X4788542Y2750003I33000J13916D01*
G03X4851400Y2664686I62858J-19503D01*
G03X4914258Y2750003I0J65814D01*
G03X4927600Y2766024I-19658J29937D01*
G03X4955286Y2744522I33000J13916D01*
G01X4955286Y2473101D01*
G03X4994351Y2359238I44714J-48292D01*
G03X5052314Y2464743I5649J65571D01*
G01X5052314Y2744522D01*
G03X5080000Y2766024I-5314J35418D01*
G03X5093342Y2750003I33000J13916D01*
G03X5156200Y2664686I62858J-19503D01*
G03X5219058Y2750003I0J65814D01*
G03X5232400Y2766024I-19658J29937D01*
G03X5265400Y2744126I33000J13916D01*
G01X5351800Y2744126D01*
G03X5372310Y2750580I0J35814D01*
G01X5395248Y2727643D01*
G03X5507537Y2683963I65752J2857D01*
G03X5463857Y2796252I-46537J46537D01*
G01X5405541Y2854568D01*
G03X5387191Y2866079I-34305J-34305D01*
G03X5359334Y2895600I-35390J-5492D01*
G03X5387614Y2930613I-7534J35013D01*
G01X5387614Y3011260D01*
G03X5351800Y3047074I-35814J0D01*
G01X5293717Y3047074D01*
G01X5276734Y3064058D01*
G03X5282325Y3066852I-19428J45870D01*
G03X5356436Y3101472I25019J43076D01*
G03X5369191Y3110300I-17873J39455D01*
G01X5407217Y3148326D01*
G01X5507186Y3048356D01*
G01X5507186Y2988798D01*
G03X5543000Y2952984I35814J0D01*
G01X5633000Y2952984D01*
G03X5668814Y2988798I0J35814D01*
G01X5668814Y3048356D01*
G01X5694828Y3074370D01*
G03X5707514Y3104998I-30628J30628D01*
G01X5707514Y3248386D01*
G01X5757295Y3248386D01*
G01X5875909Y3129772D01*
G03X5880308Y3125930I30628J30628D01*
G03X5999204Y3142649I55692J35070D01*
G03X5907749Y3220442I-63204J18351D01*
G01X5815674Y3312517D01*
G01X5815674Y3370600D01*
G03X5793776Y3403600I-35814J0D01*
G03X5815674Y3436486I-13916J33000D01*
G01X6267595Y3436486D01*
G01X6267595Y3244794D01*
G03X6303409Y3208980I35814J0D01*
G01X6483408Y3208980D01*
G03X6519222Y3244794I0J35814D01*
G01X6519222Y3436486D01*
G01X6832600Y3436486D01*
G03X6863228Y3449172I0J43314D01*
G01X6914028Y3499972D01*
G03X6919385Y3506492I-30628J30628D01*
G01X6948387Y3506492D01*
G03X6983387Y3534713I0J35814D01*
G03X6990073Y3520375I35000J7593D01*
G03X7002759Y3489685I43351J-46D01*
G01X7030572Y3461872D01*
G03X7061200Y3449186I30628J30628D01*
G01X7213600Y3449186D01*
G03X7244228Y3461872I0J43314D01*
G01X7247579Y3465223D01*
G01X7247578Y3464946D01*
G01X7247578Y3244947D01*
G03X7283392Y3209133I35814J0D01*
G01X7463391Y3209133D01*
G03X7499205Y3244947I0J35814D01*
G01X7499205Y3464946D01*
G03X7463391Y3500760I-35814J0D01*
G01X7283392Y3500760D01*
G01X7283114Y3500759D01*
G01X7510928Y3728572D01*
G03X7523614Y3759200I-30628J30628D01*
G01X7523614Y4152900D01*
G03X7510928Y4183528I-43314J0D01*
G01X7358528Y4335928D01*
G03X7327900Y4348614I-30628J-30628D01*
G01X6247816Y4348614D01*
G01X6247816Y4676597D01*
G03X6212002Y4712411I-35814J0D01*
G01X6062002Y4712411D01*
G03X6026188Y4676597I0J-35814D01*
G01X6026188Y4348614D01*
G01X5690464Y4348614D01*
G03X5659836Y4335928I0J-43314D01*
G01X5374283Y4050374D01*
G01X5316200Y4050374D01*
G03X5283200Y4028476I0J-35814D01*
G03X5250200Y4050374I-33000J-13916D01*
G01X5163800Y4050374D01*
G03X5127986Y4014560I0J-35814D01*
G01X5127986Y3982741D01*
G01X5084350Y3939106D01*
G01X5084350Y3950564D01*
G03X5071664Y3981191I-43314J0D01*
G01X4945514Y4107341D01*
G01X4945514Y4137900D01*
G03X4932828Y4168528I-43314J0D01*
G01X4917828Y4183528D01*
G03X4887200Y4196214I-30628J-30628D01*
G01X4559300Y4196214D01*
G03X4528672Y4183528I0J-43314D01*
G01X4452472Y4107328D01*
G03X4439786Y4076700I30628J-30628D01*
G01X4439786Y3760064D01*
G03X4452472Y3729436I43314J0D01*
G01X4509426Y3672483D01*
G01X4509426Y3614400D01*
G03X4542250Y3578711I35814J0D01*
G01X4542250Y3571389D01*
G03X4509426Y3535700I2990J-35689D01*
G01X4509426Y3449300D01*
G03X4545240Y3413486I35814J0D01*
G01X4625887Y3413486D01*
G03X4660900Y3441766I0J35814D01*
G03X4695913Y3413486I35013J7534D01*
G01X4753995Y3413486D01*
G01X4757157Y3410324D01*
G03X4759424Y3408214I30628J30628D01*
G01X4690902Y3408214D01*
G03X4660900Y3391957I0J-35814D01*
G03X4630898Y3408214I-30002J-19557D01*
G01X4550898Y3408214D01*
G03X4515084Y3372400I0J-35814D01*
G01X4515084Y3282400D01*
G03X4550898Y3246586I35814J0D01*
G01X4630898Y3246586D01*
G03X4660900Y3262843I0J35814D01*
G03X4690902Y3246586I30002J19557D01*
G01X4766633Y3246586D01*
G01X4750461Y3230414D01*
G01X4690902Y3230414D01*
G03X4660900Y3214157I0J-35814D01*
G03X4630898Y3230414I-30002J-19557D01*
G01X4550898Y3230414D01*
G03X4515084Y3194600I0J-35814D01*
G01X4515084Y3104600D01*
G03X4550898Y3068786I35814J0D01*
G01X4630898Y3068786D01*
G03X4660900Y3085043I0J35814D01*
G03X4690902Y3068786I30002J19557D01*
G01X4735594Y3068786D01*
G01X4713883Y3047074D01*
G01X4655800Y3047074D01*
G01X5090386Y807719D02*
G03X5222014Y807719I65814J0D01*
G03X5090386Y807719I-65814J0D01*
G01X7512189Y4336598D02*
G03X7548003Y4300784I35814J0D01*
G01X7698003Y4300784D01*
G03X7733817Y4336598I0J35814D01*
G01X7733817Y4676597D01*
G03X7698003Y4712411I-35814J0D01*
G01X7548003Y4712411D01*
G03X7512189Y4676597I0J-35814D01*
G01X7512189Y4336598D01*
G01X9128986Y2730500D02*
G03X9260614Y2730500I65814J0D01*
G03X9128986Y2730500I-65814J0D01*
G01X9835814Y5700000D02*
G03X9564186Y5700000I-135814J0D01*
G03X9835814Y5700000I135814J0D01*
G01X9835814Y300000D02*
G03X9564186Y300000I-135814J0D01*
G03X9835814Y300000I135814J0D01*
G01X4545240Y3908786D02*
G01X4625887Y3908786D01*
G03X4630286Y3909057I0J35814D01*
G01X4630286Y3901443D01*
G03X4625887Y3901714I-4399J-35543D01*
G01X4545240Y3901714D01*
G03X4526414Y3896367I0J-35814D01*
G01X4526414Y3914133D01*
G03X4545240Y3908786I18826J30467D01*
G01X4997722Y3901589D02*
G03X4985889Y3898503I2990J-35689D01*
G03X4980815Y3904605I-35702J-24525D01*
G01X4869314Y4016106D01*
G01X4869314Y4036300D01*
G03X4856628Y4066928I-43314J0D01*
G01X4841628Y4081928D01*
G03X4811000Y4094614I-30628J-30628D01*
G01X4686300Y4094614D01*
G03X4655672Y4081928I0J-43314D01*
G01X4642972Y4069228D01*
G03X4638810Y4064402I30628J-30628D01*
G03X4625887Y4066814I-12922J-33401D01*
G01X4545240Y4066814D01*
G03X4531887Y4064232I0J-35814D01*
G01X4577241Y4109586D01*
G01X4858886Y4109586D01*
G01X4858886Y4089400D01*
G03X4871572Y4058772I43314J0D01*
G01X4997722Y3932622D01*
G01X4997722Y3901589D01*
G01X4625887Y3743686D02*
G03X4630286Y3743957I0J35814D01*
G01X4630286Y3736343D01*
G03X4625887Y3736614I-4399J-35543D01*
G01X4567805Y3736614D01*
G01X4560733Y3743686D01*
G01X4625887Y3743686D01*
G01X4830395Y3321339D02*
G03X4833142Y3315857I45824J19537D01*
G03X4830375Y3310328I43076J-25019D01*
G01X4806716Y3286669D01*
G01X4806716Y3297661D01*
G01X4830395Y3321339D01*
G01X5506572Y3296772D02*
G03X5512726Y3291663I30628J30628D01*
G01X5512726Y3284200D01*
G03X5548540Y3248386I35814J0D01*
G01X5620886Y3248386D01*
G01X5620886Y3244616D01*
G01X5543000Y3244616D01*
G03X5507186Y3208802I0J-35814D01*
G01X5507186Y3170867D01*
G01X5472955Y3205097D01*
G03X5481292Y3265819I-34739J35703D01*
G03X5481292Y3315857I-43076J25019D01*
G03X5483414Y3319931I-43076J25019D01*
G01X5506572Y3296772D01*
G01X7094188Y4096757D02*
G01X7094188Y3776608D01*
G03X7095760Y3766115I35814J0D01*
G01X7032765Y3703121D01*
G01X7018387Y3703121D01*
G03X6983387Y3674899I0J-35814D01*
G03X6948387Y3703121I-35000J-7593D01*
G01X6926714Y3703121D01*
G01X6926714Y3740945D01*
G03X6930002Y3740794I3288J35663D01*
G01X7030002Y3740794D01*
G03X7065816Y3776608I0J35814D01*
G01X7065816Y4125129D01*
G01X7094188Y4096757D01*
G54D11*
G01X4590898Y3372146D02*
G01X4590898Y3398054D01*
G01X4590898Y3282654D02*
G01X4590898Y3256746D01*
G01X4590898Y3194346D02*
G01X4590898Y3220254D01*
G01X4590898Y3104854D02*
G01X4590898Y3078946D01*
G01X5588000Y3208548D02*
G01X5588000Y3234456D01*
G01X6980002Y3776862D02*
G01X6980002Y3750954D01*
G01X4585564Y4030746D02*
G01X4585564Y4056654D01*
G01X4585564Y3944854D02*
G01X4585564Y3918946D01*
G01X4585564Y3865646D02*
G01X4585564Y3891554D01*
G01X4585564Y3779754D02*
G01X4585564Y3753846D01*
G01X4551152Y3327400D02*
G01X4525244Y3327400D01*
G01X4590898Y3372146D02*
G01X4590898Y3398054D01*
G01X4590898Y3282654D02*
G01X4590898Y3256746D01*
G01X4551152Y3149600D02*
G01X4525244Y3149600D01*
G01X4590898Y3194346D02*
G01X4590898Y3220254D01*
G01X4590898Y3104854D02*
G01X4590898Y3078946D01*
G01X5588000Y3208548D02*
G01X5588000Y3234456D01*
G01X6933387Y3542560D02*
G01X6933387Y3516652D01*
G01X6933387Y3667053D02*
G01X6933387Y3692961D01*
G01X7029748Y3951608D02*
G01X7055656Y3951608D01*
G01X6980002Y3776862D02*
G01X6980002Y3750954D01*
G04 Copper End*

G04 Pad Start*
G54D12*
G01X7133387Y3604806D03*
G01X7033387Y3604806D03*
G01X6933387Y3604806D03*
G01X6833387Y3604806D03*
G01X6733388Y3604806D03*
G01X6633388Y3604806D03*
G54D13*
G01X6393409Y3354794D03*
G01X7373391Y3354946D03*
G54D14*
G01X6137002Y4506598D03*
G54D15*
G01X7380001Y3951608D03*
G01X7180002Y3951608D03*
G01X6980002Y3951608D03*
G01X6780003Y3951608D03*
G01X6580003Y3951608D03*
G01X6380003Y3951608D03*
G54D14*
G01X7623003Y4506598D03*
G54D16*
G01X5739536Y3479800D03*
G01X5588864Y3479800D03*
G54D17*
G01X5207000Y3974236D03*
G01X5207000Y3823564D03*
G01X5359400Y3974236D03*
G01X5359400Y3823564D03*
G54D19*
G01X4585564Y3492500D03*
G01X4736236Y3492500D03*
G54D20*
G01X5157230Y3390914D03*
G54D21*
G01X5407217Y3240800D03*
G01X5407217Y3290838D03*
G01X5407217Y3340876D03*
G01X5407217Y3390914D03*
G01X5407217Y3440952D03*
G01X5407217Y3490990D03*
G01X5407217Y3541028D03*
G54D22*
G01X5307344Y3640926D03*
G01X5257306Y3640926D03*
G01X5207268Y3640926D03*
G01X5157230Y3640926D03*
G01X5107192Y3640926D03*
G01X5057154Y3640926D03*
G01X5007116Y3640926D03*
G54D21*
G01X4907218Y3541028D03*
G01X4907218Y3490990D03*
G01X4907218Y3440952D03*
G01X4907218Y3390914D03*
G01X4907218Y3340876D03*
G01X4907218Y3290838D03*
G01X4907218Y3240800D03*
G54D22*
G01X5007116Y3140927D03*
G01X5057154Y3140927D03*
G01X5107192Y3140927D03*
G01X5157230Y3140927D03*
G01X5207268Y3140927D03*
G01X5257306Y3140927D03*
G01X5307344Y3140927D03*
G54D23*
G01X5588000Y3028798D03*
G01X5588000Y3168802D03*
G54D24*
G01X4730902Y3327400D03*
G01X4590898Y3327400D03*
G01X4730902Y3149600D03*
G01X4590898Y3149600D03*
G54D19*
G01X4585564Y3657600D03*
G01X4736236Y3657600D03*
G54D16*
G01X4736236Y3822700D03*
G01X4585564Y3822700D03*
G01X5041036Y3822700D03*
G01X4890364Y3822700D03*
G01X4736236Y3987800D03*
G01X4585564Y3987800D03*
G54D17*
G01X5308600Y2970936D03*
G01X5308600Y2820264D03*
G01X5156200Y2970936D03*
G01X5156200Y2820264D03*
G01X5003800Y2970936D03*
G01X5003800Y2820264D03*
G01X4851400Y2970936D03*
G01X4851400Y2820264D03*
G01X4699000Y2970936D03*
G01X4699000Y2820264D03*
G54D19*
G01X5588864Y3327400D03*
G01X5739536Y3327400D03*
G54D25*
G01X300000Y5700000D03*
G01X9700000Y5700000D03*
G01X9700000Y300000D03*
G01X300000Y300000D03*
G04 Pad End*

G04 Via Start*
G54D26*
G01X825500Y2730500D03*
G01X4508500Y2794000D03*
G01X4851400Y2730500D03*
G01X5000000Y2424809D03*
G01X5156200Y2730500D03*
G01X5461000Y2730500D03*
G01X5936000Y3161000D03*
G01X9194800Y2730500D03*
G01X4330700Y5194300D03*
G01X5156200Y807719D03*
G04 Via End*

G04 Track Start*
G54D11*
G01X5461000Y2730500D02*
G01X5371236Y2820264D01*
G01X5308600Y2820264D01*
G01X5156200Y2730500D02*
G01X5156200Y2820264D01*
G01X5003800Y2428609D02*
G01X5003800Y2820264D01*
G01X5000000Y2424809D02*
G01X5003800Y2428609D01*
G01X4851400Y2730500D02*
G01X4851400Y2820264D01*
G01X4672736Y2794000D02*
G01X4699000Y2820264D01*
G01X4508500Y2794000D02*
G01X4672736Y2794000D01*
G54D27*
G01X5588000Y3028798D02*
G01X5407217Y3209581D01*
G01X5407217Y3240800D01*
G01X5307344Y3140927D02*
G01X5338563Y3140927D01*
G01X5407217Y3209581D01*
G01X5359400Y3974236D02*
G01X5207000Y3974236D01*
G01X4736236Y3822700D02*
G01X4736236Y3657600D01*
G01X4483100Y3760064D02*
G01X4585564Y3657600D01*
G01X4585564Y3492500D01*
G01X4736236Y3492500D02*
G01X4787784Y3440952D01*
G01X4907218Y3440952D01*
G01X4736236Y3657600D02*
G01X4826000Y3567836D01*
G01X4826000Y3530600D01*
G01X4865610Y3490990D01*
G01X4907218Y3490990D01*
G01X4730902Y3327400D02*
G01X4775200Y3327400D01*
G01X4838700Y3390900D01*
G01X4838714Y3390914D02*
G01X4907218Y3390914D01*
G01X4730902Y3149600D02*
G01X4872140Y3290838D01*
G01X4907218Y3290838D01*
G01X5308600Y2970936D02*
G01X5218836Y3060700D01*
G01X5194300Y3060700D01*
G01X5157230Y3097770D01*
G01X5157230Y3140927D01*
G01X5156200Y2970936D02*
G01X5156200Y3022600D01*
G01X5105400Y3073400D01*
G01X5105400Y3139135D01*
G01X5107192Y3140927D01*
G01X5003800Y2970936D02*
G01X5057154Y3024290D01*
G01X5057154Y3140927D01*
G01X4851400Y2970936D02*
G01X5007116Y3126652D01*
G01X5007116Y3140927D01*
G01X4699000Y2970936D02*
G01X4907218Y3179154D01*
G01X4907218Y3240800D01*
G01X5588864Y3327400D02*
G01X5537200Y3327400D01*
G01X5473700Y3390900D01*
G01X5473686Y3390914D02*
G01X5407217Y3390914D01*
G01X5588864Y3479800D02*
G01X5550016Y3440952D01*
G01X5407217Y3440952D01*
G01X5359400Y3823564D02*
G01X5359400Y3692982D01*
G01X5307344Y3640926D01*
G01X5207000Y3823564D02*
G01X5257306Y3773258D01*
G01X5257306Y3640926D01*
G01X5359400Y3823564D02*
G01X5931764Y3823564D01*
G01X6273800Y4165600D01*
G01X6515100Y4165600D01*
G01X6580003Y4100697D01*
G01X6580003Y3951608D01*
G01X5207000Y3823564D02*
G01X5248299Y3823564D01*
G01X5308122Y3883387D01*
G01X5915387Y3883387D01*
G01X6780003Y4078497D02*
G01X6780003Y3951608D01*
G01X5915387Y3883387D02*
G01X6248400Y4216400D01*
G01X6642100Y4216400D01*
G01X6780003Y4078497D01*
G01X5041036Y3950564D02*
G01X4902200Y4089400D01*
G01X5041036Y3822700D02*
G01X5041036Y3859936D01*
G01X5041036Y3950564D01*
G01X5207000Y3974236D02*
G01X5180736Y3974236D01*
G01X5066436Y3859936D01*
G01X5041036Y3859936D01*
G01X4890364Y3822700D02*
G01X4914900Y3798164D01*
G01X4914900Y3708400D01*
G01X4982374Y3640926D01*
G01X5007116Y3640926D01*
G01X4590898Y3327400D02*
G01X4597400Y3327400D01*
G01X4673600Y3251200D01*
G01X4790402Y3274323D02*
G01X4790402Y3279102D01*
G01X4673600Y3251200D02*
G01X4767279Y3251200D01*
G01X4790402Y3274323D01*
G01X4852176Y3340876D02*
G01X4907218Y3340876D01*
G01X4790402Y3279102D02*
G01X4852176Y3340876D01*
G01X4907218Y3340876D02*
G01X5107192Y3340876D01*
G01X5157230Y3390914D01*
G01X5207268Y3140927D02*
G01X5207268Y3340876D01*
G01X5157230Y3390914D01*
G01X5407217Y3290838D02*
G01X5257306Y3290838D01*
G01X5207268Y3340876D01*
G01X5588000Y3168802D02*
G01X5465964Y3290838D01*
G01X5407217Y3290838D01*
G01X6380003Y3951608D02*
G01X6124096Y3695700D01*
G01X5676900Y3695700D01*
G01X5588864Y3607664D01*
G01X5588864Y3479800D01*
G01X4736236Y3987800D02*
G01X4890364Y3833673D01*
G01X4890364Y3822700D01*
G01X4585564Y3987800D02*
G01X4585564Y3822700D01*
G01X4648200Y3760064D01*
G01X4648200Y3384702D02*
G01X4590898Y3327400D01*
G01X4648200Y3760064D02*
G01X4648200Y3384702D01*
G01X7380001Y3951608D02*
G01X7380001Y4126199D01*
G01X7239000Y4267200D01*
G01X6121400Y4267200D01*
G01X4673600Y3567836D02*
G01X4736236Y3505200D01*
G01X4736236Y3492500D01*
G01X7380001Y3951608D02*
G01X7380001Y3851421D01*
G01X7133387Y3604806D01*
G01X7180002Y3951608D02*
G01X7180002Y3789102D01*
G01X7033387Y3642487D02*
G01X7033387Y3604806D01*
G01X7180002Y3789102D02*
G01X7033387Y3642487D01*
G01X6980002Y3951608D02*
G01X6980002Y3651421D01*
G01X6933387Y3604806D01*
G01X6780003Y3951608D02*
G01X6781800Y3949810D01*
G01X6781800Y3656394D02*
G01X6833387Y3604806D01*
G01X6781800Y3949810D02*
G01X6781800Y3656394D01*
G01X6733388Y3604806D02*
G01X6733388Y3617112D01*
G01X6578600Y3771900D01*
G01X6578600Y3950204D01*
G01X6580003Y3951608D01*
G01X6633388Y3604806D02*
G01X6380003Y3858190D01*
G01X6380003Y3951608D01*
G01X4902200Y4089400D02*
G01X4902200Y4137900D01*
G01X4887200Y4152900D01*
G01X4559300Y4152900D01*
G01X4483100Y4076700D01*
G01X4483100Y3760064D01*
G01X7180002Y3951608D02*
G01X7180002Y4072198D01*
G01X7073900Y4178300D01*
G01X6921500Y4178300D01*
G01X6883400Y4140200D01*
G01X5739536Y3479800D02*
G01X5739536Y3478936D01*
G01X5664200Y3403600D01*
G01X5664200Y3104998D01*
G01X5588000Y3028798D01*
G01X6883400Y4140200D02*
G01X6883400Y3530600D01*
G01X6832600Y3479800D01*
G01X6495979Y3479800D01*
G01X6491486Y3484294D01*
G01X6295332Y3484294D01*
G01X6290838Y3479800D01*
G01X5739536Y3479800D01*
G01X4686300Y4051300D02*
G01X4673600Y4038600D01*
G01X4673600Y3567836D01*
G01X4826000Y4036300D02*
G01X4811000Y4051300D01*
G01X4686300Y4051300D01*
G01X4826000Y3998165D02*
G01X4826000Y4036300D01*
G01X4950187Y3774713D02*
G01X4950187Y3873978D01*
G01X4826000Y3998165D01*
G01X5088927Y3705426D02*
G01X5019474Y3705426D01*
G01X4950187Y3774713D01*
G01X5144300Y3760799D02*
G01X5088927Y3705426D01*
G01X6121400Y4267200D02*
G01X5762787Y3908587D01*
G01X5180923Y3908587D01*
G01X5144300Y3871965D01*
G01X5144300Y3760799D01*
G01X7033387Y3604806D02*
G01X7033387Y3520313D01*
G01X7061200Y3492500D01*
G01X7213600Y3492500D01*
G01X7480300Y3759200D01*
G01X7480300Y4152900D01*
G01X5690464Y4305300D02*
G01X5359400Y3974236D01*
G01X7480300Y4152900D02*
G01X7327900Y4305300D01*
G01X5690464Y4305300D01*
G01X5739536Y3327400D02*
G01X5906536Y3160400D01*
G01X5940100Y3160400D01*
G04 Track End*

M02*

