G04 Layer: BottomSolderMaskLayer*
G04 EasyEDA Pro v2.2.36.5, 2025-02-22 11:45:42*
G04 Gerber Generator version 0.3*
G04 Scale: 100 percent, Rotated: No, Reflected: No*
G04 Dimensions in millimeters*
G04 Leading zeros omitted, absolute positions, 4 integers and 5 decimals*
%FSLAX45Y45*%
%MOMM*%
%AMRoundRect*1,1,$1,$2,$3*1,1,$1,$4,$5*1,1,$1,0-$2,0-$3*1,1,$1,0-$4,0-$5*20,1,$1,$2,$3,$4,$5,0*20,1,$1,$4,$5,0-$2,0-$3,0*20,1,$1,0-$2,0-$3,0-$4,0-$5,0*20,1,$1,0-$4,0-$5,$2,$3,0*4,1,4,$2,$3,$4,$5,0-$2,0-$3,0-$4,0-$5,$2,$3,0*%
%ADD10RoundRect,0.08136X0.16032X-0.63533X-0.16032X-0.63533*%
%ADD11RoundRect,0.09681X-0.90259X-1.10259X-0.90259X1.10259*%
%ADD12RoundRect,0.09412X-0.75294X1.70294X0.75294X1.70294*%
%ADD13RoundRect,0.09167X-0.50417X1.75416X0.50417X1.75416*%
%ADD14RoundRect,0.09138X-0.40835X0.43712X0.40835X0.43712*%
%ADD15RoundRect,0.09138X-0.43712X-0.40835X-0.43712X0.40835*%
%ADD16RoundRect,0.09138X0.40835X-0.43712X-0.40835X-0.43712*%
%ADD17RoundRect,0.09881X-1.75139X-1.75139X-1.75139X1.75139*%
%ADD18O,1.0016X0.38161*%
%ADD19O,0.38161X1.0016*%
%ADD20RoundRect,0.09164X0.45518X0.40518X0.45518X-0.40518*%
%ADD21RoundRect,0.09164X-0.40518X0.45518X0.40518X0.45518*%
%ADD22C,2.102*%
G75*


G04 Pad Start*
G54D10*
G01X7133387Y3604806D03*
G01X7033387Y3604806D03*
G01X6933387Y3604806D03*
G01X6833387Y3604806D03*
G01X6733388Y3604806D03*
G01X6633388Y3604806D03*
G54D11*
G01X6393409Y3354794D03*
G01X7373391Y3354946D03*
G54D12*
G01X6137002Y4506598D03*
G54D13*
G01X7380001Y3951608D03*
G01X7180002Y3951608D03*
G01X6980002Y3951608D03*
G01X6780003Y3951608D03*
G01X6580003Y3951608D03*
G01X6380003Y3951608D03*
G54D12*
G01X7623003Y4506598D03*
G54D14*
G01X5739536Y3479800D03*
G01X5588864Y3479800D03*
G54D15*
G01X5207000Y3974236D03*
G01X5207000Y3823564D03*
G01X5359400Y3974236D03*
G01X5359400Y3823564D03*
G54D16*
G01X4585564Y3492500D03*
G01X4736236Y3492500D03*
G54D17*
G01X5157230Y3390914D03*
G54D18*
G01X5407217Y3240800D03*
G01X5407217Y3290838D03*
G01X5407217Y3340876D03*
G01X5407217Y3390914D03*
G01X5407217Y3440952D03*
G01X5407217Y3490990D03*
G01X5407217Y3541028D03*
G54D19*
G01X5307344Y3640926D03*
G01X5257306Y3640926D03*
G01X5207268Y3640926D03*
G01X5157230Y3640926D03*
G01X5107192Y3640926D03*
G01X5057154Y3640926D03*
G01X5007116Y3640926D03*
G54D18*
G01X4907218Y3541028D03*
G01X4907218Y3490990D03*
G01X4907218Y3440952D03*
G01X4907218Y3390914D03*
G01X4907218Y3340876D03*
G01X4907218Y3290838D03*
G01X4907218Y3240800D03*
G54D19*
G01X5007116Y3140927D03*
G01X5057154Y3140927D03*
G01X5107192Y3140927D03*
G01X5157230Y3140927D03*
G01X5207268Y3140927D03*
G01X5257306Y3140927D03*
G01X5307344Y3140927D03*
G54D20*
G01X5588000Y3028798D03*
G01X5588000Y3168802D03*
G54D21*
G01X4730902Y3327400D03*
G01X4590898Y3327400D03*
G01X4730902Y3149600D03*
G01X4590898Y3149600D03*
G54D16*
G01X4585564Y3657600D03*
G01X4736236Y3657600D03*
G54D14*
G01X4736236Y3822700D03*
G01X4585564Y3822700D03*
G01X5041036Y3822700D03*
G01X4890364Y3822700D03*
G01X4736236Y3987800D03*
G01X4585564Y3987800D03*
G54D15*
G01X5308600Y2970936D03*
G01X5308600Y2820264D03*
G01X5156200Y2970936D03*
G01X5156200Y2820264D03*
G01X5003800Y2970936D03*
G01X5003800Y2820264D03*
G01X4851400Y2970936D03*
G01X4851400Y2820264D03*
G01X4699000Y2970936D03*
G01X4699000Y2820264D03*
G54D16*
G01X5588864Y3327400D03*
G01X5739536Y3327400D03*
G54D22*
G01X300000Y5700000D03*
G01X9700000Y5700000D03*
G01X9700000Y300000D03*
G01X300000Y300000D03*
G04 Pad End*

M02*

